<?xml version="1.0" encoding="UTF-8" standalone="no"?>
<!-- Created with Inkscape (http://www.inkscape.org/) -->

<svg
   xmlns:dc="http://purl.org/dc/elements/1.1/"
   xmlns:cc="http://creativecommons.org/ns#"
   xmlns:rdf="http://www.w3.org/1999/02/22-rdf-syntax-ns#"
   xmlns:svg="http://www.w3.org/2000/svg"
   xmlns="http://www.w3.org/2000/svg"
   xmlns:xlink="http://www.w3.org/1999/xlink"
   xmlns:sodipodi="http://sodipodi.sourceforge.net/DTD/sodipodi-0.dtd"
   xmlns:inkscape="http://www.inkscape.org/namespaces/inkscape"
   width="444.65207"
   height="219.94571"
   id="svg2"
   version="1.1"
   inkscape:version="0.47pre0 r21549"
   sodipodi:docname="G2 phone.svg"
   inkscape:output_extension="org.inkscape.output.svg.inkscape"
   inkscape:export-filename="/home/lrbabe/workspace/todoso/website/image/mobile comet/G2 phone.png"
   inkscape:export-xdpi="75.610001"
   inkscape:export-ydpi="75.610001">
  <defs
     id="defs4">
    <linearGradient
       id="linearGradient3611">
      <stop
         style="stop-color:#e6e6e6;stop-opacity:1;"
         offset="0"
         id="stop3613" />
      <stop
         style="stop-color:#ffffff;stop-opacity:1;"
         offset="1"
         id="stop3615" />
    </linearGradient>
    <inkscape:perspective
       sodipodi:type="inkscape:persp3d"
       inkscape:vp_x="0 : 526.18109 : 1"
       inkscape:vp_y="0 : 1000 : 0"
       inkscape:vp_z="744.09448 : 526.18109 : 1"
       inkscape:persp3d-origin="372.04724 : 350.78739 : 1"
       id="perspective10" />
    <inkscape:perspective
       id="perspective2962"
       inkscape:persp3d-origin="0.5 : 0.33333333 : 1"
       inkscape:vp_z="1 : 0.5 : 1"
       inkscape:vp_y="0 : 1000 : 0"
       inkscape:vp_x="0 : 0.5 : 1"
       sodipodi:type="inkscape:persp3d" />
    <linearGradient
       inkscape:collect="always"
       xlink:href="#linearGradient3611"
       id="linearGradient3617"
       x1="528.8111"
       y1="620.86102"
       x2="659.54688"
       y2="532.54321"
       gradientUnits="userSpaceOnUse"
       gradientTransform="translate(0,0.71428571)" />
  </defs>
  <sodipodi:namedview
     id="base"
     pagecolor="#ffffff"
     bordercolor="#666666"
     borderopacity="1.0"
     inkscape:pageopacity="0.0"
     inkscape:pageshadow="2"
     inkscape:zoom="1.4"
     inkscape:cx="261.43165"
     inkscape:cy="177.32108"
     inkscape:document-units="px"
     inkscape:current-layer="layer1"
     showgrid="false"
     inkscape:window-width="1280"
     inkscape:window-height="776"
     inkscape:window-x="0"
     inkscape:window-y="24"
     inkscape:window-maximized="1" />
  <metadata
     id="metadata7">
    <rdf:RDF>
      <cc:Work
         rdf:about="">
        <dc:format>image/svg+xml</dc:format>
        <dc:type
           rdf:resource="http://purl.org/dc/dcmitype/StillImage" />
        <dc:title></dc:title>
      </cc:Work>
    </rdf:RDF>
  </metadata>
  <g
     inkscape:label="Layer 1"
     inkscape:groupmode="layer"
     id="layer1"
     transform="translate(-396.67798,-403.98782)">
    <g
       id="g4053"
       transform="matrix(0,-1,1,0,105.0433,1132.9647)">
      <path
         id="path2980"
         d="m 623.625,291.875 c -19.53114,-0.0863 -39.06916,1.21782 -58.375,4.0625 -17.31098,3.87903 -37.63705,5.51045 -49.59375,20.25 -2.97216,5.6412 -5.04752,11.77482 -5.78125,18.125 -1.60804,106.16998 0.28765,212.34907 3.6875,318.46875 1.06598,19.59291 0.60472,41.39938 13.15625,57.75 20.77591,23.05909 54.55083,24.45785 83.46875,25.5 31.29652,-0.73962 65.70548,1.19974 93.4375,-15.90625 16.03417,-9.45309 20.89963,-28.48889 22.21875,-45.8125 1.74172,-71.61811 3.16848,-143.26107 2.84375,-214.90625 -0.88873,-43.10215 0.52309,-86.32535 -2.03125,-129.34375 -0.24834,-16.11175 -13.68965,-27.35523 -28.125,-31.4375 -24.68359,-4.25829 -49.79479,-6.63904 -74.90625,-6.75 z"
         style="fill:#d2dbde" />
      <path
         id="path2978"
         d="m 623.625,291.875 c -19.53114,-0.0863 -39.06916,1.21782 -58.375,4.0625 -17.31098,3.87903 -37.63705,5.51045 -49.59375,20.25 -2.97216,5.6412 -5.04752,11.77482 -5.78125,18.125 -1.60804,106.16998 0.28765,212.34907 3.6875,318.46875 1.06598,19.59291 0.60472,41.39938 13.15625,57.75 20.77591,23.05909 54.55083,24.45785 83.46875,25.5 31.29652,-0.73962 65.70548,1.19974 93.4375,-15.90625 16.03417,-9.45309 20.89963,-28.48889 22.21875,-45.8125 1.74172,-71.61811 3.16848,-143.26107 2.84375,-214.90625 -0.88873,-43.10215 0.52309,-86.32535 -2.03125,-129.34375 -0.24834,-16.11175 -13.68965,-27.35523 -28.125,-31.4375 -24.68359,-4.25829 -49.79479,-6.63904 -74.90625,-6.75 z m -1.90625,6.65625 c 32.13012,-0.0208 54.34221,2.12974 74.375,7.21875 9.41494,2.39171 11.06212,5.09319 2.375,3.90625 -3.1625,-0.4321 -11.375,-0.53365 -18.25,-0.25 -6.875,0.28365 -14.13242,0.4801 -16.125,0.4375 -1.99258,-0.0426 -4.69765,0.29948 -6,0.78125 -1.30234,0.48182 -3.64009,0.53754 -5.1875,0.0937 -2.12193,-0.60856 -3.24078,-0.38422 -4.5625,0.9375 -1.66996,1.66997 -1.8213,1.65282 -3.46875,-0.53125 l -1.71875,-2.3125 -26.5625,0.40625 c -21.32719,0.32404 -26.87759,0.67843 -28.21875,1.84375 -1.38046,1.19946 -6.83989,1.4683 -31.53125,1.4375 -29.36439,-0.0366 -29.8021,-0.0689 -26.5,-1.84375 13.84706,-7.44266 48.95574,-12.0975 91.375,-12.125 l 0,5e-5 z M 518.875,316.9375 c 0.94167,-0.0183 0.78262,0.94354 -0.46875,5.5625 -1.38841,5.1249 -1.55223,18.4733 -1.40625,114.78125 0.1498,98.82298 1.32907,193.08181 2.75,220.5 1.12117,21.63398 3.87854,34.96153 8.875,42.84375 3.11514,4.91434 11.36053,12.5043 16.375,15.0625 9.09455,4.63969 28.41695,8.99472 49.21875,11.09375 9.56937,0.96562 49.40886,1.32283 66.5,0.59375 3.85,-0.16423 6.1,-0.12075 5,0.125 -1.1,0.24575 -2.55853,1.15359 -3.21875,2 -0.77299,0.991 -4.6895,2.0283 -11,2.90625 -10.03634,1.3963 -51.38081,3.04893 -52.28125,2.09375 -0.275,-0.29171 -6.89807,-1.26108 -14.71875,-2.15625 -22.47258,-2.57226 -35.26899,-6.35707 -47.34375,-14.0625 -13.74712,-8.77263 -19.29623,-20.61577 -21.875,-46.5 -0.57534,-5.775 -1.96145,-40.875 -3.0625,-78 -2.51679,-84.86117 -2.8722,-249.29462 -0.5625,-262.25 1.47374,-8.2665 4.16337,-14.0331 6.75,-14.53125 0.17934,-0.0345 0.33423,-0.0599 0.46875,-0.0625 z m 102.96875,329.2812 c 3.27947,-0.0725 6.75306,0.6302 9.3125,2.125 5.77113,3.37051 4.90593,4.11805 -5.65625,4.875 -5.38272,0.38576 -10.79375,0.94929 -12.03125,1.25 -3.19539,0.77645 -2.98785,-2.62303 0.34375,-5.75 1.69271,-1.58875 4.75178,-2.42754 8.03125,-2.5 z m 20.4375,12.75 c 0.59734,0.0553 1.34832,1.20809 2.40625,3.4375 2.22743,4.69394 1.32068,11.28004 -2.125,15.375 -2.43305,2.89151 -4.78609,3.82271 -5.65625,2.25 -0.22823,-0.4125 0.4182,-3.9 1.4375,-7.75 1.01931,-3.85 2.15158,-8.4625 2.5,-10.25 0.40813,-2.09378 0.84016,-3.11776 1.4375,-3.0625 z"
         style="fill:#9ca1a3"
         sodipodi:nodetypes="ccccccccccccccssssssscccssscccsssssssssssssssssccssssccsssssc" />
      <path
         id="path3816"
         d="m 699.5,650.0625 c -0.22294,0.0313 -0.28125,0.34718 -0.28125,0.9375 0,0.80068 0.28958,1.75834 0.65625,2.125 0.94968,0.94969 2.34375,0.81677 2.34375,-0.21875 0,-0.48265 -0.675,-1.44031 -1.5,-2.125 -0.60825,-0.50481 -0.99581,-0.75009 -1.21875,-0.71875 z"
         style="fill:#6b6b67" />
      <path
         id="path3814"
         d="m 583.4375,647.25 c -0.16969,0.0961 -0.3634,0.299 -0.59375,0.59375 -0.85389,1.09267 -3.00852,1.37404 -8.875,1.125 -6.4409,-0.27343 -7.75,-0.0871 -7.75,1.1875 0,1.63972 3.62117,2.50875 10.375,2.46875 2.23279,-0.0132 4.51809,0.64309 5.4375,1.5625 1.4254,1.42539 1.69981,1.43653 2.46875,0.0625 0.47266,-0.84458 0.53741,-2.9521 0.15625,-4.6875 -0.42454,-1.9329 -0.70967,-2.60089 -1.21875,-2.3125 z m 79.46875,1.0625 c -0.38719,-0.0357 -0.8031,0.17098 -1.3125,0.59375 -0.746,0.6191 -1.11391,1.51232 -0.8125,2 0.64272,1.03995 2.80666,1.16209 3.75,0.21875 0.36189,-0.3619 0.14945,-1.25511 -0.46875,-2 -0.42215,-0.50865 -0.76906,-0.7768 -1.15625,-0.8125 z"
         style="fill:#6b6b67" />
      <path
         id="path3806"
         d="m 709.125,353.03125 -171.15625,0.625 c -1.03092,-0.051 -2.08552,-0.12646 -3.09375,-0.125 -1.00823,10e-4 -1.98504,0.0785 -2.90625,0.28125 -0.92121,0.20278 -1.79263,0.54083 -2.5625,1.09375 -0.76987,0.55292 -1.4458,1.32311 -2,2.375 L 531.0625,620.5 c 58.71512,0.0421 117.44113,0.0829 176.15625,0.125 L 709.125,353.03125 z m -36.84375,121.75 c 3.90844,0 4.92963,0.3686 5.4375,1.96875 0.34385,1.08338 1.94429,3.22267 3.5625,4.75 3.91299,3.69324 4.13994,9.28204 0.46875,11.6875 -1.36355,0.89343 -3.18068,2.98018 -4.03125,4.625 -1.32611,2.56442 -2.1333,2.96875 -5.5625,2.96875 -3.31613,0 -4.13923,-0.42008 -4.90625,-2.4375 -0.50874,-1.3381 -2.32236,-3.44717 -4,-4.6875 -4.02898,-2.97876 -4.34464,-8.96904 -0.625,-11.40625 1.31938,-0.86449 2.95266,-2.87681 3.625,-4.5 1.11424,-2.69001 1.64584,-2.96875 6.03125,-2.96875 z m -93.4375,7.125 c 1.73317,0.003 3.37748,0.81498 4.96875,2.40625 2.09604,2.09604 2.47308,3.28925 2.21875,7.25 -0.2551,3.97289 -0.63654,4.71875 -2.3125,4.71875 -1.62963,0 -2.09259,-0.83333 -2.5,-4.5 -0.40741,-3.66667 -0.87037,-4.5 -2.5,-4.5 -1.39201,0 -2.0864,0.75998 -2.28125,2.5 -0.68933,6.15567 -1.19947,7.05235 -4,6.96875 -1.50006,-0.0448 -4.802,0.0684 -7.34375,0.28125 -7.5134,0.62908 -11.21875,-1.76512 -11.21875,-7.28125 0,-4.95626 2.77001,-6.96875 9.59375,-6.96875 5.0901,0 6.02217,0.29221 6.46875,2 0.50256,1.92178 0.61169,1.90405 3.46875,-0.5 1.88455,-1.58577 3.70433,-2.37775 5.4375,-2.375 z"
         style="fill:#6b6b67" />
      <path
         id="path3804"
         d="M 709.125,353.03125 707.21875,620.625 C 648.50363,620.5829 589.77762,620.54207 531.0625,620.5 l -3.65625,-263.21875 c 0.5542,-1.05189 1.23013,-1.82208 2,-2.375 0.76987,-0.55292 1.64129,-0.89097 2.5625,-1.09375 0.92121,-0.20278 1.89802,-0.27979 2.90625,-0.28125 1.00823,-10e-4 2.06283,0.074 3.09375,0.125 l 171.15625,-0.625 z"
         style="fill:#6b6b67" />
      <path
         id="path3952"
         d="m 541.9375,662.96875 c -1.81747,0.20455 -2.67755,0.75266 -3.96875,1.78125 -4.03387,3.21341 -3.57998,5.03125 1.25,5.03125 4.52256,0 4.59839,0.13793 2.375,3.53125 -0.88548,1.35141 -1.34946,3.1395 -1.03125,3.96875 0.84617,2.20508 2.38947,1.83953 4.25,-1 0.90093,-1.375 2.4945,-2.5 3.53125,-2.5 1.03674,0 1.875,-0.675 1.875,-1.5 0,-0.97619 0.95903,-1.5 2.78125,-1.5 3.40062,0 5.21875,1.64511 5.21875,4.71875 0,1.265 0.4702,2.28125 1.0625,2.28125 2.03262,0 6.9375,-5.82248 6.9375,-8.25 0,-4.45733 -2.68616,-5.64093 -14.5625,-6.34375 -5.14351,-0.30438 -7.90128,-0.4233 -9.71875,-0.21875 z"
         style="fill:#6b6b67" />
      <path
         id="path3950"
         d="m 542,645.78125 c -1.45549,0 -4.78125,3.00384 -4.78125,4.3125 0,0.55 0.80619,0.28867 1.78125,-0.59375 2.16595,-1.96016 4.81118,-0.7086 3.84375,1.8125 -0.42802,1.11534 -1.36295,1.52571 -2.65625,1.1875 -1.81095,-0.47357 -2.64446,0.29304 -1.53125,1.40625 1.51733,1.51733 4.736,0.50605 5.59375,-1.75 1.03505,-2.7224 -0.2527,-6.375 -2.25,-6.375 z"
         style="fill:#6b6b67" />
      <path
         id="path3948"
         d="m 550.375,644 c -0.37466,0.48834 -0.58294,2.22244 -0.5,5.03125 0.0852,2.88688 0.21155,5.7 0.28125,6.25 0.0697,0.55 0.78367,0.13365 1.59375,-0.9375 0.81009,-1.07115 1.28896,-2.64615 1.0625,-3.5 -0.22647,-0.85385 -0.69465,-2.8 -1.03125,-4.3125 C 551.27806,644.2702 550.74966,643.51166 550.375,644 z"
         style="fill:#6b6b67" />
      <path
         id="path3946"
         d="m 673.875,643.5625 c -0.13076,0.28899 -0.0727,1.18575 0.0937,2.875 0.20872,2.11854 0.56113,4.40625 0.78125,5.09375 0.73735,2.30296 1.46875,1.27813 1.46875,-2.0625 0,-1.81988 -0.59139,-4.10758 -1.3125,-5.09375 -0.57497,-0.78633 -0.90049,-1.10149 -1.03125,-0.8125 z"
         style="fill:#6b6b67" />
      <path
         id="path3944"
         d="m 702.40625,639.875 -3.6875,0.0625 3.5,1.25 c 2.33935,0.82763 3.9814,2.277 4.9375,4.40625 1.76606,3.93305 2.0625,3.9949 2.0625,0.28125 0,-3.99174 -2.37517,-6.0918 -6.8125,-6 z"
         style="fill:#6b6b67" />
      <path
         id="path3942"
         d="m 714.09375,343.78125 -56.6875,0.0625 c -81.80434,0.0781 -134.97166,1.28416 -136.8125,3.125 -1.23316,1.23316 -1.43425,14.11834 -1.40625,89.375 0.018,48.36322 0.26312,94.4625 0.53125,102.4375 0.26813,7.975 0.73205,31.14199 1.03125,51.46875 0.46993,31.92451 0.74654,37.19557 2.125,38.71875 1.33113,1.47088 3.69078,1.8026 14.21875,2.0625 27.70863,0.68401 175.68964,0.68715 176.71875,0 3.3625,-2.24523 3.40625,-3.80998 3.40625,-143.9375 0,-124.0455 -0.17171,-139.10812 -1.5625,-141.09375 l -1.5625,-2.21875 z"
         style="fill:#6b6b67" />
      <path
         id="path3940"
         d="m 591.21875,326.1875 c -6.27386,-0.73048 -9.49535,6.0984 -5,10.59375 2.67532,2.67532 5.55534,2.53841 8.53125,-0.4375 4.26218,-4.26218 2.45631,-9.4591 -3.53125,-10.15625 z"
         style="fill:#6b6b67" />
      <path
         id="path3938"
         d="m 631.21875,326.0625 c -0.47288,-0.0109 -0.92286,0.25039 -1.5625,0.78125 -2.05503,1.70552 -6.52739,2.13308 -8.15625,0.78125 -0.93579,-0.77664 -1.7064,-0.73048 -2.8125,0.1875 -0.84956,0.70507 -4.65197,1.38166 -8.53125,1.5 -3.84838,0.1174 -7.25912,0.44662 -7.5625,0.75 -0.30338,0.30338 -0.0514,1.50915 0.5625,2.65625 1.21219,2.26499 2.57204,2.66511 3.5625,1.0625 0.34546,-0.55897 1.163,-0.68269 1.8125,-0.28125 1.85181,1.14455 17.82015,1.21365 21.53125,0.0937 2.29777,-0.69343 3.6505,-0.69325 4.375,0.0312 1.23064,1.23064 6.96661,0.36321 8,-1.21875 0.49742,-0.76148 1.0656,-0.71565 1.9375,0.15625 0.6829,0.6829 2.69082,1.21875 4.46875,1.21875 2.39348,0 3.41851,-0.52587 3.90625,-2.0625 0.36225,-1.14145 0.37718,-2.37282 0.0312,-2.71875 -0.34593,-0.34593 -4.62094,-0.62855 -9.46875,-0.65625 -5.92179,-0.0338 -9.3302,-0.51852 -10.4375,-1.4375 -0.67615,-0.56118 -1.18337,-0.83286 -1.65625,-0.84375 z"
         style="fill:#6b6b67" />
      <path
         id="path3930"
         d="m 510.15625,332.96875 c -0.0666,0.45322 -0.22862,0.88823 -0.28125,1.34375 -0.0366,2.41676 -0.0295,4.83321 -0.0625,7.25 0.10863,-3.47912 0.2086,-7.6011 0.34375,-8.59375 z"
         style="fill:#6b6b67" />
      <path
         id="path3928"
         d="m 619.40625,735.875 c 4.8853,-0.0653 9.73515,-0.10231 14.6875,-0.21875 4.03042,-0.0948 8.06159,-0.24555 12.09375,-0.46875 4.03216,-0.2232 8.06689,-0.53225 12.0625,-0.96875 3.99561,-0.4365 7.95423,-0.9841 11.875,-1.71875 3.92077,-0.73465 7.78611,-1.66359 11.59375,-2.78125 3.80764,-1.11766 7.56254,-2.44572 11.21875,-4.03125 3.65621,-1.58553 7.221,-3.42425 10.6875,-5.5625 2.00427,-1.18164 3.82999,-2.50963 5.5,-3.96875 1.67001,-1.45912 3.19694,-3.05755 4.5625,-4.75 1.36556,-1.69245 2.56533,-3.46211 3.65625,-5.34375 1.09092,-1.88164 2.06016,-3.84831 2.90625,-5.875 0.84609,-2.02669 1.58767,-4.1224 2.21875,-6.25 0.63108,-2.1276 1.14788,-4.31564 1.59375,-6.5 0.89174,-4.36872 1.45147,-8.7941 1.78125,-13.125 0.87086,-35.80905 1.65511,-71.6175 2.1875,-107.4375 0.26619,-17.91 0.47898,-35.83883 0.59375,-53.75 0.11477,-17.91117 0.14368,-35.80746 0.0625,-53.71875 -0.44437,-21.55108 -0.30144,-43.14782 -0.375,-64.71875 -0.0368,-10.78546 -0.13572,-21.56862 -0.375,-32.34375 -0.23928,-10.77513 -0.64266,-21.52665 -1.28125,-32.28125 -0.031,-2.01397 -0.26789,-3.95562 -0.6875,-5.8125 -0.41961,-1.85688 -1.02075,-3.62153 -1.78125,-5.3125 -0.7605,-1.69097 -1.66505,-3.29626 -2.71875,-4.8125 -1.0537,-1.51624 -2.26329,-2.94856 -3.5625,-4.28125 -1.29921,-1.33269 -2.69046,-2.57843 -4.1875,-3.71875 -1.49704,-1.14032 -3.07157,-2.18587 -4.71875,-3.125 -1.64718,-0.93913 -3.37536,-1.77088 -5.125,-2.5 -1.74964,-0.72912 -3.53933,-1.36472 -5.34375,-1.875 -5.48524,-0.94629 -10.97634,-1.7747 -16.5,-2.53125 -5.52366,-0.75655 -11.0728,-1.44179 -16.625,-2 -5.5522,-0.55821 -11.11664,-0.9925 -16.6875,-1.34375 C 643.14789,292.39875 637.57964,292.13567 632,292 c -5.57964,-0.13567 -11.17146,-0.15101 -16.75,-0.0625 -5.57854,0.0885 -11.15119,0.30368 -16.71875,0.625 -5.56756,0.32132 -11.1408,0.74977 -16.6875,1.3125 -5.5467,0.56273 -11.0778,1.24973 -16.59375,2.0625 -4.32775,0.96976 -8.84898,1.79073 -13.375,2.71875 -4.52602,0.92802 -9.03724,1.94587 -13.40625,3.3125 -2.18451,0.68331 -4.32761,1.46072 -6.40625,2.34375 -2.07864,0.88303 -4.10288,1.88846 -6.03125,3.03125 -1.92837,1.14279 -3.76632,2.4124 -5.5,3.875 -1.73368,1.4626 -3.38041,3.12631 -4.875,4.96875 -0.13748,0.26094 -0.21003,0.54946 -0.34375,0.8125 2.13378,-3.03592 5.02069,-5.25582 9.21875,-7.375 13.04035,-6.58274 26.08085,-9.51003 55.84375,-12.5 20.76006,-2.08556 66.67284,-2.33909 86.34375,-0.5 24.32557,2.27426 40.26046,6.73488 46.65625,13.09375 6.14212,6.10666 6.99431,10.72467 7.875,41.5625 1.98532,69.51648 0.59362,275.86475 -2.09375,309.75 -1.07947,13.6112 -3.62371,23.82427 -7.03125,28.15625 -1.8855,2.39706 -2.68899,2.62811 -8,2.46875 -5.20167,-0.15608 -5.90625,-0.40694 -5.90625,-2.1875 0,-2.50443 -2.76803,-5.69885 -4.90625,-5.65625 -2.49667,0.0498 -4.86916,2.33562 -5.25,5.03125 -0.20412,1.44483 -0.96333,2.3876 -1.84375,2.3125 -3.8545,-0.32894 -14.85804,-2.73154 -18,-3.9375 -1.925,-0.73887 -6.425,-1.6243 -10,-1.96875 -6.3486,-0.61169 -6.61389,-0.53769 -11.28125,3.03125 -4.84034,3.70121 -9.78358,4.84142 -11.875,2.75 -0.5866,-0.5866 -1.30939,-3.13341 -1.59375,-5.65625 -0.49874,-4.42481 -1.45649,-5.6867 -2.75,-3.59375 -0.33992,0.55 -1.60746,0.98975 -2.8125,0.96875 -1.85792,-0.0323 -1.40963,-0.75817 2.96875,-4.84375 7.7265,-7.20982 9.85193,-16.98994 4.59375,-21.15625 -2.35184,-1.86347 -3.6235,-2.10985 -8.71875,-1.65625 -3.27682,0.29172 -6.42682,1.14571 -7,1.875 -0.57318,0.72929 -2.71875,2.58451 -4.78125,4.125 -4.47899,3.34538 -4.76599,5.83638 -0.9375,8.5625 3.0355,2.16148 8.55184,11.71909 7.625,13.21875 -1.1481,1.85766 -6.25415,0.82127 -10.84375,-2.21875 -6.8819,-4.55838 -8.0007,-6.72399 -7.25,-13.90625 l 0.625,-5.96875 -2.90625,0 c -6.85025,0 -12.0625,8.91439 -12.0625,20.625 0,3.56311 -0.48449,6.57293 -1.125,6.96875 -1.10101,0.6805 -6.76825,0.70859 -21.875,0.0937 -4.125,-0.16788 -7.97423,0.0277 -8.53125,0.4375 -0.55701,0.40975 -3.93201,0.0892 -7.5,-0.71875 -3.56798,-0.80793 -9.16875,-1.89205 -12.46875,-2.375 -3.3,-0.48295 -6.9,-1.00683 -8,-1.1875 -3.13946,-0.51564 -3.21546,5.91155 -0.15625,12.59375 6.75919,14.76402 21.91599,21.897 55.65625,26.15625 35.56995,4.49023 78.82648,1.96606 104.5,-6.0625 9.88012,-3.08968 10.5,-3.10147 10.5,-0.1875 0,2.99738 -2.18206,4.93211 -9.15625,8.125 -12.59825,5.76767 -34.25155,9.37948 -60.84375,10.125 -5.05074,0.1416 -6.87789,0.31354 -10.8125,0.5 z M 640.5625,310.5 c -1.02389,0.11179 -12.53593,0.2418 -25.59375,0.3125 -13.97668,0.0756 -23.99372,0.52738 -24.34375,1.09375 -0.32703,0.52913 -0.0397,1.63659 0.625,2.4375 0.99889,1.20358 5.48836,1.4502 25.84375,1.4375 13.92511,-0.009 25.27686,-0.42807 26.125,-0.96875 2.01203,-1.28263 -0.0343,-4.59878 -2.65625,-4.3125 z m 55.25,354.25 c -5.12851,0.0621 -10.03209,0.62584 -11.03125,1.625 -2.52628,2.52627 -1.82956,3.40625 2.59375,3.40625 l 4.125,0 -2.6875,2.5 c -1.48628,1.37743 -2.45393,2.92458 -2.15625,3.40625 0.29769,0.48167 3.56048,0.77638 7.28125,0.65625 5.22609,-0.16873 6.70434,-0.56565 6.46875,-1.65625 -0.16772,-0.77646 -0.95522,-1.88937 -1.75,-2.5 -2.19496,-1.68642 -1.7332,-2.40625 1.53125,-2.40625 2.92085,0 3.76781,0.61026 6.4375,4.46875 1.17415,1.69699 1.59629,1.78466 3.03125,0.59375 2.49622,-2.07168 1.65639,-7.19308 -1.4375,-8.75 -1.91535,-0.96385 -7.27774,-1.40589 -12.40625,-1.34375 z"
         style="fill:#6b6b67" />
      <path
         id="path3835"
         d="m 709.125,353.03125 -171.15625,0.625 c -1.03092,-0.051 -2.08552,-0.12646 -3.09375,-0.125 -1.00823,10e-4 -1.98504,0.0785 -2.90625,0.28125 -0.92121,0.20278 -1.79263,0.54083 -2.5625,1.09375 -0.76987,0.55292 -1.4458,1.32311 -2,2.375 L 531.0625,620.5 c 58.71512,0.0421 117.44113,0.0829 176.15625,0.125 l 1.09375,-154.9375 c -0.0242,9.08888 -0.53058,15.09285 -1.59375,18.75 -1.38094,4.75027 -2.03166,5.57761 -5.53125,7.09375 -4.04197,1.75111 -4.75154,2.64817 -2.96875,3.75 0.55,0.33992 1,1.74247 1,3.09375 0,2.144 -0.41387,2.41512 -3.25,2.25 -4.55391,-0.26513 -6.42205,-1.38721 -7.15625,-4.3125 -0.34875,-1.38951 -1.0034,-2.53125 -1.46875,-2.53125 -1.62729,0 -6.19479,4.20716 -7.6875,7.09375 -1.38314,2.67469 -1.93629,2.90625 -6.9375,2.90625 -4.89615,0 -5.68226,-0.28777 -7.6875,-3 -1.22637,-1.65875 -3.22559,-3.68545 -4.46875,-4.5 -2.07116,-1.35708 -2.58509,-1.27612 -6.03125,1.0625 l -3.75,2.5625 L 630.25,499.375 c -25.1692,-0.66331 -35.05833,-0.62246 -54.59375,0.3125 -1.21028,0.0579 -3.46054,1.95523 -5.4375,4.59375 -3.09811,4.13484 -7,6.0358 -7,3.40625 0,-2.83631 -3.42067,-7.81732 -6.125,-8.9375 -6.01244,-2.49043 -7.91774,-11.69895 -3.3125,-16.03125 2.16929,-2.04072 4.02844,-2.54235 11.75,-3.1875 8.92268,-0.7455 12.21118,-0.85624 18.9375,-0.625 5.10091,0.17536 20.10181,-1.29889 21.65625,-2.125 0.77205,-0.41031 3.24705,0.036 5.5,0.96875 3.29932,1.36594 6.72031,1.62706 17.59375,1.40625 7.425,-0.15078 15.35876,-0.555 17.625,-0.90625 2.90291,-0.44994 5.04121,-0.15837 7.28125,1 4.13771,2.13969 6.6071,1.24415 9.5625,-3.4375 2.38528,-3.77856 2.47332,-3.80575 9.0625,-3.84375 6.56238,-0.0378 6.65589,0.002 8,3.21875 1.69862,4.06539 3.95827,6.02622 6.0625,5.21875 2.60133,-0.99823 1.62225,-15.64285 -1.25,-18.78125 -1.171,-1.2795 -2.8441,-3.73696 -3.71875,-5.46875 -1.43358,-2.83846 -2.15606,-3.22715 -7.46875,-3.84375 -5.08853,-0.59059 -6.72317,-1.36128 -12.03125,-5.65625 -7.32832,-5.92962 -10.6721,-7.41665 -20.90625,-9.375 -11.04811,-2.11411 -18.94598,-1.91163 -25.125,0.65625 -4.85204,2.01642 -5.36537,2.04002 -8.875,0.5625 -6.75143,-2.84229 -8.68215,-2.80375 -17.375,0.25 -4.59712,1.61494 -10.36875,3.21752 -12.84375,3.5625 -7.94011,1.10673 -16.46597,6.85129 -28.96875,19.5 -6.34211,6.41614 -12.76875,12.41645 -14.28125,13.34375 -3.19815,1.96075 -2.91613,2.81975 -3.15625,-9.875 -1.9961,-105.50384 -1.99707,-108.22001 0,-109.25 2.99106,-1.54266 62.17368,-2.46253 75.875,-1.1875 6.46641,0.60176 12.86817,1.50588 14.25,2.03125 1.67937,0.63849 2.94684,0.59344 3.8125,-0.125 1.76247,-1.46272 80.13006,-0.68244 81.625,0.8125 0.99737,0.99737 2.42572,57.13176 2.125,82.09375 l 0.625,-86.625 z m -4.34375,143.75 c 0.85748,0 1.27742,0.45 0.9375,1 -0.33992,0.55 -1.04496,1 -1.5625,1 -0.51754,0 -0.9375,-0.45 -0.9375,-1 0,-0.55 0.70504,-1 1.5625,-1 z m -5,36.65625 c 0.24897,-0.12524 0.56161,-0.14424 0.9375,0 0.825,0.31659 1.5,1.20259 1.5,1.96875 0,1.47024 -1.22254,1.83997 -2.34375,0.71875 -0.96353,-0.96353 -0.84066,-2.31178 -0.0937,-2.6875 z m 4.4375,22.34375 c 1.81558,0 2.61464,12.33083 1.375,21.375 -0.66806,4.874 -0.92397,5.02506 -6.09375,3.53125 -3.54601,-1.02462 -5.84083,-4.20068 -5.4375,-7.5625 0.14863,-1.23877 -0.49169,-2.59197 -1.5,-3.15625 -1.40357,-0.78548 -1.51294,-1.29229 -0.5625,-2.4375 0.65674,-0.79133 0.93979,-1.68521 0.625,-2 -0.31479,-0.31479 0.007,-1.62165 0.71875,-2.90625 0.71141,-1.28461 1.2106,-2.68125 1.09375,-3.09375 -0.31658,-1.1176 1.0798,-0.85055 2.78125,0.53125 0.825,0.67001 1.63189,2.31522 1.78125,3.65625 0.59855,5.3741 2.94862,3.54348 3.8125,-2.96875 0.3618,-2.72739 0.99586,-4.96875 1.40625,-4.96875 z M 690.25,571.3125 c 1.09703,0.59163 1.91285,2.85658 1.40625,4.875 -0.97991,3.90426 -3.4375,3.30168 -3.4375,-0.84375 0,-1.89254 0.38732,-3.66735 0.875,-3.96875 0.39485,-0.24403 0.79057,-0.25971 1.15625,-0.0625 z m -4.0625,12 c 0.55897,-0.34546 1.03125,0.0488 1.03125,0.90625 0,1.75653 -0.61152,2.04329 -1.46875,0.65625 -0.31644,-0.512 -0.12147,-1.21704 0.4375,-1.5625 z"
         style="fill:#1c161a" />
      <path
         id="path3833"
         d="m 709.125,353.03125 -0.625,86.625 c -0.006,0.5338 0.0393,1.62109 0.0312,2.125 -0.0734,4.58983 -0.15084,12.32516 -0.1875,19 -0.009,1.72355 -0.0272,3.39573 -0.0312,4.90625 L 707.21875,620.625 C 648.50363,620.5829 589.77762,620.54207 531.0625,620.5 l -3.65625,-263.21875 c 0.5542,-1.05189 1.23013,-1.82208 2,-2.375 0.76987,-0.55292 1.64129,-0.89097 2.5625,-1.09375 0.92121,-0.20278 1.89802,-0.27979 2.90625,-0.28125 1.00823,-10e-4 2.06283,0.074 3.09375,0.125 l 171.15625,-0.625 z"
         style="fill:#1c161a" />
      <path
         id="path3908"
         d="m 709.125,353.03125 -171.15625,0.625 c -1.03092,-0.051 -2.08552,-0.12646 -3.09375,-0.125 -1.00823,10e-4 -1.98504,0.0785 -2.90625,0.28125 -0.92121,0.20278 -1.79263,0.54083 -2.5625,1.09375 -0.76987,0.55292 -1.4458,1.32311 -2,2.375 L 531.0625,620.5 c 58.71512,0.0421 117.44113,0.0829 176.15625,0.125 L 709.125,353.03125 z"
         style="fill:#1c161a" />
      <path
         id="path3906"
         d="M 709.125,353.03125 707.21875,620.625 C 648.50363,620.5829 589.77762,620.54207 531.0625,620.5 l -3.65625,-263.21875 c 0.5542,-1.05189 1.23013,-1.82208 2,-2.375 0.76987,-0.55292 1.64129,-0.89097 2.5625,-1.09375 0.92121,-0.20278 1.89802,-0.27979 2.90625,-0.28125 1.00823,-10e-4 2.06283,0.074 3.09375,0.125 l 171.15625,-0.625 z"
         style="fill:#1c161a" />
      <path
         id="path3913"
         d="m 709.125,353.03125 -171.15625,0.625 c -1.03092,-0.051 -2.08552,-0.12646 -3.09375,-0.125 -1.00823,10e-4 -1.98504,0.0785 -2.90625,0.28125 -0.92121,0.20278 -1.79263,0.54083 -2.5625,1.09375 -0.76987,0.55292 -1.4458,1.32311 -2,2.375 L 531.0625,620.5 c 58.71512,0.0421 117.44113,0.0829 176.15625,0.125 L 709.125,353.03125 z"
         style="fill:#1c161a" />
      <path
         id="path3911"
         d="M 709.125,353.03125 707.21875,620.625 C 648.50363,620.5829 589.77762,620.54207 531.0625,620.5 l -3.65625,-263.21875 c 0.5542,-1.05189 1.23013,-1.82208 2,-2.375 0.76987,-0.55292 1.64129,-0.89097 2.5625,-1.09375 0.92121,-0.20278 1.89802,-0.27979 2.90625,-0.28125 1.00823,-10e-4 2.06283,0.074 3.09375,0.125 l 171.15625,-0.625 z"
         style="fill:#1c161a" />
      <path
         sodipodi:nodetypes="ccccssssssc"
         id="path3831"
         d="m 683.625,345.46875 c -52.20727,0.0568 -155.23037,1.26535 -158.90625,2.1875 l -3,0.75 -0.3125,67.4375 c -0.37588,82.70035 1.38512,209.75448 2.9375,211.625 0.81546,0.98256 6.96664,1.37094 25.21875,1.625 13.27816,0.18483 55.24688,0.2877 93.25,0.25 57.02,-0.0565 69.38556,-0.30493 70.75,-1.4375 1.52347,-1.26458 1.65625,-12.33619 1.65625,-141.1875 0,-135.71744 -0.0551,-139.90101 -1.875,-140.875 -0.54269,-0.29044 -12.31633,-0.39395 -29.71875,-0.375 z"
         style="fill:#1c161a" />
      <path
         id="path3756"
         d="m 515.67041,316.1763 c 11.9567,-14.73955 32.27495,-16.36329 49.58593,-20.24232 44.12763,-6.50213 89.39709,-4.86541 133.27903,2.70488 14.43535,4.08227 27.88088,15.30831 28.12922,31.42006 2.55434,43.0184 1.12704,86.24184 2.01577,129.34399 0.32473,71.64518 -1.09632,143.29354 -2.83804,214.91165 -1.31912,17.32361 -6.17998,36.36232 -22.21415,45.81541 -27.73202,17.10599 -62.14748,15.16717 -93.444,15.90679 -28.91792,-1.04215 -62.70023,-2.43682 -83.47614,-25.49591 -12.55153,-16.35062 -12.08239,-38.15354 -13.14837,-57.74645 -3.39985,-106.11968 -5.30802,-212.31986 -3.69998,-318.48984 0.73373,-6.35018 2.83857,-12.48706 5.81073,-18.12826 z"
         style="fill:none;stroke:#000000;stroke-width:0.5;stroke-miterlimit:4;stroke-opacity:1;stroke-dasharray:none" />
      <path
         id="path3763"
         d="m 529.41344,353.76116 c 0,0 123.74815,0.19813 179.70118,0 -0.63134,89.18805 0.63134,178.3761 0,267.56415 -58.71512,-0.0421 -120.98606,-0.0842 -179.70118,-0.12627 -1.2206,-87.73596 0,-267.43788 0,-267.43788 z"
         style="fill:url(#linearGradient3617);fill-opacity:1;stroke:#000000;stroke-width:0.5;stroke-miterlimit:4;stroke-opacity:1;stroke-dasharray:none"
         sodipodi:nodetypes="ccccc" />
    </g>
  </g>
</svg>
