<?xml version="1.0" encoding="UTF-8" standalone="no"?>
<!-- Created with Inkscape (http://www.inkscape.org/) -->

<svg
   xmlns:dc="http://purl.org/dc/elements/1.1/"
   xmlns:cc="http://creativecommons.org/ns#"
   xmlns:rdf="http://www.w3.org/1999/02/22-rdf-syntax-ns#"
   xmlns:svg="http://www.w3.org/2000/svg"
   xmlns="http://www.w3.org/2000/svg"
   xmlns:xlink="http://www.w3.org/1999/xlink"
   xmlns:sodipodi="http://sodipodi.sourceforge.net/DTD/sodipodi-0.dtd"
   xmlns:inkscape="http://www.inkscape.org/namespaces/inkscape"
   width="1024"
   height="768"
   id="svg3982"
   version="1.1"
   inkscape:version="0.47pre0 r21549"
   sodipodi:docname="player embedded.svg"
   inkscape:output_extension="org.inkscape.output.svg.inkscape"
   style="display:inline"
   inkscape:export-filename="/home/lrbabe/workspace/todoso/website/image/embedded.png"
   inkscape:export-xdpi="52.734375"
   inkscape:export-ydpi="52.734375">
  <defs
     id="defs3984">
    <inkscape:path-effect
       effect="sketch"
       id="path-effect4767"
       is_visible="true"
       nbiter_approxstrokes="1"
       strokelength="20"
       strokelength_rdm="0.3;1741417890"
       strokeoverlap="0.3"
       strokeoverlap_rdm="0.3;252978155"
       ends_tolerance="0.1;1839034513"
       parallel_offset="0;1937242858"
       tremble_size="1;1571510750"
       tremble_frequency="1"
       nbtangents="0"
       tgt_places_rdmness="1;1"
       tgtscale="10"
       tgtlength="100"
       tgtlength_rdm="0.3;1" />
    <inkscape:path-effect
       effect="sketch"
       id="path-effect4765"
       is_visible="true"
       nbiter_approxstrokes="1"
       strokelength="20"
       strokelength_rdm="0.3;1"
       strokeoverlap="0.3"
       strokeoverlap_rdm="0.3;1"
       ends_tolerance="0.1;1"
       parallel_offset="0;1"
       tremble_size="1;203897216"
       tremble_frequency="1"
       nbtangents="0"
       tgt_places_rdmness="1;1"
       tgtscale="10"
       tgtlength="100"
       tgtlength_rdm="0.3;1" />
    <inkscape:path-effect
       effect="sketch"
       id="path-effect4762"
       is_visible="true"
       nbiter_approxstrokes="1"
       strokelength="20"
       strokelength_rdm="0.3;1"
       strokeoverlap="0.3"
       strokeoverlap_rdm="0.3;1"
       ends_tolerance="0.1;1"
       parallel_offset="0;1"
       tremble_size="1;2128881214"
       tremble_frequency="1"
       nbtangents="0"
       tgt_places_rdmness="1;1"
       tgtscale="10"
       tgtlength="100"
       tgtlength_rdm="0.3;1" />
    <inkscape:path-effect
       effect="sketch"
       id="path-effect4760"
       is_visible="true"
       nbiter_approxstrokes="2"
       strokelength="20"
       strokelength_rdm="0.3;1"
       strokeoverlap="0.3"
       strokeoverlap_rdm="0.3;1"
       ends_tolerance="0.1;1"
       parallel_offset="0;1"
       tremble_size="1;1"
       tremble_frequency="1"
       nbtangents="0"
       tgt_places_rdmness="1;1"
       tgtscale="10"
       tgtlength="100"
       tgtlength_rdm="0.3;1" />
    <inkscape:path-effect
       effect="sketch"
       id="path-effect4756"
       is_visible="true"
       nbiter_approxstrokes="1"
       strokelength="20"
       strokelength_rdm="0.3;1"
       strokeoverlap="0.3"
       strokeoverlap_rdm="0.3;1"
       ends_tolerance="0.1;1"
       parallel_offset="0;1"
       tremble_size="1;758124198"
       tremble_frequency="1"
       nbtangents="0"
       tgt_places_rdmness="1;1"
       tgtscale="10"
       tgtlength="100"
       tgtlength_rdm="0.3;1" />
    <inkscape:path-effect
       effect="sketch"
       id="path-effect4754"
       is_visible="true"
       nbiter_approxstrokes="1"
       strokelength="20"
       strokelength_rdm="0.3;1"
       strokeoverlap="0.3"
       strokeoverlap_rdm="0.3;1"
       ends_tolerance="0.1;1"
       parallel_offset="0;1"
       tremble_size="1;1"
       tremble_frequency="1"
       nbtangents="0"
       tgt_places_rdmness="1;1"
       tgtscale="10"
       tgtlength="100"
       tgtlength_rdm="0.3;1" />
    <inkscape:path-effect
       effect="sketch"
       id="path-effect4752"
       is_visible="true"
       nbiter_approxstrokes="2"
       strokelength="30"
       strokelength_rdm="0.3;1"
       strokeoverlap="0.3"
       strokeoverlap_rdm="0.3;1"
       ends_tolerance="0.1;1"
       parallel_offset="1;1"
       tremble_size="1;1"
       tremble_frequency="1"
       nbtangents="0"
       tgt_places_rdmness="1;1031557996"
       tgtscale="10"
       tgtlength="50"
       tgtlength_rdm="0.3;1" />
    <inkscape:path-effect
       effect="rough_hatches"
       id="path-effect4688"
       is_visible="true"
       direction="475.36366,560.13633 , 21.585939,21.585939"
       dist_rdm="75;1"
       growth="0"
       do_bend="true"
       bender="471.82812,563.67187 , 3.5355339,3.5355339"
       bottom_edge_variation="12.210851;1"
       top_edge_variation="12.210851;1"
       bottom_tgt_variation="0;1"
       top_tgt_variation="0;1"
       scale_bf="1"
       scale_bb="1"
       scale_tf="1"
       scale_tb="1"
       top_smth_variation="0;1"
       bottom_smth_variation="0;1"
       fat_output="true"
       stroke_width_top="1"
       stroke_width_bottom="1"
       front_thickness="1"
       back_thickness="0.25" />
    <inkscape:path-effect
       effect="rough_hatches"
       id="path-effect4685"
       is_visible="true"
       direction="471.83314,558.6836 , 37.52263,-2.9453853e-15"
       dist_rdm="75;270385171"
       growth="0"
       do_bend="true"
       bender="471.83314,563.6836 , 5,-3.9248119e-16"
       bottom_edge_variation="2.259051;1"
       top_edge_variation="2.259051;1"
       bottom_tgt_variation="0;1"
       top_tgt_variation="0;1"
       scale_bf="1"
       scale_bb="1"
       scale_tf="1"
       scale_tb="1"
       top_smth_variation="0;1"
       bottom_smth_variation="0;1"
       fat_output="true"
       stroke_width_top="1"
       stroke_width_bottom="1"
       front_thickness="8"
       back_thickness="6" />
    <inkscape:perspective
       sodipodi:type="inkscape:persp3d"
       inkscape:vp_x="0 : 526.18109 : 1"
       inkscape:vp_y="0 : 1000 : 0"
       inkscape:vp_z="744.09448 : 526.18109 : 1"
       inkscape:persp3d-origin="372.04724 : 350.78739 : 1"
       id="perspective3990" />
    <inkscape:perspective
       id="perspective4000"
       inkscape:persp3d-origin="0.5 : 0.33333333 : 1"
       inkscape:vp_z="1 : 0.5 : 1"
       inkscape:vp_y="0 : 1000 : 0"
       inkscape:vp_x="0 : 0.5 : 1"
       sodipodi:type="inkscape:persp3d" />
    <filter
       id="filter4006"
       inkscape:label="Desaturate"
       inkscape:menu="Color"
       inkscape:menu-tooltip="Render in shades of gray by reducing saturation to zero"
       color-interpolation-filters="sRGB"
       x="0"
       y="0"
       width="1"
       height="1">
      <feColorMatrix
         id="feColorMatrix4008"
         type="matrix"
         values="1 0 0 0 0 0 1 0 0 0 0 0 1 0 0 0 0 0 1 0 "
         result="result7" />
      <feGaussianBlur
         id="feGaussianBlur4010"
         result="result6"
         stdDeviation="5" />
      <feComposite
         id="feComposite4012"
         in2="result7"
         operator="atop"
         in="result6"
         result="result8" />
      <feComposite
         id="feComposite4014"
         in2="result8"
         operator="in"
         result="fbSourceGraphic" />
      <feColorMatrix
         result="fbSourceGraphicAlpha"
         in="fbSourceGraphic"
         values="0 0 0 -1 0 0 0 0 -1 0 0 0 0 -1 0 0 0 0 1 0"
         id="feColorMatrix4769" />
      <feColorMatrix
         id="feColorMatrix4771"
         type="saturate"
         values="0"
         in="fbSourceGraphic" />
    </filter>
    <inkscape:perspective
       id="perspective4024"
       inkscape:persp3d-origin="0.5 : 0.33333333 : 1"
       inkscape:vp_z="1 : 0.5 : 1"
       inkscape:vp_y="0 : 1000 : 0"
       inkscape:vp_x="0 : 0.5 : 1"
       sodipodi:type="inkscape:persp3d" />
    <inkscape:perspective
       id="perspective4038"
       inkscape:persp3d-origin="0.5 : 0.33333333 : 1"
       inkscape:vp_z="1 : 0.5 : 1"
       inkscape:vp_y="0 : 1000 : 0"
       inkscape:vp_x="0 : 0.5 : 1"
       sodipodi:type="inkscape:persp3d" />
    <inkscape:perspective
       id="perspective4583"
       inkscape:persp3d-origin="0.5 : 0.33333333 : 1"
       inkscape:vp_z="1 : 0.5 : 1"
       inkscape:vp_y="0 : 1000 : 0"
       inkscape:vp_x="0 : 0.5 : 1"
       sodipodi:type="inkscape:persp3d" />
    <inkscape:perspective
       id="perspective4605"
       inkscape:persp3d-origin="0.5 : 0.33333333 : 1"
       inkscape:vp_z="1 : 0.5 : 1"
       inkscape:vp_y="0 : 1000 : 0"
       inkscape:vp_x="0 : 0.5 : 1"
       sodipodi:type="inkscape:persp3d" />
    <inkscape:perspective
       id="perspective4605-4"
       inkscape:persp3d-origin="0.5 : 0.33333333 : 1"
       inkscape:vp_z="1 : 0.5 : 1"
       inkscape:vp_y="0 : 1000 : 0"
       inkscape:vp_x="0 : 0.5 : 1"
       sodipodi:type="inkscape:persp3d" />
    <inkscape:perspective
       id="perspective4637"
       inkscape:persp3d-origin="0.5 : 0.33333333 : 1"
       inkscape:vp_z="1 : 0.5 : 1"
       inkscape:vp_y="0 : 1000 : 0"
       inkscape:vp_x="0 : 0.5 : 1"
       sodipodi:type="inkscape:persp3d" />
    <inkscape:perspective
       id="perspective4712"
       inkscape:persp3d-origin="0.5 : 0.33333333 : 1"
       inkscape:vp_z="1 : 0.5 : 1"
       inkscape:vp_y="0 : 1000 : 0"
       inkscape:vp_x="0 : 0.5 : 1"
       sodipodi:type="inkscape:persp3d" />
    <inkscape:path-effect
       effect="rough_hatches"
       id="path-effect4688-4"
       is_visible="true"
       direction="468.29259,560.13633 , -21.585939,21.585939"
       dist_rdm="75;1"
       growth="0"
       do_bend="true"
       bender="471.82813,563.67187 , -3.5355339,3.5355339"
       bottom_edge_variation="12.210851;1"
       top_edge_variation="12.210851;1"
       bottom_tgt_variation="0;1"
       top_tgt_variation="0;1"
       scale_bf="1"
       scale_bb="1"
       scale_tf="1"
       scale_tb="1"
       top_smth_variation="0;1"
       bottom_smth_variation="0;1"
       fat_output="true"
       stroke_width_top="1"
       stroke_width_bottom="1"
       front_thickness="1"
       back_thickness="0.25" />
    <inkscape:perspective
       id="perspective2932"
       inkscape:persp3d-origin="0.5 : 0.33333333 : 1"
       inkscape:vp_z="1 : 0.5 : 1"
       inkscape:vp_y="0 : 1000 : 0"
       inkscape:vp_x="0 : 0.5 : 1"
       sodipodi:type="inkscape:persp3d" />
    <filter
       id="filter2938"
       inkscape:label="Desaturate"
       inkscape:menu="Color"
       inkscape:menu-tooltip="Render in shades of gray by reducing saturation to zero"
       x="0"
       y="0"
       width="1"
       height="1">
      <feColorMatrix
         id="feColorMatrix2940"
         type="matrix"
         values="1 0 0 0 0 0 1 0 0 0 0 0 1 0 0 0 0 0 1 0 "
         result="result7" />
      <feGaussianBlur
         id="feGaussianBlur2942"
         result="result6"
         stdDeviation="5" />
      <feComposite
         id="feComposite2944"
         in2="result7"
         operator="atop"
         in="result6"
         result="result8" />
      <feComposite
         id="feComposite2946"
         in2="result8"
         operator="in"
         result="fbSourceGraphic" />
      <feColorMatrix
         result="fbSourceGraphicAlpha"
         in="fbSourceGraphic"
         values="0 0 0 -1 0 0 0 0 -1 0 0 0 0 -1 0 0 0 0 1 0"
         id="feColorMatrix2986" />
      <feColorMatrix
         id="feColorMatrix2988"
         type="saturate"
         values="0"
         in="fbSourceGraphic" />
    </filter>
    <inkscape:perspective
       id="perspective3056"
       inkscape:persp3d-origin="0.5 : 0.33333333 : 1"
       inkscape:vp_z="1 : 0.5 : 1"
       inkscape:vp_y="0 : 1000 : 0"
       inkscape:vp_x="0 : 0.5 : 1"
       sodipodi:type="inkscape:persp3d" />
    <inkscape:perspective
       id="perspective3153"
       inkscape:persp3d-origin="0.5 : 0.33333333 : 1"
       inkscape:vp_z="1 : 0.5 : 1"
       inkscape:vp_y="0 : 1000 : 0"
       inkscape:vp_x="0 : 0.5 : 1"
       sodipodi:type="inkscape:persp3d" />
  </defs>
  <sodipodi:namedview
     id="base"
     pagecolor="#ffffff"
     bordercolor="#666666"
     borderopacity="1.0"
     inkscape:pageopacity="0.0"
     inkscape:pageshadow="2"
     inkscape:zoom="0.7"
     inkscape:cx="460.16719"
     inkscape:cy="317.10992"
     inkscape:document-units="px"
     inkscape:current-layer="layer2"
     showgrid="false"
     inkscape:window-width="1280"
     inkscape:window-height="776"
     inkscape:window-x="0"
     inkscape:window-y="24"
     inkscape:window-maximized="1" />
  <metadata
     id="metadata3987">
    <rdf:RDF>
      <cc:Work
         rdf:about="">
        <dc:format>image/svg+xml</dc:format>
        <dc:type
           rdf:resource="http://purl.org/dc/dcmitype/StillImage" />
        <dc:title></dc:title>
      </cc:Work>
    </rdf:RDF>
  </metadata>
  <g
     inkscape:label="page"
     inkscape:groupmode="layer"
     id="layer1"
     transform="translate(423.14285,-132.3622)"
     style="display:inline"
     sodipodi:insensitive="true">
    <image
       sodipodi:absref="/home/lrbabe/workspace/todoso/project/design/ajaxian.png"
       xlink:href="ajaxian.png"
       style="filter:url(#filter2938)"
       width="1024"
       height="768"
       id="image2934"
       x="-423.14285"
       y="132.3622" />
  </g>
  <g
     inkscape:groupmode="layer"
     id="layer2"
     inkscape:label="slide"
     style="display:inline"
     transform="translate(-2.2857372,0.28570212)">
    <rect
       style="fill:#ffffff;fill-opacity:0.00784314;stroke:none"
       id="closerSlide"
       width="397.14285"
       height="297.85715"
       x="273.26175"
       y="332.36417"
       inkscape:export-filename="/home/lrbabe/workspace/todoso/website/image/closer embedded.png"
       inkscape:export-xdpi="135.97122"
       inkscape:export-ydpi="135.97122" />
    <image
       y="376.71503"
       x="332.39624"
       id="image3155"
       height="209.1554"
       width="278.87387"
       xlink:href="file:///home/lrbabe/workspace/todoso/project/design/slide%20title%20shadowless.png" />
  </g>
  <g
     inkscape:groupmode="layer"
     id="layer3"
     inkscape:label="placeholder"
     style="display:none"
     transform="translate(-2.2857372,0.28570212)"
     sodipodi:insensitive="true">
    <text
       xml:space="preserve"
       style="font-size:8.44700432px;font-style:normal;font-weight:normal;fill:#ffffff;fill-opacity:1;stroke:none;font-family:Bitstream Vera Sans"
       x="509.0452"
       y="566.70691"
       id="text4660"><tspan
         sodipodi:role="line"
         id="tspan4662"
         x="509.0452"
         y="566.70691">ToDoSo</tspan></text>
    <rect
       style="fill:none;stroke:#ffffff;stroke-width:1;stroke-miterlimit:4;stroke-opacity:1;stroke-dasharray:none"
       id="rect4056"
       width="150.09052"
       height="22.590511"
       x="396.7879"
       y="552.38837" />
    <path
       style="stroke:#ffffff;stroke-width:0.99999994px;stroke-opacity:1"
       d="m 464.64834,556.54076 0,14.28572 13.50583,-7.14286 -13.50583,-7.14286 z"
       id="path4573"
       sodipodi:nodetypes="cccc" />
    <path
       style="stroke:#ffffff;stroke-width:0.99999994px;stroke-opacity:1"
       d="m 457.40745,559.55152 0,8.26421 -7.79155,-4.13211 7.79155,-4.1321 z"
       id="path4573-1"
       sodipodi:nodetypes="cccc" />
    <path
       style="stroke:#ffffff;stroke-width:0.99999994px;stroke-opacity:1"
       d="m 437.375,559.55862 -7.78125,4.125 7.78125,4.125 0,-2.65625 5,2.65625 0,-8.25 -5,2.65625 0,-2.65625 z"
       id="path4573-1-7" />
    <path
       style="stroke:#ffffff;stroke-width:0.99999994px;stroke-opacity:1"
       d="m 490.39508,559.55862 7.78125,4.125 -7.78125,4.125 0,-2.65625 -5,2.65625 0,-8.25 5,2.65625 0,-2.65625 z"
       id="path4573-1-7-9" />
    <g
       id="g4656"
       transform="matrix(0.61712067,0,0,0.61712067,147.9857,238.67041)">
      <rect
         y="517.10712"
         x="411.78571"
         height="12.321428"
         width="17.5"
         id="rect4651"
         style="fill:none;stroke:#ffffff;stroke-width:1.62042868;stroke-miterlimit:4;stroke-opacity:1;stroke-dasharray:none" />
      <path
         sodipodi:nodetypes="ccccc"
         id="path4653"
         d="m 420.5357,529.60714 0,4.28572 4.64285,2.32143 -4.64285,-2.32143 -4.64285,2.32143"
         style="fill:none;stroke:#ffffff;stroke-width:1.62042868px;stroke-opacity:1" />
    </g>
  </g>
  <g
     style="display:inline"
     inkscape:label="hatch"
     id="g4664"
     inkscape:groupmode="layer"
     sodipodi:insensitive="true"
     transform="translate(-2.2857372,0.28570212)">
    <path
       style="fill:#666666;fill-opacity:0.57847535;stroke:none;display:inline"
       d="m 404.39508,574.96875 c 0,0 -2.06038,-2.35332 -4.1119,-5.31197 -2.05151,-2.95864 -4.09201,-6.52476 -4.09132,-8.91128 7.6e-4,-2.66185 4.24246,0.59127 9.41474,4.48156 5.17228,3.89028 11.28792,8.40495 14.89557,8.4072 3.86787,0.002 -0.0459,-6.06175 -4.16488,-12.1789 -4.119,-6.11716 -8.43992,-12.29062 -5.60676,-12.28645 3.0895,0.005 9.81722,5.55135 16.12047,11.03664 6.30324,5.48529 12.17757,10.91353 13.3257,10.91561 1.41076,0.003 -3.00157,-5.22708 -7.2743,-10.5036 -4.27272,-5.27653 -8.40683,-10.59897 -6.62465,-10.59703 2.04038,0.002 8.3114,5.54636 14.91972,11.0321 6.60832,5.48574 13.55645,10.91056 16.71017,10.91506 3.41854,0.005 1.17941,-3.9545 -1.17369,-7.93709 -2.35311,-3.9826 -4.81896,-7.98966 -1.93944,-7.99458 3.14118,-0.005 10.12109,5.50933 17.35174,10.96208 7.23064,5.45276 14.71365,10.84194 18.60999,10.83658 4.16535,-0.006 -0.1082,-6.14825 -5.10658,-12.34842 -4.99838,-6.20017 -10.71137,-12.46822 -9.68135,-12.46853 1.29429,-4e-4 7.44701,5.53199 13.74577,11.00381 6.29876,5.47182 12.7444,10.88223 14.38013,10.88228 1.90649,6e-5 -3.39942,-5.99715 -8.58897,-12.05871 -5.18956,-6.06155 -10.26342,-12.1868 -8.15058,-12.18507 2.37854,0.002 9.14578,5.55145 15.82003,11.0371 6.67424,5.48565 13.25401,10.90895 15.00511,10.91097 2.02374,0.002 -2.83754,-5.56067 -7.65533,-11.17931 -4.81778,-5.61864 -9.59192,-11.29306 -7.61653,-11.29094 2.24307,0.002 9.02812,5.56087 16.16968,11.00831 7.14157,5.44744 14.64195,10.78157 18.05509,10.59591 3.67272,-0.19977 -0.46539,-5.8584 -4.84523,-11.51726 -4.37985,-5.65886 -8.99844,-11.32095 -6.49758,-11.31674 2.77153,0.005 6.92971,2.6645 10.41184,4.93743 3.48213,2.27293 6.28306,4.1641 6.28603,2.68548 0.007,-3.47109 2.1305,-1.47164 3.11355,-1.47293 1.52953,-0.002 1.27368,-0.41416 1.27368,-0.41416 0,0 -0.10919,-0.27318 -2.0024,-0.27133 -2.43951,0.002 -3.10807,-0.62915 -3.113,1.47238 -0.003,1.30778 -2.71153,-0.58549 -6.14667,-2.81749 -3.43514,-2.232 -7.59207,-4.80762 -10.54304,-4.81358 -3.22154,-0.007 1.0484,5.67694 5.43119,11.34996 4.38279,5.67301 8.8797,11.33433 5.90015,11.4955 -3.23905,0.17522 -10.64569,-5.16333 -17.78189,-10.61239 -7.13619,-5.44905 -14.00344,-11.00714 -16.42416,-11.01055 -2.6883,-0.004 1.72018,5.67236 6.5301,11.29554 4.80992,5.62319 10.02538,11.1893 8.72911,11.18737 -1.56882,-0.002 -8.05579,-5.42979 -14.72733,-10.91932 -6.67154,-5.48954 -13.52529,-11.04351 -16.08011,-11.04645 -2.82042,-0.003 1.89014,6.12427 7.07142,12.19086 5.18129,6.06659 10.83845,12.0671 9.65438,12.06666 -1.45473,-5.3e-4 -7.80814,-5.41511 -14.10426,-10.89067 -6.29611,-5.47556 -12.53489,-11.01214 -14.00486,-11.01219 -1.73416,-6e-5 3.61699,6.27164 8.6073,12.47692 4.9903,6.20528 9.61417,12.34974 6.16734,12.35332 -3.71575,0.004 -11.10712,-5.3899 -18.33492,-10.84673 -7.22781,-5.45683 -14.29293,-10.97586 -17.60744,-10.9713 -3.57608,0.005 -1.46456,4.01268 0.88352,7.99764 2.34807,3.98496 4.93463,7.94519 2.22322,7.94041 -2.97615,-0.005 -9.83397,-5.43423 -16.43954,-10.92384 -6.60556,-5.48962 -12.96061,-11.03813 -15.17237,-11.04128 -2.46987,-0.004 1.31218,5.32018 5.57784,10.6007 4.26565,5.28051 9.01956,10.51319 8.30937,10.51166 -0.97272,-0.002 -6.75757,-5.43425 -13.05811,-10.92331 -6.30054,-5.48906 -13.11153,-11.04027 -16.37083,-11.04617 -3.51555,-0.006 0.45608,6.16921 4.56795,12.29105 4.11187,6.12184 8.3651,12.18882 5.19221,12.18578 -3.43301,-0.003 -9.54631,-4.61207 -14.75877,-8.55144 -5.21247,-3.93938 -9.53729,-7.19616 -9.53907,-4.3498 -0.002,3.12181 2.20874,6.87129 4.43083,9.82941 2.2221,2.95811 4.45292,5.12753 4.45292,5.12753 z"
       id="rect4666-8"
       inkscape:path-effect="#path-effect4688-4"
       inkscape:original-d="m 546.875,552.375 0,22.59375 -150.09375,0 0,-22.59375 150.09375,0 z" />
    <path
       style="fill:#666666;fill-opacity:0.57847535;stroke:none"
       d="m 546.875,566.87837 c 0,0 -2.21417,2.18863 -4.99822,4.3684 -2.78406,2.17976 -6.14005,4.34862 -8.38478,4.34797 -2.50372,-7.2e-4 0.59032,-4.54854 3.60066,-9.3511 3.01035,-4.80255 5.9354,-9.86146 3.22096,-10.7571 -2.91022,-0.96025 -10.15185,4.77096 -17.46352,10.66866 -7.31166,5.89771 -14.69578,11.95949 -17.59615,11.95523 -3.16279,-0.005 0.57822,-5.41238 4.78283,-10.86438 4.20461,-5.452 8.86713,-10.95396 7.73841,-10.95599 -1.38691,-0.003 -7.12788,5.29838 -13.03163,10.54578 -5.90376,5.2474 -11.97129,10.44032 -13.79487,10.43834 -2.08778,-0.002 2.25508,-5.41094 6.29722,-10.86855 4.04214,-5.45762 7.78644,-10.9613 4.68943,-10.9657 -3.35708,-0.005 -8.92903,4.01173 -14.42807,7.99713 -5.49904,3.9854 -10.92455,7.94033 -13.85584,7.94536 -3.19765,0.005 0.68795,-5.43464 4.37673,-10.92032 3.68878,-5.48569 7.18256,-11.01513 3.37967,-11.00989 -4.06545,0.006 -12.29499,6.30921 -19.85469,12.528 -7.55969,6.21878 -14.44152,12.36076 -15.49353,12.36108 -1.32193,4e-4 3.63456,-5.42035 8.46758,-10.89506 4.83302,-5.4747 9.54335,-11.00258 7.94288,-11.00263 -1.86538,-6e-5 -8.92754,6.12822 -16.13995,12.18033 -7.21242,6.05211 -14.57588,12.02725 -16.73931,12.02549 -2.43549,-0.002 2.06131,-5.41529 6.68669,-10.87974 4.62537,-5.46445 9.37725,-10.98212 7.66066,-10.9841 -1.98386,-0.002 -8.75297,5.65812 -15.5987,11.25206 -6.84573,5.59395 -13.76819,11.12134 -15.79262,11.11918 -2.29876,-0.002 2.35763,-5.41417 6.65007,-10.87815 4.29245,-5.46398 8.22468,-10.97649 4.67668,-10.98148 -3.81785,-0.005 -11.45016,5.46893 -18.19371,10.2888 -6.74354,4.81987 -12.58245,9.00117 -12.57849,6.64482 0.004,-2.61137 2.82743,-6.52618 5.24085,-9.80493 2.41343,-3.27875 4.42239,-5.9163 2.85234,-5.91946 -3.68572,-0.007 -1.56226,-2.00664 -1.56347,-2.9322 -0.002,-1.44009 -0.43965,-1.19922 -0.43965,-1.19922 0,0 -0.29025,0.10276 -0.28852,1.88526 0.002,2.29686 -0.66846,2.92651 1.56301,2.93174 1.38864,0.003 -0.62237,2.55361 -2.99221,5.788 -2.36983,3.23439 -5.10335,7.14796 -5.10896,9.92841 -0.006,3.03539 6.20167,-1.13632 13.12974,-6.12159 6.92808,-4.98528 14.55915,-10.80143 17.65845,-10.79603 3.36924,0.006 -0.65731,5.5154 -4.95404,10.97586 -4.29673,5.46045 -8.86631,10.86915 -6.38384,10.87263 2.7569,0.004 10.04066,-5.51816 16.88496,-11.10881 6.8443,-5.59066 13.25281,-11.24628 14.52439,-11.24439 1.53893,0.002 -3.30688,5.51663 -7.9367,10.97745 -4.62981,5.46083 -9.04053,10.87123 -6.42279,10.87424 2.8899,0.003 10.61185,-5.96655 17.82299,-12.01531 7.21115,-6.04875 13.9161,-12.17179 15.07542,-12.17136 1.42432,5.2e-4 -3.37917,5.52523 -8.21673,10.99624 -4.83756,5.47101 -9.70896,10.88856 -8.20658,10.8886 1.77237,6e-5 9.01004,-6.13663 16.56851,-12.35193 7.55847,-6.2153 15.43349,-12.51345 18.79991,-12.51695 3.62907,-0.004 0.0437,5.52305 -3.64902,11.00541 -3.69276,5.48236 -7.4937,10.91949 -4.11734,10.91484 3.64283,-0.005 9.41876,-3.95579 14.91626,-7.93799 5.4975,-3.9822 10.71804,-7.99434 13.38248,-7.98966 2.92461,0.005 -0.91059,5.50588 -4.95685,10.96007 -4.04626,5.4542 -8.30546,10.85995 -6.04081,10.86317 2.52894,0.004 8.94511,-5.18431 14.84781,-10.42864 5.9027,-5.24433 11.29607,-10.54094 11.99472,-10.53945 0.95693,0.002 -3.79635,5.50058 -8.00515,10.94912 -4.2088,5.44853 -7.86645,10.85371 -4.5276,10.85973 3.60137,0.006 11.24975,-5.96593 18.52076,-11.81707 7.271,-5.85113 14.16961,-11.57598 16.55826,-10.78747 2.58449,0.85315 -0.42926,5.90966 -3.45292,10.72019 -3.02367,4.81052 -6.055,9.37731 -3.37774,9.37898 2.93634,0.002 6.46507,-2.34783 9.24877,-4.70891 2.78369,-2.36108 4.8249,-4.73101 4.8249,-4.73101 z"
       id="rect4666"
       inkscape:path-effect="#path-effect4688"
       inkscape:original-d="m 396.78125,552.375 0,22.59375 150.09375,0 0,-22.59375 -150.09375,0 z" />
  </g>
  <g
     style="display:inline"
     inkscape:label="sketch"
     id="g4729"
     inkscape:groupmode="layer"
     sodipodi:insensitive="true"
     transform="translate(-2.2857372,0.28570212)">
    <text
       id="text4731"
       y="566.70691"
       x="509.0452"
       style="font-size:8.44700432px;font-style:normal;font-weight:normal;fill:#ffffff;fill-opacity:1;stroke:none;font-family:Bitstream Vera Sans"
       xml:space="preserve"><tspan
         y="566.70691"
         x="509.0452"
         id="tspan4733"
         sodipodi:role="line">ToDoSo</tspan></text>
    <path
       style="fill:none;stroke:#ffffff;stroke-width:0.30000001;stroke-miterlimit:4;stroke-opacity:1;stroke-dasharray:none"
       d="m 399.3547,553.96627 c 8.27929,-0.17988 16.12073,-0.0631 23.97152,-0.0203 m -6.05571,-2.04208 c 7.08071,-0.0802 14.40209,-0.0125 21.80382,0.0866 m -5.93433,1.14774 c 7.24179,-0.0855 14.83248,-0.20648 22.42854,-0.48775 m -3.88183,0.5584 c 9.79719,0.21272 19.14682,0.13052 28.86298,0.32661 m -9.76497,-1.78013 c 8.30706,-0.13897 17.21366,-0.15275 26.3749,-0.36001 m -6.56816,1.29005 c 7.49714,0.1431 15.45312,-0.23775 23.59215,-0.88201 m -6.71933,0.79589 c 7.32324,0.002 15.05674,-0.0507 22.94826,-0.15935 m -4.05427,-0.79384 c 7.11828,-0.0455 13.96109,0.14835 20.65968,0.52107 m -4.64609,0.23693 c 1.52919,0.0187 3.04788,0.026 4.55799,0.0229 0.0394,7.51486 -0.13672,14.77084 -0.28528,21.91588 -0.18603,-0.009 -0.37204,-0.0187 -0.55803,-0.0282 m 1.19018,-7.3289 c -0.0313,2.43759 -0.0338,4.85532 -0.0132,7.26584 -6.674,0.12967 -13.16046,0.20095 -19.59007,0.50591 m 6.47197,0.20577 c -7.94942,0.0791 -16.3302,-4e-5 -24.61606,-0.0944 m 5.08598,-1.00707 c -8.71824,0.15677 -17.96481,-0.12608 -27.06468,-0.47617 m 7.06798,1.55418 c -8.14836,0.0525 -16.4753,0.46538 -24.53252,1.36188 m 7.05551,-1.45537 c -7.53907,0.23926 -14.95608,0.42309 -22.54846,0.93175 m 5.33472,-1.22132 c -7.87166,-0.14387 -15.96082,-0.0708 -24.19128,-0.0371 m 5.76058,0.55305 c -9.27033,0.1718 -18.13088,0.20545 -26.83002,0.52348 m 7.46132,-0.29697 c -8.2393,0.11483 -16.65595,-0.25991 -25.01462,-0.8978 -0.002,-1.48826 -0.002,-2.98375 4.6e-4,-4.48543 m 4.05496,4.37544 c -1.4548,0.0232 -2.90806,0.0472 -4.35952,0.0736 0.033,-7.39362 0.11419,-14.72352 0.28129,-21.78271 7.4e-4,0.002 0.001,0.004 0.002,0.006 0.79681,0.049 1.59454,0.10091 2.39324,0.15595 m 0.0242,-1.31721 c 8.24889,0.0491 16.70604,-0.1045 25.45222,-0.35567 m -8.4454,1.83984 c 9.21986,-0.13373 18.39443,-0.13737 28.03027,-0.3402 m -7.17386,0.10589 c 9.53273,-0.0739 18.8591,-0.20966 28.20181,-0.62093 m -7.35127,0.22225 c 9.61227,-0.32106 19.75783,0.14168 29.91992,0.43601 m -9.2561,0.29857 c 9.48991,-0.11124 18.96079,-0.55576 28.44019,-1.62188 m -9.28567,1.52037 c 9.82001,-0.0698 20.05102,-0.0213 30.3189,-0.0617 m -8.65483,-1.85196 c 9.04537,0.25411 17.73209,0.43903 26.44771,1.17604 -0.002,0.10441 -0.003,0.20888 -0.005,0.31342 m -6.18239,0.17431 c 2.2872,-0.002 4.57868,0.005 6.86999,0.0224 -0.0528,4.84761 -0.10637,9.7357 -0.20028,14.65815 m 0.62453,-4.02129 c 0.0408,4.15768 0.0626,8.37637 0.0891,12.61299 -4.47538,-0.006 -8.94555,0.007 -13.38222,-0.0102 m 6.3154,0.14117 c -7.67737,0.0955 -15.15968,0.01 -22.76081,-0.1095 m 4.89114,0.32045 c -8.4083,0.11125 -16.64317,-0.27212 -24.70574,-0.92814 m 5.19826,-1.35346 c -10.06232,-0.21394 -19.70833,0.21615 -29.37688,0.66149 m 8.86661,1.58121 c -8.27735,0.24337 -16.29126,0.14271 -24.18953,0.17845 m 7.97433,-1.71775 c -8.23088,0.0475 -16.58154,0.0575 -24.91416,0.12769 m 5.52768,0.59099 c -9.03501,-0.005 -18.56164,0.22763 -28.25464,0.66983 m 7.69034,-1.56052 c -9.50258,-0.0684 -18.79342,0.0547 -28.15186,0.21205 m 8.91722,-1.12598 c -2.86848,0.0162 -5.79061,0.0552 -8.7446,0.12203 0.001,-5.7637 -0.12477,-11.41671 -0.20441,-16.91949 m -1.99309,9.26733 c -0.029,-3.93703 -3.2e-4,-7.91098 0.0704,-11.89895 5.9e-4,-4e-5 0.001,-7e-5 0.002,-1.1e-4 5.31491,-0.006 10.70191,-0.0357 16.12612,-0.0375"
       id="rect4735"
       inkscape:path-effect="#path-effect4752"
       inkscape:original-d="m 396.7879,552.38837 150.09052,0 0,22.59051 -150.09052,0 0,-22.59051 z" />
    <path
       sodipodi:nodetypes="cccc"
       id="path4737"
       d="m 464.95347,558.54052 c 0.19056,4.18192 0.0977,8.55987 -0.0468,12.93341 0.88036,-0.47274 1.75778,-0.94573 2.63541,-1.42171 m -3.37049,0.18524 c -0.005,0.25445 -0.01,0.50932 -0.0133,0.76461 3.93474,-2.17671 8.07945,-4.22813 12.29285,-6.24962 m -3.35434,1.35914 c 1.34309,-0.77436 2.72184,-1.55279 4.1251,-2.33915 -3.00129,-1.66069 -5.89323,-3.35672 -8.78069,-5.12432 m 3.40311,1.6997 c -2.37349,-1.22863 -4.83724,-2.51592 -7.31743,-3.811 2.7e-4,3.4e-4 5.3e-4,6.7e-4 7.9e-4,10e-4 0.0271,3.50887 0.0308,7.00691 0.1474,10.58818"
       style="stroke:#ffffff;stroke-width:0.5;stroke-miterlimit:4;stroke-opacity:1;stroke-dasharray:none"
       inkscape:path-effect="#path-effect4754"
       inkscape:original-d="m 464.64834,556.54076 0,14.28572 13.50583,-7.14286 -13.50583,-7.14286 z" />
    <path
       sodipodi:nodetypes="cccc"
       id="path4739"
       d="m 457.71258,561.55128 c 0.10216,2.24204 0.12286,4.54042 0.0978,6.86426 -2.62893,-1.37226 -5.33132,-2.70363 -8.03447,-4.05697 0.0867,-0.0471 0.17347,-0.0943 0.26021,-0.14144 m 2.26072,1.32846 c -1.07622,-0.57818 -2.13733,-1.14729 -3.1859,-1.70907 2.60706,-1.38619 5.29045,-2.72779 8.01143,-4.05095 0.0275,0.66465 0.0568,1.3302 0.0876,1.99637 m -0.62327,-0.16018 c -0.092,2.09052 -0.12085,4.1738 -0.11276,6.24077 -2.50193,-1.413 -4.93784,-2.85516 -7.37057,-4.34818 m 3.40133,1.70306 c -1.01184,-0.52533 -2.04011,-1.06133 -3.07907,-1.60406 2.66531,-1.32111 5.26726,-2.68208 7.88848,-4.02592 0.0179,2.21601 0.0465,4.44153 0.12007,6.70015"
       style="stroke:#ffffff;stroke-width:0.5;stroke-miterlimit:4;stroke-opacity:1;stroke-dasharray:none"
       inkscape:path-effect="#path-effect4760"
       inkscape:original-d="m 457.40745,559.55152 0,8.26421 -7.79155,-4.13211 7.79155,-4.1321 z" />
    <path
       id="path4741"
       d="m 436.27639,560.70849 c -2.33049,1.09033 -4.61482,2.2263 -6.90336,3.37505 2.43752,1.31435 4.86954,2.64543 7.2206,3.94407 m -2.04024,-1.26689 c 1.24777,0.59061 2.47442,1.18145 3.685,1.7663 0.001,-0.92165 -0.005,-1.84581 -0.0155,-2.77417 1.64324,0.79388 3.26209,1.56867 4.8698,2.30802 -0.0201,-0.69273 -0.0415,-1.38957 -0.0636,-2.09117 m -2.51468,0.73193 c 0.35284,0.18258 0.70559,0.36596 1.05837,0.55016 0.0791,-2.73086 0.15973,-5.4204 0.28415,-8.06347 -1.53705,0.93199 -3.05462,1.88466 -4.54017,2.85955 m 2.74624,-1.20732 c -1.01557,0.50564 -2.03084,1.0226 -3.04443,1.54727 0.0115,-0.90204 0.024,-1.79962 0.0381,-2.69432 -2.54703,1.3442 -5.07665,2.72 -7.56662,4.06972 1.24281,0.62185 2.49404,1.23817 3.75587,1.84331"
       style="stroke:#ffffff;stroke-width:0.5;stroke-miterlimit:4;stroke-opacity:1;stroke-dasharray:none"
       inkscape:path-effect="#path-effect4762"
       inkscape:original-d="m 437.375,559.55862 -7.78125,4.125 7.78125,4.125 0,-2.65625 5,2.65625 0,-8.25 -5,2.65625 0,-2.65625 z" />
    <path
       id="path4743"
       d="m 491.47734,560.01312 c 2.14898,1.07663 4.32324,2.18686 6.49801,3.29365 -2.56771,1.26635 -5.13475,2.52818 -7.73823,3.73001 m 3.19094,-1.55691 c -1.18964,0.64407 -2.38298,1.29379 -3.57719,1.94994 0.009,-0.87552 0.0186,-1.74834 0.0281,-2.61826 -1.6464,0.91845 -3.29099,1.85008 -4.92637,2.79694 0.0107,-0.62202 0.0224,-1.24228 0.0355,-1.86069 m 2.22896,1.21951 c -0.33758,0.1847 -0.67568,0.37044 -1.01425,0.55724 0.022,-2.71237 0.0203,-5.37111 0.0119,-7.96892 1.61442,0.96218 3.22582,1.95147 4.83919,2.97004 m -3.03394,-2.36477 c 1.04957,0.51027 2.07621,1.04599 3.08198,1.60397 -0.0175,-0.87671 -0.047,-1.74056 -0.0877,-2.59293 2.45886,1.48455 4.79514,3.09524 7.04181,4.78131 -1.35491,0.7768 -2.72883,1.56962 -4.11856,2.37347"
       style="stroke:#ffffff;stroke-width:0.5;stroke-miterlimit:4;stroke-opacity:1;stroke-dasharray:none"
       inkscape:path-effect="#path-effect4756"
       inkscape:original-d="m 490.39508,559.55862 7.78125,4.125 -7.78125,4.125 0,-2.65625 -5,2.65625 0,-8.25 5,2.65625 0,-2.65625 z" />
    <path
       style="fill:none;stroke:#ffffff;stroke-width:0.5;stroke-miterlimit:4;stroke-opacity:1;stroke-dasharray:none"
       d="m 403.87326,557.01464 c 3.27853,0.0557 6.48439,0.1626 9.69862,0.35482 0.0342,2.33048 0.0725,4.70209 0.14189,7.12629 m -1.6428,-4.52116 c 0.0199,1.69241 0.0624,3.35677 0.13077,5.00372 -3.02046,0.0301 -5.94479,-0.005 -8.75135,-0.0277 m 2.47943,0.24532 c -1.41849,-0.0633 -2.86847,-0.0859 -4.34166,-0.0773 0.007,-2.51974 -0.0546,-4.94735 -0.14249,-7.33012 0.92625,0.0575 1.84871,0.12139 2.76965,0.18916"
       id="rect4747"
       inkscape:path-effect="#path-effect4765"
       inkscape:original-d="m 402.10718,557.7879 10.79961,0 0,7.60381 -10.79961,0 0,-7.60381 z" />
    <path
       sodipodi:nodetypes="ccccc"
       id="path4749"
       d="m 408.23387,566.2128 c 0.0115,0.33719 0.0208,0.67617 0.0281,1.0169 0.97793,0.47198 1.93626,0.96094 2.87796,1.46558 -0.96842,-0.45043 -1.95346,-0.88518 -2.95215,-1.30555 -0.83059,0.44471 -1.67062,0.89936 -2.51838,1.36322"
       style="fill:none;stroke:#ffffff;stroke-width:0.5;stroke-miterlimit:4;stroke-opacity:1;stroke-dasharray:none"
       inkscape:path-effect="#path-effect4767"
       inkscape:original-d="m 407.50697,565.50192 0,2.64481 2.8652,1.4326 -2.8652,-1.4326 -2.8652,1.4326" />
  </g>
</svg>
