<?xml version="1.0" encoding="UTF-8" standalone="no"?>
<!-- Created with Inkscape (http://www.inkscape.org/) -->

<svg
   xmlns:dc="http://purl.org/dc/elements/1.1/"
   xmlns:cc="http://creativecommons.org/ns#"
   xmlns:rdf="http://www.w3.org/1999/02/22-rdf-syntax-ns#"
   xmlns:svg="http://www.w3.org/2000/svg"
   xmlns="http://www.w3.org/2000/svg"
   xmlns:xlink="http://www.w3.org/1999/xlink"
   xmlns:sodipodi="http://sodipodi.sourceforge.net/DTD/sodipodi-0.dtd"
   xmlns:inkscape="http://www.inkscape.org/namespaces/inkscape"
   width="1280"
   height="800"
   id="svg2"
   version="1.1"
   inkscape:version="0.47pre0 r21549"
   sodipodi:docname="player fullscreen2.svg"
   inkscape:output_extension="org.inkscape.output.svg.inkscape"
   inkscape:export-filename="/home/lrbabe/workspace/todoso/website/image/player fullscreen2.png"
   inkscape:export-xdpi="42.1875"
   inkscape:export-ydpi="42.1875">
  <defs
     id="defs4">
    <inkscape:perspective
       sodipodi:type="inkscape:persp3d"
       inkscape:vp_x="0 : 400 : 1"
       inkscape:vp_y="0 : 1000 : 0"
       inkscape:vp_z="1280 : 400 : 1"
       inkscape:persp3d-origin="640 : 266.66667 : 1"
       id="perspective158" />
    <linearGradient
       id="linearGradient3851">
      <stop
         style="stop-color:#ffffff;stop-opacity:1;"
         offset="0"
         id="stop3853" />
      <stop
         style="stop-color:#eeeeee;stop-opacity:1;"
         offset="1"
         id="stop3855" />
    </linearGradient>
    <linearGradient
       id="linearGradient3155">
      <stop
         id="stop3157"
         offset="0"
         style="stop-color:#3c3c3c;stop-opacity:1;" />
      <stop
         id="stop3159"
         offset="1"
         style="stop-color:#0a0a0a;stop-opacity:1;" />
    </linearGradient>
    <linearGradient
       inkscape:collect="always"
       xlink:href="#linearGradient3851"
       id="linearGradient3857"
       x1="60"
       y1="252.36218"
       x2="60"
       y2="1052.4438"
       gradientUnits="userSpaceOnUse" />
    <radialGradient
       inkscape:collect="always"
       xlink:href="#linearGradient3155"
       id="radialGradient2923"
       gradientUnits="userSpaceOnUse"
       gradientTransform="matrix(1,0,0,0.75000002,733.14288,1176.153)"
       cx="-92.809509"
       cy="-698.38776"
       fx="-92.809509"
       fy="-698.38776"
       r="512" />
    <filter
       id="filter4693"
       inkscape:label="Drop shadow"
       width="1.5"
       height="1.5"
       x="-.25"
       y="-.25">
      <feGaussianBlur
         id="feGaussianBlur4695"
         in="SourceAlpha"
         stdDeviation="10.000000"
         result="blur" />
      <feColorMatrix
         id="feColorMatrix4697"
         result="bluralpha"
         type="matrix"
         values="1 0 0 0 0 0 1 0 0 0 0 0 1 0 0 0 0 0 0.700000 0 " />
      <feOffset
         id="feOffset4699"
         in="bluralpha"
         dx="13.000000"
         dy="13.000000"
         result="offsetBlur" />
      <feMerge
         id="feMerge4701">
        <feMergeNode
           id="feMergeNode4703"
           in="offsetBlur" />
        <feMergeNode
           id="feMergeNode4705"
           in="SourceGraphic" />
      </feMerge>
    </filter>
    <filter
       id="filter4707"
       inkscape:label="Drop shadow"
       width="1.5"
       height="1.5"
       x="-.25"
       y="-.25">
      <feGaussianBlur
         id="feGaussianBlur4709"
         in="SourceAlpha"
         stdDeviation="10.000000"
         result="blur" />
      <feColorMatrix
         id="feColorMatrix4711"
         result="bluralpha"
         type="matrix"
         values="1 0 0 0 0 0 1 0 0 0 0 0 1 0 0 0 0 0 0.700000 0 " />
      <feOffset
         id="feOffset4713"
         in="bluralpha"
         dx="13.000000"
         dy="13.000000"
         result="offsetBlur" />
      <feMerge
         id="feMerge4715">
        <feMergeNode
           id="feMergeNode4717"
           in="offsetBlur" />
        <feMergeNode
           id="feMergeNode4719"
           in="SourceGraphic" />
      </feMerge>
    </filter>
    <filter
       id="filter4721"
       inkscape:label="Drop shadow"
       width="1.5"
       height="1.5"
       x="-.25"
       y="-.25">
      <feGaussianBlur
         id="feGaussianBlur4723"
         in="SourceAlpha"
         stdDeviation="10.000000"
         result="blur" />
      <feColorMatrix
         id="feColorMatrix4725"
         result="bluralpha"
         type="matrix"
         values="1 0 0 0 0 0 1 0 0 0 0 0 1 0 0 0 0 0 0.700000 0 " />
      <feOffset
         id="feOffset4727"
         in="bluralpha"
         dx="13.000000"
         dy="13.000000"
         result="offsetBlur" />
      <feMerge
         id="feMerge4729">
        <feMergeNode
           id="feMergeNode4731"
           in="offsetBlur" />
        <feMergeNode
           id="feMergeNode4733"
           in="SourceGraphic" />
      </feMerge>
    </filter>
    <filter
       id="filter4735"
       inkscape:label="Drop shadow"
       width="1.5"
       height="1.5"
       x="-.25"
       y="-.25">
      <feGaussianBlur
         id="feGaussianBlur4737"
         in="SourceAlpha"
         stdDeviation="10.000000"
         result="blur" />
      <feColorMatrix
         id="feColorMatrix4739"
         result="bluralpha"
         type="matrix"
         values="1 0 0 0 0 0 1 0 0 0 0 0 1 0 0 0 0 0 0.700000 0 " />
      <feOffset
         id="feOffset4741"
         in="bluralpha"
         dx="13.000000"
         dy="13.000000"
         result="offsetBlur" />
      <feMerge
         id="feMerge4743">
        <feMergeNode
           id="feMergeNode4745"
           in="offsetBlur" />
        <feMergeNode
           id="feMergeNode4747"
           in="SourceGraphic" />
      </feMerge>
    </filter>
    <filter
       id="filter4749"
       inkscape:label="Drop shadow"
       width="1.5"
       height="1.5"
       x="-.25"
       y="-.25">
      <feGaussianBlur
         id="feGaussianBlur4751"
         in="SourceAlpha"
         stdDeviation="10.000000"
         result="blur" />
      <feColorMatrix
         id="feColorMatrix4753"
         result="bluralpha"
         type="matrix"
         values="1 0 0 0 0 0 1 0 0 0 0 0 1 0 0 0 0 0 0.700000 0 " />
      <feOffset
         id="feOffset4755"
         in="bluralpha"
         dx="13.000000"
         dy="13.000000"
         result="offsetBlur" />
      <feMerge
         id="feMerge4757">
        <feMergeNode
           id="feMergeNode4759"
           in="offsetBlur" />
        <feMergeNode
           id="feMergeNode4761"
           in="SourceGraphic" />
      </feMerge>
    </filter>
    <filter
       id="filter4763"
       inkscape:label="Drop shadow"
       width="1.5"
       height="1.5"
       x="-.25"
       y="-.25">
      <feGaussianBlur
         id="feGaussianBlur4765"
         in="SourceAlpha"
         stdDeviation="10.000000"
         result="blur" />
      <feColorMatrix
         id="feColorMatrix4767"
         result="bluralpha"
         type="matrix"
         values="1 0 0 0 0 0 1 0 0 0 0 0 1 0 0 0 0 0 0.700000 0 " />
      <feOffset
         id="feOffset4769"
         in="bluralpha"
         dx="13.000000"
         dy="13.000000"
         result="offsetBlur" />
      <feMerge
         id="feMerge4771">
        <feMergeNode
           id="feMergeNode4773"
           in="offsetBlur" />
        <feMergeNode
           id="feMergeNode4775"
           in="SourceGraphic" />
      </feMerge>
    </filter>
    <filter
       id="filter4777"
       inkscape:label="Drop shadow"
       width="1.5"
       height="1.5"
       x="-.25"
       y="-.25">
      <feGaussianBlur
         id="feGaussianBlur4779"
         in="SourceAlpha"
         stdDeviation="10.000000"
         result="blur" />
      <feColorMatrix
         id="feColorMatrix4781"
         result="bluralpha"
         type="matrix"
         values="1 0 0 0 0 0 1 0 0 0 0 0 1 0 0 0 0 0 0.700000 0 " />
      <feOffset
         id="feOffset4783"
         in="bluralpha"
         dx="13.000000"
         dy="13.000000"
         result="offsetBlur" />
      <feMerge
         id="feMerge4785">
        <feMergeNode
           id="feMergeNode4787"
           in="offsetBlur" />
        <feMergeNode
           id="feMergeNode4789"
           in="SourceGraphic" />
      </feMerge>
    </filter>
    <filter
       id="filter4791"
       inkscape:label="Drop shadow"
       width="1.5"
       height="1.5"
       x="-.25"
       y="-.25">
      <feGaussianBlur
         id="feGaussianBlur4793"
         in="SourceAlpha"
         stdDeviation="10.000000"
         result="blur" />
      <feColorMatrix
         id="feColorMatrix4795"
         result="bluralpha"
         type="matrix"
         values="1 0 0 0 0 0 1 0 0 0 0 0 1 0 0 0 0 0 0.700000 0 " />
      <feOffset
         id="feOffset4797"
         in="bluralpha"
         dx="13.000000"
         dy="13.000000"
         result="offsetBlur" />
      <feMerge
         id="feMerge4799">
        <feMergeNode
           id="feMergeNode4801"
           in="offsetBlur" />
        <feMergeNode
           id="feMergeNode4803"
           in="SourceGraphic" />
      </feMerge>
    </filter>
    <inkscape:perspective
       id="perspective3143"
       inkscape:persp3d-origin="0.5 : 0.33333333 : 1"
       inkscape:vp_z="1 : 0.5 : 1"
       inkscape:vp_y="0 : 1000 : 0"
       inkscape:vp_x="0 : 0.5 : 1"
       sodipodi:type="inkscape:persp3d" />
  </defs>
  <sodipodi:namedview
     id="base"
     pagecolor="#ffffff"
     bordercolor="#666666"
     borderopacity="1.0"
     inkscape:pageopacity="0.0"
     inkscape:pageshadow="2"
     inkscape:zoom="0.25"
     inkscape:cx="512.57106"
     inkscape:cy="255.19163"
     inkscape:document-units="px"
     inkscape:current-layer="layer2"
     showgrid="false"
     inkscape:window-width="1280"
     inkscape:window-height="776"
     inkscape:window-x="0"
     inkscape:window-y="24"
     inkscape:window-maximized="1" />
  <metadata
     id="metadata7">
    <rdf:RDF>
      <cc:Work
         rdf:about="">
        <dc:format>image/svg+xml</dc:format>
        <dc:type
           rdf:resource="http://purl.org/dc/dcmitype/StillImage" />
        <dc:title />
      </cc:Work>
    </rdf:RDF>
  </metadata>
  <g
     inkscape:label="background"
     inkscape:groupmode="layer"
     id="layer1"
     transform="translate(0,-252.36218)"
     sodipodi:insensitive="true">
    <rect
       style="fill:url(#linearGradient3857);fill-opacity:1;stroke:none"
       id="rect3825"
       width="1280"
       height="800"
       x="0"
       y="252.36218" />
  </g>
  <g
     inkscape:groupmode="layer"
     id="layer2"
     inkscape:label="slide"
     transform="translate(0,-252.36218)"
     style="display:inline"
     sodipodi:insensitive="true">
    <image
       y="252.36218"
       x="107"
       id="image3145"
       height="800"
       width="1066.6666"
       xlink:href="file:///home/lrbabe/workspace/todoso/project/design/slide%202%20shadowless.png" />
  </g>
  <g
     inkscape:groupmode="layer"
     id="layer4"
     inkscape:label="controls"
     sodipodi:insensitive="true">
    <g
       id="layer3"
       inkscape:label="placeholder"
       style="display:none"
       transform="translate(-511.42859,1054.3622)">
      <text
         xml:space="preserve"
         style="font-size:8.44700432px;font-style:normal;font-weight:normal;fill:#ffffff;fill-opacity:1;stroke:none;font-family:Bitstream Vera Sans"
         x="509.0452"
         y="566.70691"
         id="text4660"><tspan
           sodipodi:role="line"
           id="tspan4662"
           x="509.0452"
           y="566.70691">ToDoSo</tspan></text>
      <rect
         style="fill:none;stroke:#ffffff;stroke-width:1;stroke-miterlimit:4;stroke-opacity:1;stroke-dasharray:none"
         id="rect4056"
         width="150.09052"
         height="22.590511"
         x="396.7879"
         y="552.38837" />
      <path
         style="stroke:#ffffff;stroke-width:0.99999994px;stroke-opacity:1"
         d="m 464.64834,556.54076 0,14.28572 13.50583,-7.14286 -13.50583,-7.14286 z"
         id="path4573"
         sodipodi:nodetypes="cccc" />
      <path
         style="stroke:#ffffff;stroke-width:0.99999994px;stroke-opacity:1"
         d="m 457.40745,559.55152 0,8.26421 -7.79155,-4.13211 7.79155,-4.1321 z"
         id="path4573-1"
         sodipodi:nodetypes="cccc" />
      <path
         style="stroke:#ffffff;stroke-width:0.99999994px;stroke-opacity:1"
         d="m 437.375,559.55862 -7.78125,4.125 7.78125,4.125 0,-2.65625 5,2.65625 0,-8.25 -5,2.65625 0,-2.65625 z"
         id="path4573-1-7" />
      <path
         style="stroke:#ffffff;stroke-width:0.99999994px;stroke-opacity:1"
         d="m 490.39508,559.55862 7.78125,4.125 -7.78125,4.125 0,-2.65625 -5,2.65625 0,-8.25 5,2.65625 0,-2.65625 z"
         id="path4573-1-7-9" />
      <g
         id="g4656"
         transform="matrix(0.61712067,0,0,0.61712067,147.9857,238.67041)">
        <rect
           y="517.10712"
           x="411.78571"
           height="12.321428"
           width="17.5"
           id="rect4651"
           style="fill:none;stroke:#ffffff;stroke-width:1.62042868;stroke-miterlimit:4;stroke-opacity:1;stroke-dasharray:none" />
        <path
           sodipodi:nodetypes="ccccc"
           id="path4653"
           d="m 420.5357,529.60714 0,4.28572 4.64285,2.32143 -4.64285,-2.32143 -4.64285,2.32143"
           style="fill:none;stroke:#ffffff;stroke-width:1.62042868px;stroke-opacity:1" />
      </g>
    </g>
    <g
       id="g3464"
       transform="matrix(0.29154519,0,0,0.29154519,204.31947,525.02165)"
       style="filter:url(#filter4791)">
      <g
         transform="matrix(1.0021938,0,0,0.99362678,703.94382,368.89351)"
         id="g4568">
        <path
           style="fill:#ffffff"
           d="m 1018.1609,277.47562 c -14.5073,0.0325 -29.02462,0.0937 -43.53128,0.0937 -10.42729,4e-4 -18.82558,2.25415 -27.53125,5.40625 -8.4947,3.094 -15.49075,9.2658 -17.1875,17.6875 l -0.40625,4.03125 c -1.12378,43.2031 -1.09497,82.89055 -2.21875,126.09375 1.84862,7.6238 8.92044,17.594 13.71875,19.25 45.66767,-0.1576 91.33238,0.12595 136.99998,-0.0312 13.4111,0.5988 16.7873,-4.01585 20.3438,-12.21875 0.038,-44.4146 -0.074,-88.8381 0.062,-133.25 -0.1799,-8.2486 -3.8222,-12.0581 -8.25,-16.375 -8.6122,-5.3301 -18.7859,-7.80245 -28.4688,-10.59375 -14.5064,-0.11985 -29.024,-0.12621 -43.5312,-0.0937 z"
           id="path4434" />
        <path
           style="fill:#adadad"
           d="m 1018.1609,277.47562 c -14.5073,0.0325 -29.02462,0.0937 -43.53128,0.0937 -10.42729,4e-4 -18.82558,2.25415 -27.53125,5.40625 -8.4947,3.094 -15.49075,9.2658 -17.1875,17.6875 l -0.40625,4.03125 c -1.12378,43.2031 -1.09497,82.89055 -2.21875,126.09375 1.84862,7.6238 8.92044,17.594 13.71875,19.25 45.66767,-0.1576 91.33238,0.12595 136.99998,-0.0312 13.4111,0.5988 16.7873,-4.01585 20.3438,-12.21875 0.038,-44.4146 -0.073,-88.8381 0.062,-133.25 -0.1799,-8.2486 -3.8222,-12.0581 -8.25,-16.375 -8.6122,-5.3301 -18.7859,-7.80245 -28.4688,-10.59375 -14.5064,-0.11985 -29.024,-0.12621 -43.5312,-0.0937 z m -5.0625,2.375 c 43.2048,0.0206 46.2783,0.1345 50.25,1.9375 2.442,1.1085 5.0855,3.34 6.25,5.25 1.9547,3.2064 2.0312,4.92225 2.0312,55.84375 0,52.5161 -9e-4,52.536 -2.25,56.9375 -3.5615,6.97 -5.3879,7.74505 -21.75,9.40625 -25.1148,2.5497 -30.2472,2.5807 -63.78123,0.125 -23.9692,-1.7553 -27.16158,-2.82935 -30.375,-10.09375 -1.88507,-4.2615 -1.94421,-6.5576 -1.65625,-55.6875 0.26634,-45.442 0.50109,-51.5896 1.96875,-54.25 2.35928,-4.2767 5.96897,-7.3708 9.90625,-8.5 1.99756,-0.5729 22.40461,-0.98175 49.40628,-0.96875 z"
           id="path4436"
           sodipodi:nodetypes="csccccccccccccsscsssssssc" />
        <path
           style="fill:#949494"
           d="m 1018.1609,277.47562 c -14.5073,0.0325 -29.02462,0.0937 -43.53128,0.0937 -10.42729,4e-4 -18.82558,2.25415 -27.53125,5.40625 -2.65459,0.96687 -5.15671,2.23872 -7.40625,3.78125 1.89728,-0.77723 4.05531,-1.43109 6.4375,-1.9375 2.2,-0.4677 7.15,-2.0682 11,-3.5625 l 7,-2.71875 48.68748,0.0937 c 47.6444,0.0901 48.8176,0.15935 53.75,2.28125 5.3296,2.2926 8.3061,5.9096 9.5001,11.5625 0.7066,3.3454 -1.1299,100.6488 -2,106 -0.2822,1.7357 -2.2853,5.7857 -4.4688,9 -2.1835,3.2143 -3.9678,6.40625 -3.9688,7.09375 0,1.6286 -0.5821,1.5789 -3.4687,-0.3125 -2.0802,-1.363 -4.0905,-1.4274 -15.6563,-0.5 -17.6549,1.4157 -40.7288,1.3688 -60.74998,-0.125 -20.73911,-1.5473 -21.28407,-1.31345 -28.03125,11.28125 -2.52939,4.7215 -5.94375,10.3443 -7.59375,12.5 -1.65,2.1556 -3.51929,4.8397 -4.125,5.9375 -1.60717,2.9129 -7.28811,3.1361 -10.71875,0.4375 -6.33286,-4.9814 -6.29873,-4.52385 -5.59375,-86.96875 0.0447,-5.225 0.0681,-20.3 0.0312,-33.5 -0.0259,-9.28331 0.0673,-17.89734 0.25,-22.9375 -0.0203,0.0938 -0.0435,0.18689 -0.0625,0.28125 l -0.40625,4.03125 c -1.12378,43.2031 -1.09497,82.89055 -2.21875,126.09375 1.31291,10.1238 6.24187,16.70114 13.71875,19.25 45.66767,-0.1576 91.33243,0.12595 136.99993,-0.0312 13.4111,0.5988 16.7873,-4.01585 20.3438,-12.21875 0.038,-44.4146 -0.073,-88.8381 0.062,-133.25 -0.1799,-8.2486 -3.8222,-12.0581 -8.25,-16.375 -8.6122,-5.3301 -18.7859,-7.80245 -28.4687,-10.59375 -14.5064,-0.11985 -29.024,-0.12621 -43.5313,-0.0937 l 6e-4,0 z m 73.125,15.40625 c 0.6937,-0.0789 1.843,1.0065 2.9063,3.0625 2.2465,4.3445 1.7771,44.0912 -0.5626,47.6875 -1.3539,2.0813 -1.3559,2.40415 0.1876,3.28125 1.5669,0.8905 1.7003,3.4187 1.3124,30.125 -0.2327,16.0251 -0.8291,29.5167 -1.3124,30 -1.7585,1.7583 -3.4538,-2.108 -2.9376,-6.6875 0.3483,-3.0889 0.074,-4.837 -0.875,-5.625 -2.0215,-1.6777 -1.9193,-18.2056 0.125,-20.25 1.8817,-1.8818 1.8704,-4.57965 -0.031,-7.09375 -0.8075,-1.0676 -1.4688,-2.67305 -1.4688,-3.59375 0,-0.9207 -0.9411,-2.87835 -2.0937,-4.34375 -2.2351,-2.8415 -1.9587,-5.625 0.5625,-5.625 1.7224,0 2.0247,-2.069 0.5312,-3.5625 -1.589,-1.589 -3.8218,-10.1076 -3,-11.4375 1.6417,-2.6563 -0.2886,-17.88615 -2.875,-22.71875 -0.6406,-1.1972 -1.4395,-5.48955 -1.7812,-9.53125 -0.7028,-8.3143 0.7001,-10.9965 5.5312,-10.6875 4.3016,0.2751 5.125,0.011 5.125,-1.5625 0,-0.94436 0.2401,-1.39014 0.6563,-1.4375 l -2e-4,0 z"
           id="path4438"
           sodipodi:nodetypes="csccscccsssssssssssssscccccccccccccsssssssssssssssssccc" />
        <path
           style="fill:#656565"
           d="m 1018.1609,277.47562 c -14.5073,0.0325 -29.02462,0.0937 -43.53128,0.0937 -4.56303,1.8e-4 -8.70583,0.46862 -12.6875,1.21875 4.81469,-0.96654 14.73159,-1.11 50.49998,-1.03125 46.97,0.1038 47.366,0.13115 56.8438,2.59375 2.8723,0.74627 10.6244,3.26276 12.7008,3.65179 -4.9325,-1.68126 -13.0251,-5.36377 -20.2946,-6.43304 -14.5064,-0.11985 -29.024,-0.12621 -43.5312,-0.0937 z m -56.21878,1.3125 c -3.05011,0.57463 -5.99435,1.3221 -8.90625,2.21875 2.65582,-0.5396 5.35801,-1.19299 7.09375,-1.75 0.54,-0.1733 1.12469,-0.33067 1.8125,-0.46875 z m 134.75008,17.6875 c 0.062,11.81827 0.067,37.28938 0.031,66.71875 l -0.094,72.875 c -0.1786,2.67857 -3.4776,11.55357 -12.4062,12.625 l -72.875,0 c -35.86373,-0.004 -65.91544,0.16386 -72.09378,0.40625 0.6137,0.40634 1.18696,0.74318 1.75,0.9375 45.66767,-0.1576 91.33238,0.12595 136.99998,-0.0312 13.4111,0.5988 16.7873,-4.01585 20.3438,-12.21875 0.038,-44.4146 -0.073,-88.8381 0.062,-133.25 -0.072,-3.29685 -0.7138,-5.86329 -1.7187,-8.0625 l 9e-4,-5e-5 z"
           id="path4440"
           sodipodi:nodetypes="csccscccccsccccccccccccc" />
      </g>
      <path
         sodipodi:nodetypes="czzzz"
         id="path3420"
         d="m 1743.679,690.48109 c 2.5274,2.45813 -20.1956,41.37273 -25.952,41.37273 -5.7563,0 -28.8011,-38.52357 -25.9519,-41.37273 2.8491,-2.84916 14.0146,15.98496 25.9519,15.98496 11.9375,0 23.4247,-18.4431 25.952,-15.98496 z"
         style="stroke-width:1px" />
    </g>
    <g
       transform="matrix(0.29218478,0,0,0.28968711,108.09532,632.57078)"
       id="g3515"
       style="filter:url(#filter4777)">
      <path
         style="fill:#ffffff"
         d="m 1018.1609,277.47562 c -14.5073,0.0325 -29.02462,0.0937 -43.53128,0.0937 -10.42729,4e-4 -18.82558,2.25415 -27.53125,5.40625 -8.4947,3.094 -15.49075,9.2658 -17.1875,17.6875 l -0.40625,4.03125 c -1.12378,43.2031 -1.09497,82.89055 -2.21875,126.09375 1.84862,7.6238 8.92044,17.594 13.71875,19.25 45.66767,-0.1576 91.33238,0.12595 136.99998,-0.0312 13.4111,0.5988 16.7873,-4.01585 20.3438,-12.21875 0.038,-44.4146 -0.074,-88.8381 0.062,-133.25 -0.1799,-8.2486 -3.8222,-12.0581 -8.25,-16.375 -8.6122,-5.3301 -18.7859,-7.80245 -28.4688,-10.59375 -14.5064,-0.11985 -29.024,-0.12621 -43.5312,-0.0937 z"
         id="path3517" />
      <path
         style="fill:#adadad"
         d="m 1018.1609,277.47562 c -14.5073,0.0325 -29.02462,0.0937 -43.53128,0.0937 -10.42729,4e-4 -18.82558,2.25415 -27.53125,5.40625 -8.4947,3.094 -15.49075,9.2658 -17.1875,17.6875 l -0.40625,4.03125 c -1.12378,43.2031 -1.09497,82.89055 -2.21875,126.09375 1.84862,7.6238 8.92044,17.594 13.71875,19.25 45.66767,-0.1576 91.33238,0.12595 136.99998,-0.0312 13.4111,0.5988 16.7873,-4.01585 20.3438,-12.21875 0.038,-44.4146 -0.073,-88.8381 0.062,-133.25 -0.1799,-8.2486 -3.8222,-12.0581 -8.25,-16.375 -8.6122,-5.3301 -18.7859,-7.80245 -28.4688,-10.59375 -14.5064,-0.11985 -29.024,-0.12621 -43.5312,-0.0937 z m -5.0625,2.375 c 43.2048,0.0206 46.2783,0.1345 50.25,1.9375 2.442,1.1085 5.0855,3.34 6.25,5.25 1.9547,3.2064 2.0312,4.92225 2.0312,55.84375 0,52.5161 -9e-4,52.536 -2.25,56.9375 -3.5615,6.97 -5.3879,7.74505 -21.75,9.40625 -25.1148,2.5497 -30.2472,2.5807 -63.78123,0.125 -23.9692,-1.7553 -27.16158,-2.82935 -30.375,-10.09375 -1.88507,-4.2615 -1.94421,-6.5576 -1.65625,-55.6875 0.26634,-45.442 0.50109,-51.5896 1.96875,-54.25 2.35928,-4.2767 5.96897,-7.3708 9.90625,-8.5 1.99756,-0.5729 22.40461,-0.98175 49.40628,-0.96875 z"
         id="path3519"
         sodipodi:nodetypes="csccccccccccccsscsssssssc" />
      <path
         style="fill:#949494"
         d="m 1018.1609,277.47562 c -14.5073,0.0325 -29.02462,0.0937 -43.53128,0.0937 -10.42729,4e-4 -18.82558,2.25415 -27.53125,5.40625 -2.65459,0.96687 -5.15671,2.23872 -7.40625,3.78125 1.89728,-0.77723 4.05531,-1.43109 6.4375,-1.9375 2.2,-0.4677 7.15,-2.0682 11,-3.5625 l 7,-2.71875 48.68748,0.0937 c 47.6444,0.0901 48.8176,0.15935 53.75,2.28125 5.3296,2.2926 8.3061,5.9096 9.5001,11.5625 0.7066,3.3454 -1.1299,100.6488 -2,106 -0.2822,1.7357 -2.2853,5.7857 -4.4688,9 -2.1835,3.2143 -3.9678,6.40625 -3.9688,7.09375 0,1.6286 -0.5821,1.5789 -3.4687,-0.3125 -2.0802,-1.363 -4.0905,-1.4274 -15.6563,-0.5 -17.6549,1.4157 -40.7288,1.3688 -60.74998,-0.125 -20.73911,-1.5473 -21.28407,-1.31345 -28.03125,11.28125 -2.52939,4.7215 -5.94375,10.3443 -7.59375,12.5 -1.65,2.1556 -3.51929,4.8397 -4.125,5.9375 -1.60717,2.9129 -7.28811,3.1361 -10.71875,0.4375 -6.33286,-4.9814 -6.29873,-4.52385 -5.59375,-86.96875 0.0447,-5.225 0.0681,-20.3 0.0312,-33.5 -0.0259,-9.28331 0.0673,-17.89734 0.25,-22.9375 -0.0203,0.0938 -0.0435,0.18689 -0.0625,0.28125 l -0.40625,4.03125 c -1.12378,43.2031 -1.09497,82.89055 -2.21875,126.09375 1.31291,10.1238 6.24187,16.70114 13.71875,19.25 45.66767,-0.1576 91.33243,0.12595 136.99993,-0.0312 13.4111,0.5988 16.7873,-4.01585 20.3438,-12.21875 0.038,-44.4146 -0.073,-88.8381 0.062,-133.25 -0.1799,-8.2486 -3.8222,-12.0581 -8.25,-16.375 -8.6122,-5.3301 -18.7859,-7.80245 -28.4687,-10.59375 -14.5064,-0.11985 -29.024,-0.12621 -43.5313,-0.0937 l 6e-4,0 z m 73.125,15.40625 c 0.6937,-0.0789 1.843,1.0065 2.9063,3.0625 2.2465,4.3445 1.7771,44.0912 -0.5626,47.6875 -1.3539,2.0813 -1.3559,2.40415 0.1876,3.28125 1.5669,0.8905 1.7003,3.4187 1.3124,30.125 -0.2327,16.0251 -0.8291,29.5167 -1.3124,30 -1.7585,1.7583 -3.4538,-2.108 -2.9376,-6.6875 0.3483,-3.0889 0.074,-4.837 -0.875,-5.625 -2.0215,-1.6777 -1.9193,-18.2056 0.125,-20.25 1.8817,-1.8818 1.8704,-4.57965 -0.031,-7.09375 -0.8075,-1.0676 -1.4688,-2.67305 -1.4688,-3.59375 0,-0.9207 -0.9411,-2.87835 -2.0937,-4.34375 -2.2351,-2.8415 -1.9587,-5.625 0.5625,-5.625 1.7224,0 2.0247,-2.069 0.5312,-3.5625 -1.589,-1.589 -3.8218,-10.1076 -3,-11.4375 1.6417,-2.6563 -0.2886,-17.88615 -2.875,-22.71875 -0.6406,-1.1972 -1.4395,-5.48955 -1.7812,-9.53125 -0.7028,-8.3143 0.7001,-10.9965 5.5312,-10.6875 4.3016,0.2751 5.125,0.011 5.125,-1.5625 0,-0.94436 0.2401,-1.39014 0.6563,-1.4375 l -2e-4,0 z"
         id="path3521"
         sodipodi:nodetypes="csccscccsssssssssssssscccccccccccccsssssssssssssssssccc" />
      <path
         style="fill:#656565"
         d="m 1018.1609,277.47562 c -14.5073,0.0325 -29.02462,0.0937 -43.53128,0.0937 -4.56303,1.8e-4 -8.70583,0.46862 -12.6875,1.21875 4.81469,-0.96654 14.73159,-1.11 50.49998,-1.03125 46.97,0.1038 47.366,0.13115 56.8438,2.59375 2.8723,0.74627 10.6244,3.26276 12.7008,3.65179 -4.9325,-1.68126 -13.0251,-5.36377 -20.2946,-6.43304 -14.5064,-0.11985 -29.024,-0.12621 -43.5312,-0.0937 z m -56.21878,1.3125 c -3.05011,0.57463 -5.99435,1.3221 -8.90625,2.21875 2.65582,-0.5396 5.35801,-1.19299 7.09375,-1.75 0.54,-0.1733 1.12469,-0.33067 1.8125,-0.46875 z m 134.75008,17.6875 c 0.062,11.81827 0.067,37.28938 0.031,66.71875 l -0.094,72.875 c -0.1786,2.67857 -3.4776,11.55357 -12.4062,12.625 l -72.875,0 c -35.86373,-0.004 -65.91544,0.16386 -72.09378,0.40625 0.6137,0.40634 1.18696,0.74318 1.75,0.9375 45.66767,-0.1576 91.33238,0.12595 136.99998,-0.0312 13.4111,0.5988 16.7873,-4.01585 20.3438,-12.21875 0.038,-44.4146 -0.073,-88.8381 0.062,-133.25 -0.072,-3.29685 -0.7138,-5.86329 -1.7187,-8.0625 l 9e-4,-5e-5 z"
         id="path3523"
         sodipodi:nodetypes="csccscccccsccccccccccccc" />
    </g>
    <g
       id="g3447"
       transform="matrix(0.29154518,0,0,0.29154518,90.952328,525.02166)"
       style="filter:url(#filter4763)">
      <g
         transform="matrix(1.0091086,0,0,0.98898603,1404.6402,-366.52224)"
         id="g4561">
        <path
           style="fill:#ffffff"
           d="m 404.28125,711.21875 c -7.41079,-0.013 -16.40976,1.09427 -23,3.28125 -8.8966,2.9737 -15.53915,3.6106 -21.34375,10.4375 -5.367,9.7908 -2.73025,24.1486 -2.78125,33.5625 0.3166,35.6447 0.30275,71.2942 0.78125,106.9375 0.1278,9.8865 6.6762,17.1023 15,18.875 44.6958,0.1274 89.39975,0.0826 134.09375,0.3125 8.2584,0.1161 17.05155,-2.5847 19.46875,-10.4375 -0.0606,-42.2455 -0.4255,-84.5006 -0.875,-126.75 -0.8231,-9.2764 0.7003,-16.28055 -4.125,-22.40625 -7.4768,-8.2608 -19.0812,-8.7653 -28.1875,-13.0625 -28.6545,-0.2347 -57.31415,-0.4529 -85.96875,-0.6875 -0.98203,-0.0481 -2.00382,-0.0607 -3.0625,-0.0625 z"
           transform="translate(46.000019,311.14792)"
           id="path4412" />
        <path
           sodipodi:nodetypes="ccccccccccccccsssssssscccsc"
           style="fill:#adadad"
           d="m 404.28125,711.21875 c -7.41079,-0.013 -16.40976,1.09427 -23,3.28125 -8.8966,2.9737 -15.53915,3.6106 -21.34375,10.4375 -5.367,9.7908 -2.73025,24.1486 -2.78125,33.5625 0.3166,35.6447 0.30275,71.2942 0.78125,106.9375 0.1278,9.8865 6.6762,17.1023 15,18.875 44.6958,0.1274 89.39975,0.0826 134.09375,0.3125 8.2584,0.1161 17.05155,-2.5847 19.46875,-10.4375 -0.0606,-42.2455 -0.4255,-84.5006 -0.875,-126.75 -0.8231,-9.2764 0.7003,-16.28055 -4.125,-22.40625 -7.4768,-8.2608 -19.0812,-8.7653 -28.1875,-13.0625 -28.6545,-0.2347 -57.31415,-0.4529 -85.96875,-0.6875 -0.98203,-0.0481 -2.00382,-0.0607 -3.0625,-0.0625 z m 20.90625,2.8125 c 5.91938,0.0228 12.52325,0.0737 19.625,0.15625 44.5334,0.5177 47.4274,0.67355 50.8125,2.53125 7.4629,4.0955 7.2115,2.29595 8.5625,59.78125 1.148,48.8486 1.10655,51.706 -0.59375,55.5 -3.8056,8.4921 -7.5923,10.1059 -26.0625,11 -6.325,0.3063 -14.875,0.6924 -19,0.875 -10.23,0.4528 -38.68025,-1.0302 -52.71875,-2.75 -20.0465,-2.4559 -20.10285,-2.6093 -20.78125,-41.375 -0.2768,-15.8175 -0.7311,-39.4364 -1,-52.5 l -0.46875,-23.75 3.59375,-3.96875 c 1.9922,-2.2051 5.1035,-4.4138 7,-4.9375 1.5435,-0.42615 13.2731,-0.63082 31.03125,-0.5625 z"
           transform="translate(46.000019,311.14792)"
           id="path4414" />
        <path
           sodipodi:nodetypes="cccscccscccssssssssscccccccccccccc"
           style="fill:#949494"
           d="m 404.28125,711.21875 c -7.41079,-0.013 -16.40976,1.09427 -23,3.28125 -7.37597,2.46543 -13.20063,3.32447 -18.28125,7.4375 1.94227,-1.05133 4.47047,-1.45952 7.8125,-2.34375 4.5158,-1.1948 11.98515,-3.3423 16.59375,-4.75 l 8.375,-2.5625 46.8125,0.15625 c 25.7315,0.082 48.06405,0.5434 49.65625,1 5.1572,1.4791 9.08935,3.9767 11.46875,7.3125 l 2.3125,3.25 0.84375,53.34375 c 0.778,48.9084 0.735,53.72925 -0.8125,57.78125 -2.3273,6.094 -6.86885,9.27645 -14.71875,10.40625 -11.5108,1.6565 -49.64225,2.26105 -70.09375,1.09375 -10.8881,-0.6213 -20.85765,-0.85715 -22.15625,-0.53125 -1.6017,0.402 -3.83565,3.0507 -6.90625,8.25 -2.4897,4.2156 -7.48275,11.0979 -11.09375,15.3125 -3.611,4.2147 -6.5625,8.11725 -6.5625,8.65625 0,0.539 -0.6925,1.25995 -1.5625,1.59375 -2.8556,1.0958 -4.9139,0.6267 -8.6875,-1.9375 -4.24097,-2.88179 -5.76062,-2.68656 -6.40625,-19.125 0.026,2.19648 0.033,4.3973 0.0625,6.59375 0.1278,9.8865 6.6762,17.1023 15,18.875 44.6958,0.1274 89.39975,0.0826 134.09375,0.3125 8.2584,0.1161 17.05155,-2.5847 19.46875,-10.4375 -0.0606,-42.2455 -0.4255,-84.5006 -0.875,-126.75 -0.8231,-9.2764 0.7003,-16.28055 -4.125,-22.40625 -7.4768,-8.2608 -19.0812,-8.7653 -28.1875,-13.0625 -28.6545,-0.2347 -57.31415,-0.4529 -85.96875,-0.6875 -0.98203,-0.0481 -2.00382,-0.0607 -3.0625,-0.0625 z m -44.125,13.46875 c -0.0739,0.0846 -0.14516,0.16345 -0.21875,0.25 -4.58861,8.37082 -3.33337,20.05196 -2.90625,29.15625 0.13182,-17.80296 0.8437,-25.57608 3.125,-29.40625 z"
           transform="translate(46.000019,311.14792)"
           id="path4416" />
        <path
           sodipodi:nodetypes="ccccccccccssssssscscccscccssscccccccc"
           style="fill:#656565"
           d="m 404.28125,711.21875 c -7.41079,-0.013 -16.40976,1.09427 -23,3.28125 -2.22415,0.74343 -4.31818,1.32137 -6.28125,1.90625 1.47961,-0.37066 2.97554,-0.75305 4.53125,-1.125 l 13.5,-3.21875 L 439.5,711.75 c 7.04444,-0.0457 13.33135,-0.0678 19.0625,-0.0625 -17.07187,-0.13982 -34.14683,-0.26648 -51.21875,-0.40625 -0.98203,-0.0481 -2.00382,-0.0607 -3.0625,-0.0625 z m 74.15625,0.625 c 6.76352,0.13514 11.16698,0.36618 12.5625,0.65625 2.7769,0.5772 7.4476,2.50485 10.375,4.28125 2.9274,1.7763 8.3274,4.79375 12,6.71875 5.4541,2.8589 6.86885,4.1412 7.84375,7 1.4716,4.3154 1.6672,12.6628 0.3125,13.5 -0.55,0.34 -1,1.4171 -1,2.375 0,0.9579 -0.5625,2.9571 -1.25,4.4375 -1.0191,2.1943 -1.9196,2.6775 -4.875,2.6875 -3.2577,0.007 -3.6883,0.3167 -4.25,3.125 -0.3437,1.7188 -0.625,19.98915 -0.625,40.59375 l 0,37.46875 4.40625,11.15625 c 7.729,19.5676 8.57015,22.50045 7.90625,27.34375 -0.4831,3.5247 -1.318,4.9691 -4.0625,7.0625 l -3.4375,2.65625 -55.53125,-0.28125 c -37.0668,-0.1855 -56.32315,-0.6537 -57.90625,-1.375 -1.7262,-0.7865 -3.05225,-0.75095 -4.90625,0.0937 -3.1761,1.4471 -25.30785,1.5407 -29.03125,0.125 -0.3946,-0.15008 -0.78648,-0.24585 -1.15625,-0.34375 2.11459,1.53157 4.52381,2.63353 7.125,3.1875 44.6958,0.1274 89.39975,0.0826 134.09375,0.3125 8.2584,0.1161 17.05155,-2.5847 19.46875,-10.4375 -0.0606,-42.2455 -0.4255,-84.5006 -0.875,-126.75 -0.8231,-9.2764 0.7003,-16.28055 -4.125,-22.40625 -7.4768,-8.2608 -19.0812,-8.7653 -28.1875,-13.0625 -4.95805,-0.0406 -9.91695,-0.0844 -14.875,-0.125 z"
           transform="translate(46.000019,311.14792)"
           id="path4418" />
        <path
           style="fill:#282828"
           d="m 493.0625,711.96875 c 0.20005,0.0554 0.38758,0.0993 0.59375,0.15625 -0.1146,-0.0525 -0.22992,-0.10253 -0.34375,-0.15625 -0.0833,-6.8e-4 -0.16668,6.8e-4 -0.25,0 z m 32,23.09375 c 0.92118,22.31851 1.41994,135.94198 0.5,139.90625 -0.3115,1.34212 -0.90085,2.67396 -1.625,3.78125 1.11888,-1.2756 2.01577,-2.78633 2.5625,-4.5625 -0.0606,-42.2455 -0.4255,-84.5006 -0.875,-126.75 -0.41155,-4.6382 -0.23375,-8.69956 -0.5625,-12.375 z"
           id="path4420"
           transform="translate(46.000019,311.14792)" />
      </g>
      <path
         style="stroke-width:1px"
         d="m 1858.5876,659.43123 c 4.882,-5.01959 82.1691,40.10983 82.1691,51.54243 0,11.4324 -76.5105,57.20094 -82.1691,51.54222 -5.6587,-5.6585 31.7472,-27.83393 31.7472,-51.54222 0,-23.70869 -36.6293,-46.52304 -31.7472,-51.54243 z"
         id="path3441"
         sodipodi:nodetypes="czzzz" />
    </g>
    <g
       id="g3456"
       transform="matrix(0.2915452,0,0,0.2915452,25.545321,577.32811)"
       style="filter:url(#filter4749)">
      <g
         transform="matrix(1.0340487,0,0,1.0063163,685.14262,345.62695)"
         id="g4174">
        <path
           style="fill:#ffffff"
           d="m 1017.0625,118.81283 c -17.49434,0.12096 -35.00839,0.79399 -52.49998,0.34375 -16.20526,-0.76281 -27.4528,4.71975 -39.65625,11.21875 -9.32152,5.66969 -8.02219,17.90224 -7.84375,27.28125 0.0555,35.58167 0.132,71.16833 0.1875,106.75 -1.11937,11.9386 2.77405,22.78151 13.65625,24.8125 42.61693,-0.11544 85.22703,-0.0938 127.84373,-0.28125 14.8868,0.42997 22.4344,-3.19691 23.9375,-14.03125 0.204,-32.47514 -0.2025,-64.98314 -0.1875,-97.46875 -0.5566,-16.08543 2.6193,-29.28719 -4.3125,-42.3125 -6.999,-8.69631 -19.1544,-12.42211 -29.6563,-15.5625 -10.4828,-0.68415 -20.9721,-0.82257 -31.4687,-0.75 z"
           id="path4142" />
        <path
           sodipodi:nodetypes="cccccccccccccsssssssssc"
           style="fill:#adadad"
           d="m 1017.0625,118.81283 c -17.49434,0.12096 -35.00839,0.79399 -52.49998,0.34375 -16.20526,-0.76281 -27.4528,4.71975 -39.65625,11.21875 -9.32152,5.66969 -8.02219,17.90224 -7.84375,27.28125 0.0555,35.58167 0.132,71.16833 0.1875,106.75 -1.11937,11.9386 2.77405,22.78151 13.65625,24.8125 42.61693,-0.11544 85.22703,-0.0938 127.84373,-0.28125 14.8868,0.42997 22.4344,-3.19691 23.9375,-14.03125 0.204,-32.47514 -0.2025,-64.98314 -0.1875,-97.46875 -0.5566,-16.08543 2.6193,-29.28719 -4.3125,-42.3125 -6.999,-8.69631 -19.1544,-12.42211 -29.6563,-15.5625 -10.4828,-0.68415 -20.9721,-0.82257 -31.4687,-0.75 z m -18.06248,2.15625 c 45.33838,-0.044 48.03168,0.0684 51.12498,1.875 1.7965,1.04918 4.1931,3.46947 5.3125,5.375 1.9781,3.36664 2.0396,4.84999 1.9063,52.53125 -0.1341,47.92273 -0.2054,49.1496 -2.2813,53.21875 -2.8692,5.62409 -5.9916,7.41182 -15.5312,8.9375 -10.1784,1.62783 -60.47753,2.42955 -74.56253,1.1875 -17.57133,-1.54948 -21.12602,-3.15597 -24.46875,-11.15625 -1.32415,-3.16914 -1.53125,-10.64513 -1.53125,-51.78125 0,-51.58916 -0.0648,-50.86244 5.15625,-55.59375 5.02189,-4.5508 4.71045,-4.54515 54.875,-4.59375 z"
           id="path4140" />
        <path
           sodipodi:nodetypes="cscccccssssscccccccccccccccccccssssssccc"
           style="fill:#949494"
           d="m 1048.0312,119.53158 c 0.6767,0.49321 1.6624,1.1107 3.0938,1.96875 2.9025,1.73984 6.2715,4.67191 7.5,6.5 l 2.25,3.3125 -0.625,51.71875 -0.5938,51.6875 3.1876,8.3125 c 1.7625,4.57029 3.6286,9.0544 4.125,9.96875 1.7635,3.24884 7.7068,17.75357 9,21.9375 0.9933,3.21395 1.0319,4.83401 0.1874,6.6875 -2.4704,5.42188 -1.0123,5.31237 -76.68743,5.5625 -38.5,0.12727 -70.7672,0.1941 -71.6875,0.125 -2.0598,-0.15461 -5.52252,-3.06562 -7.9375,-6.3125 2.21946,4.20289 5.82112,7.24053 11.0625,8.21875 42.61693,-0.11544 85.22703,-0.0938 127.84373,-0.28125 14.8868,0.42997 22.4344,-3.19691 23.9375,-14.03125 0.204,-32.47514 -0.2025,-64.98314 -0.1875,-97.46875 -0.5566,-16.08543 2.6193,-29.28719 -4.3125,-42.3125 -6.999,-8.69631 -19.1544,-12.42211 -29.6563,-15.5625 -0.1664,-0.0109 -0.3335,-0.0207 -0.5,-0.0312 l 0,-5e-5 z m -98.78118,0.875 c -8.7983,1.92322 -16.37677,5.7259 -24.34375,9.96875 -4.20789,2.5594 -6.2291,6.47621 -7.1875,10.84375 l 2.46875,-3.25 c 2.48863,-3.27578 11.88881,-8.96405 28.65625,-17.34375 l 0.40625,-0.21875 z m -31.78125,22 c -0.86551,4.99834 -0.4968,10.49036 -0.40625,15.25 0.0555,35.58167 0.132,71.16833 0.1875,106.75 -0.0959,1.02325 -0.13519,2.02904 -0.15625,3.03125 0.30618,-1.36945 0.70743,-2.56577 1.09375,-3.03125 0.77503,-0.93386 0.726,-1.94935 -0.1875,-3.65625 -1.09632,-2.04848 -0.96701,-2.94459 1.03125,-6.5 2.03457,-3.62004 3.11786,-4.85405 4.16071,-7.76339 1.88208,-5.25063 0.26966,-5.36545 1.78572,-9.55804 0.92708,-2.56384 -3.878,-5.49973 -4.79023,-8.02232 -1.17623,-3.25279 -2.05648,-26.92786 -2.5,-67.28125 l -0.21875,-19.21875 5e-5,0 z"
           id="path4138" />
        <path
           sodipodi:nodetypes="cscccccccscccscccccccccccccc"
           style="fill:#656565"
           d="m 1051.5312,120.46908 c 3.6734,2.27894 12.7909,7.42617 17.1876,9.625 4.2038,2.1025 7.2723,4.49996 9.3437,7.34375 l 2.5625,3.53125 c -0.6302,-1.95716 -1.4048,-3.90315 -2.4375,-5.84375 -6.3433,-7.88162 -16.913,-11.67607 -26.6563,-14.65625 z m -107.56243,1.375 c -6.6404,2.09587 -12.73343,5.16068 -19.0625,8.53125 -1.92627,1.17163 -3.37752,2.66358 -4.5,4.3125 1.52919,-1.63394 3.58416,-3.21785 5.1875,-3.96875 9.39044,-4.39789 15.05266,-7.12482 18.375,-8.875 z m 137.18743,20.84375 -0.5624,45.96875 c -0.5032,42.72564 -0.7004,47.11692 -2.25,48.25 -1.4398,1.05275 -2.7637,1.11449 -3.5357,3.51786 -0.9943,3.02143 -1.1966,3.68412 1.6607,6.32589 2.9307,1.32889 3.2483,2.71153 3.9062,17.125 l 0.6875,15.1875 -3.6563,4.0625 c -1.9875,2.20003 -4.8957,4.24544 -6.9687,4.96875 7.2637,-1.64255 11.2094,-5.68666 12.25,-13.1875 0.204,-32.47514 -0.2025,-64.98314 -0.1875,-97.46875 -0.4492,-12.98049 1.52,-24.10399 -1.3438,-34.75 z m -153.99993,145.375 c 1.13883,0.50842 2.39974,0.90424 3.75,1.15625 42.61693,-0.11544 85.22703,-0.0938 127.84373,-0.28125 3.9068,0.11284 7.2998,-0.0577 10.2188,-0.5625 -12.543,1.01849 -120.01023,0.70527 -141.81253,-0.3125 z"
           id="path4136" />
      </g>
      <path
         sodipodi:nodetypes="czzzz"
         id="path3443"
         d="m 1743.679,547.81841 c 2.5274,-2.45813 -20.1956,-41.37273 -25.952,-41.37273 -5.7563,0 -28.8011,38.52357 -25.9519,41.37273 2.8491,2.84916 14.0146,-15.98496 25.9519,-15.98496 11.9375,0 23.4247,18.4431 25.952,15.98496 z"
         style="stroke-width:1px" />
    </g>
    <g
       transform="matrix(0.30147194,0,0,0.29338669,40.626442,678.09399)"
       id="g3501"
       style="filter:url(#filter4735)">
      <path
         style="fill:#ffffff"
         d="m 1017.0625,118.81283 c -17.49434,0.12096 -35.00839,0.79399 -52.49998,0.34375 -16.20526,-0.76281 -27.4528,4.71975 -39.65625,11.21875 -9.32152,5.66969 -8.02219,17.90224 -7.84375,27.28125 0.0555,35.58167 0.132,71.16833 0.1875,106.75 -1.11937,11.9386 2.77405,22.78151 13.65625,24.8125 42.61693,-0.11544 85.22703,-0.0938 127.84373,-0.28125 14.8868,0.42997 22.4344,-3.19691 23.9375,-14.03125 0.204,-32.47514 -0.2025,-64.98314 -0.1875,-97.46875 -0.5566,-16.08543 2.6193,-29.28719 -4.3125,-42.3125 -6.999,-8.69631 -19.1544,-12.42211 -29.6563,-15.5625 -10.4828,-0.68415 -20.9721,-0.82257 -31.4687,-0.75 z"
         id="path3503" />
      <path
         sodipodi:nodetypes="cccccccccccccsssssssssc"
         style="fill:#adadad"
         d="m 1017.0625,118.81283 c -17.49434,0.12096 -35.00839,0.79399 -52.49998,0.34375 -16.20526,-0.76281 -27.4528,4.71975 -39.65625,11.21875 -9.32152,5.66969 -8.02219,17.90224 -7.84375,27.28125 0.0555,35.58167 0.132,71.16833 0.1875,106.75 -1.11937,11.9386 2.77405,22.78151 13.65625,24.8125 42.61693,-0.11544 85.22703,-0.0938 127.84373,-0.28125 14.8868,0.42997 22.4344,-3.19691 23.9375,-14.03125 0.204,-32.47514 -0.2025,-64.98314 -0.1875,-97.46875 -0.5566,-16.08543 2.6193,-29.28719 -4.3125,-42.3125 -6.999,-8.69631 -19.1544,-12.42211 -29.6563,-15.5625 -10.4828,-0.68415 -20.9721,-0.82257 -31.4687,-0.75 z m -18.06248,2.15625 c 45.33838,-0.044 48.03168,0.0684 51.12498,1.875 1.7965,1.04918 4.1931,3.46947 5.3125,5.375 1.9781,3.36664 2.0396,4.84999 1.9063,52.53125 -0.1341,47.92273 -0.2054,49.1496 -2.2813,53.21875 -2.8692,5.62409 -5.9916,7.41182 -15.5312,8.9375 -10.1784,1.62783 -60.47753,2.42955 -74.56253,1.1875 -17.57133,-1.54948 -21.12602,-3.15597 -24.46875,-11.15625 -1.32415,-3.16914 -1.53125,-10.64513 -1.53125,-51.78125 0,-51.58916 -0.0648,-50.86244 5.15625,-55.59375 5.02189,-4.5508 4.71045,-4.54515 54.875,-4.59375 z"
         id="path3505" />
      <path
         sodipodi:nodetypes="cscccccssssscccccccccccccccccccssssssccc"
         style="fill:#949494"
         d="m 1048.0312,119.53158 c 0.6767,0.49321 1.6624,1.1107 3.0938,1.96875 2.9025,1.73984 6.2715,4.67191 7.5,6.5 l 2.25,3.3125 -0.625,51.71875 -0.5938,51.6875 3.1876,8.3125 c 1.7625,4.57029 3.6286,9.0544 4.125,9.96875 1.7635,3.24884 7.7068,17.75357 9,21.9375 0.9933,3.21395 1.0319,4.83401 0.1874,6.6875 -2.4704,5.42188 -1.0123,5.31237 -76.68743,5.5625 -38.5,0.12727 -70.7672,0.1941 -71.6875,0.125 -2.0598,-0.15461 -5.52252,-3.06562 -7.9375,-6.3125 2.21946,4.20289 5.82112,7.24053 11.0625,8.21875 42.61693,-0.11544 85.22703,-0.0938 127.84373,-0.28125 14.8868,0.42997 22.4344,-3.19691 23.9375,-14.03125 0.204,-32.47514 -0.2025,-64.98314 -0.1875,-97.46875 -0.5566,-16.08543 2.6193,-29.28719 -4.3125,-42.3125 -6.999,-8.69631 -19.1544,-12.42211 -29.6563,-15.5625 -0.1664,-0.0109 -0.3335,-0.0207 -0.5,-0.0312 l 0,-5e-5 z m -98.78118,0.875 c -8.7983,1.92322 -16.37677,5.7259 -24.34375,9.96875 -4.20789,2.5594 -6.2291,6.47621 -7.1875,10.84375 l 2.46875,-3.25 c 2.48863,-3.27578 11.88881,-8.96405 28.65625,-17.34375 l 0.40625,-0.21875 z m -31.78125,22 c -0.86551,4.99834 -0.4968,10.49036 -0.40625,15.25 0.0555,35.58167 0.132,71.16833 0.1875,106.75 -0.0959,1.02325 -0.13519,2.02904 -0.15625,3.03125 0.30618,-1.36945 0.70743,-2.56577 1.09375,-3.03125 0.77503,-0.93386 0.726,-1.94935 -0.1875,-3.65625 -1.09632,-2.04848 -0.96701,-2.94459 1.03125,-6.5 2.03457,-3.62004 3.11786,-4.85405 4.16071,-7.76339 1.88208,-5.25063 0.26966,-5.36545 1.78572,-9.55804 0.92708,-2.56384 -3.878,-5.49973 -4.79023,-8.02232 -1.17623,-3.25279 -2.05648,-26.92786 -2.5,-67.28125 l -0.21875,-19.21875 5e-5,0 z"
         id="path3507" />
      <path
         sodipodi:nodetypes="cscccccccscccscccccccccccccc"
         style="fill:#656565"
         d="m 1051.5312,120.46908 c 3.6734,2.27894 12.7909,7.42617 17.1876,9.625 4.2038,2.1025 7.2723,4.49996 9.3437,7.34375 l 2.5625,3.53125 c -0.6302,-1.95716 -1.4048,-3.90315 -2.4375,-5.84375 -6.3433,-7.88162 -16.913,-11.67607 -26.6563,-14.65625 z m -107.56243,1.375 c -6.6404,2.09587 -12.73343,5.16068 -19.0625,8.53125 -1.92627,1.17163 -3.37752,2.66358 -4.5,4.3125 1.52919,-1.63394 3.58416,-3.21785 5.1875,-3.96875 9.39044,-4.39789 15.05266,-7.12482 18.375,-8.875 z m 137.18743,20.84375 -0.5624,45.96875 c -0.5032,42.72564 -0.7004,47.11692 -2.25,48.25 -1.4398,1.05275 -2.7637,1.11449 -3.5357,3.51786 -0.9943,3.02143 -1.1966,3.68412 1.6607,6.32589 2.9307,1.32889 3.2483,2.71153 3.9062,17.125 l 0.6875,15.1875 -3.6563,4.0625 c -1.9875,2.20003 -4.8957,4.24544 -6.9687,4.96875 7.2637,-1.64255 11.2094,-5.68666 12.25,-13.1875 0.204,-32.47514 -0.2025,-64.98314 -0.1875,-97.46875 -0.4492,-12.98049 1.52,-24.10399 -1.3438,-34.75 z m -153.99993,145.375 c 1.13883,0.50842 2.39974,0.90424 3.75,1.15625 42.61693,-0.11544 85.22703,-0.0938 127.84373,-0.28125 3.9068,0.11284 7.2998,-0.0577 10.2188,-0.5625 -12.543,1.01849 -120.01023,0.70527 -141.81253,-0.3125 z"
         id="path3509" />
    </g>
    <g
       id="g3472"
       transform="matrix(0.29154519,0,0,0.29154519,138.91252,525.02165)"
       style="filter:url(#filter4721)">
      <g
         transform="matrix(1.0043924,0,0,0.98784626,719.37259,367.46613)"
         id="g4574">
        <path
           style="fill:#ffffff"
           d="m 861.70538,280.52738 c -26.25165,0.0597 -51.62073,0.31515 -77.4375,0.40625 -11.73842,-0.11508 -20.1737,0.0367 -29.5625,3.6875 -9.27755,3.48409 -18.50004,7.8498 -20.5,18.40625 l -1.125,136.40625 c 1.91716,5.96699 6.67478,12.37158 12.0625,14.28125 23.04951,0.91572 90.44501,0.0511 135.28125,0.0937 11.08569,0.88878 19.7716,-5.01078 21.8125,-14.96875 l 1.59375,-132.375 c -0.42282,-7.93587 -7.71033,-15.36952 -14.5,-18.8125 -8.6497,-4.36495 -16.52822,-6.13337 -27.625,-7.125 z"
           id="path4222" />
        <path
           style="fill:#adadad"
           d="m 861.70538,280.52738 c -26.25165,0.0597 -51.62073,0.31515 -77.4375,0.40625 -11.73842,-0.11508 -20.1737,0.0367 -29.5625,3.6875 -9.27755,3.48409 -18.50004,7.8498 -20.5,18.40625 l -1.125,136.40625 c 1.91716,5.96699 6.67478,12.37158 12.0625,14.28125 23.04951,0.91572 90.44501,0.051 135.28125,0.0937 11.08569,0.88878 19.7716,-5.01078 21.8125,-14.96875 l 1.59375,-132.375 c -0.42282,-7.93587 -7.71033,-15.36952 -14.5,-18.8125 -8.6497,-4.36495 -16.52822,-6.13337 -27.625,-7.125 z m -61.96875,2.28125 c 4.92475,-0.0186 10.4997,0 16.84375,0 44.7953,0 45.12288,0.0155 49.53125,2.25 2.58662,1.31108 5.26947,3.64546 6.40625,5.625 1.92516,3.35238 1.92963,4.08761 0.28125,55.28125 -1.55216,48.20503 -1.81008,52.16371 -3.6875,55.84375 -2.81846,5.52464 -5.20889,6.7716 -16.5625,8.5625 -11.85211,1.86952 -58.30127,2.73739 -74.9375,1.40625 -13.03982,-1.04338 -17.37174,-2.16272 -21.375,-5.53125 -5.37653,-4.52405 -5.43745,-5.02836 -3.6875,-58.1875 0.88274,-26.81567 1.83901,-50.23199 2.125,-52.03125 0.28599,-1.79926 1.91912,-4.84269 3.59375,-6.75 4.80785,-5.47583 6.99552,-6.33891 41.46875,-6.46875 z"
           id="path4220"
           sodipodi:nodetypes="ccccccccccccsssssssssssc" />
        <path
           style="fill:#949494"
           d="m 861.70538,280.52738 c -26.25165,0.0597 -51.62073,0.31515 -77.4375,0.40625 -11.73842,-0.11508 -20.1737,0.0367 -29.5625,3.6875 -9.27755,3.48409 -18.50004,7.8498 -20.5,18.40625 l -1.125,136.40625 c 1.91716,5.96699 6.67478,12.37158 12.0625,14.28125 23.04951,0.91572 90.44501,0.051 135.28125,0.0937 11.08569,0.88878 19.7716,-5.01078 21.8125,-14.96875 l 1.59375,-132.375 c -0.42282,-7.93587 -7.71033,-15.36952 -14.5,-18.8125 -8.6497,-4.36495 -16.52822,-6.13337 -27.625,-7.125 z m -28.9375,1.125 c 34.74837,-0.10266 35.84173,0.50415 42.375,5.15625 1.59263,1.13405 6.36257,2.74696 10.625,3.5625 15.7065,3.00515 15.81087,3.23749 14.96875,40.9375 -0.35628,15.95 -0.57104,38.675 -0.46875,50.5 0.2479,28.65568 0.29914,27.84907 -2.25,30.5625 -1.8655,1.98573 -1.98373,2.60157 -0.875,3.9375 0.82422,0.99313 1.46477,5.38131 1.71875,11.78125 0.34459,8.68293 0.10586,10.73458 -1.53125,13.6875 -2.45583,4.42968 -5.85731,6.94192 -10.25,7.59375 -3.28379,0.48729 -3.77371,0.13204 -8.96875,-6.125 -3.025,-3.64338 -6.51125,-8.03904 -7.75,-9.78125 -1.23875,-1.74222 -3.15125,-4.21578 -4.25,-5.5 -1.09875,-1.28422 -2,-2.91298 -2,-3.625 0,-0.71202 -2.0341,-2.94812 -4.5,-4.96875 l -4.46875,-3.6875 -14.28125,0.9375 c -13.9695,0.92856 -26.60582,0.83633 -55.75,-0.46875 -20.87852,-0.93494 -20.06442,-1.02807 -22.6875,2.25 -1.26928,1.58623 -2.31625,3.80625 -2.34375,4.90625 -0.087,3.47484 -2.37792,7.52647 -4.96875,8.8125 -1.82859,0.90768 -2.52065,2.07501 -2.59375,4.375 -0.055,1.72946 -0.83692,4.67293 -1.71875,6.53125 -0.88183,1.85832 -2.41808,4.08088 -3.40625,4.9375 -1.63306,1.41566 -2.18812,1.36886 -6.09375,-0.375 -6.27981,-2.80391 -6.60479,-4.72287 -3.09375,-16.96875 1.63053,-5.68699 4.4885,-14.8125 6.375,-20.3125 3.42606,-9.98851 3.42704,-10.02241 3.53125,-29.5 0.0573,-10.725 0.0943,-22.9875 0.0625,-27.25 l -0.0625,-7.75 -2.9375,0 c -1.85535,0 -3.48008,0.77146 -4.40625,2.09375 l -1.46875,2.09375 -1.15625,-2.15625 c -0.95185,-1.77855 -1.55365,-12.41935 -1.1875,-21.53125 0.0442,-1.1 -0.16251,-4.80957 -0.46875,-8.21875 -1.12608,-12.53551 2.49662,-24.28125 7.46875,-24.28125 0.82047,0 4.73934,-2.051 8.71875,-4.53125 12.13524,-7.56355 9.65834,-7.25197 63.03125,-7.53125 6.45239,-0.0338 12.09845,-0.0791 17.0625,-0.0937 z m 45.71875,77 c -0.59118,0.10145 -1.40938,1.34107 -1.4375,2.90625 -0.0272,1.5125 -0.62627,9.6394 -1.34375,18.0625 -1.80149,21.14937 -1.17685,23.77076 7.8125,32.75 2.79744,2.7943 5.43125,5.1568 5.84375,5.25 1.29188,0.2919 0.8162,-2.65183 -0.5,-3.09375 -0.99924,-0.33549 -1.00323,-0.88311 0,-2.8125 0.69026,-1.3275 1.44847,-5.70642 1.6875,-9.71875 0.36234,-6.08197 0.0954,-7.86535 -1.625,-10.78125 -1.13498,-1.92365 -1.78261,-3.77989 -1.4375,-4.125 0.34511,-0.34511 -0.0407,-1.64946 -0.84375,-2.875 -0.80301,-1.22555 -1.63002,-4.44603 -1.84375,-7.15625 -0.21374,-2.71021 -1.57107,-7.44467 -3.03125,-10.53125 -1.46019,-3.08658 -2.65625,-6.0722 -2.65625,-6.65625 0,-0.92521 -0.27029,-1.27962 -0.625,-1.21875 z"
           id="path4218"
           sodipodi:nodetypes="ccccccccccccssssssssssssscccsssssssssssccccccsssssccsssssssssssssc" />
        <path
           style="fill:#656565"
           d="m 862.89288,280.65238 c 0.4426,0.34297 1.76783,0.75156 4.25,1.5 3.01416,0.90885 9.74375,2.39478 14.96875,3.28125 1.49381,0.25344 2.89255,0.50489 4.21875,0.78125 -7.21518,-3.19821 -14.23996,-4.67427 -23.4375,-5.5625 z m -97.125,1.0625 c -3.70963,0.55014 -7.31773,1.45009 -11.0625,2.90625 -4.85438,1.82301 -9.67058,3.89916 -13.46875,6.96875 1.6524,-1.02416 3.71716,-2.03695 5.59375,-2.71875 3.18453,-1.15699 9.56436,-3.52869 14.1875,-5.28125 2.099,-0.7957 3.63306,-1.40675 4.75,-1.875 z m -30.875,18.75 c -0.27327,0.81778 -0.51598,1.65717 -0.6875,2.5625 l -0.15625,19.375 c 0.21793,-7.68695 0.45517,-13.92295 0.65625,-16.09375 0.32979,-3.56037 0.41732,-5.23609 0.1875,-5.84375 z m 167.4375,0.21875 -0.15625,49.4375 c -0.26043,75.44285 -0.62574,87.92885 -2.65625,91.9375 -2.21091,4.36478 -4.31568,6.61586 -7.90625,8.53125 -2.66201,1.42005 -11.36437,1.63926 -76.875,1.875 -33.75664,0.12147 -62.24839,0.3605 -71.15625,0.5625 0.51702,0.27081 1.03153,0.4993 1.5625,0.6875 23.04951,0.91572 90.44501,0.051 135.28125,0.0937 11.08569,0.88878 19.7716,-5.01078 21.8125,-14.96875 l 1.59375,-132.375 c -0.10521,-1.97462 -0.65994,-3.92065 -1.5,-5.78125 z"
           id="path4216"
           sodipodi:nodetypes="csscccccssccccscccssscccccc" />
      </g>
      <path
         style="stroke-width:1px"
         d="m 1554.5009,736.9964 c -2.4581,2.5274 -41.3727,-20.1956 -41.3727,-25.952 0,-5.7563 38.5236,-28.8011 41.3727,-25.9519 2.8492,2.8491 -15.9849,14.0146 -15.9849,25.9519 0,11.9375 18.4431,23.4247 15.9849,25.952 z"
         id="path3445"
         sodipodi:nodetypes="czzzz" />
    </g>
    <text
       xml:space="preserve"
       style="font-size:24px;font-style:normal;font-variant:normal;font-weight:bold;font-stretch:normal;font-family:Liberation Sans;-inkscape-font-specification:Bitstream Vera Sans"
       x="399.39948"
       y="739.07568"
       id="text4317"><tspan
         sodipodi:role="line"
         id="tspan4319"
         x="399.39948"
         y="739.07568">-</tspan></text>
    <text
       xml:space="preserve"
       style="font-size:18px;font-style:normal;font-variant:normal;font-weight:bold;font-stretch:normal;font-family:Liberation Sans;-inkscape-font-specification:Bitstream Vera Sans Bold"
       x="325.27277"
       y="738.20703"
       id="text4321"><tspan
         sodipodi:role="line"
         id="tspan4323"
         x="325.27277"
         y="738.20703">Esc</tspan></text>
    <text
       xml:space="preserve"
       style="font-size:33.02235413px;font-style:normal;font-variant:normal;font-weight:bold;font-stretch:normal;fill:#ffffff;stroke:#000000;stroke-width:2;stroke-miterlimit:4;stroke-opacity:1;stroke-dasharray:none;font-family:Liberation Sans;-inkscape-font-specification:Bitstream Vera Sans Bold"
       x="810.70349"
       y="740.39386"
       id="text4325"
       transform="scale(0.98791142,1.0122365)"><tspan
         sodipodi:role="line"
         id="tspan4327"
         x="810.70349"
         y="740.39386"
         style="stroke-width:2">ToDoSo</tspan></text>
  </g>
  <g
     inkscape:groupmode="layer"
     id="layer6"
     inkscape:label="zoom"
     style="display:inline"
     sodipodi:insensitive="true">
    <rect
       style="fill:#ffffff;fill-opacity:0;stroke:none"
       id="rect3788"
       width="700"
       height="437.5"
       x="293.17606"
       y="453.00964"
       inkscape:export-filename="/home/lrbabe/workspace/todoso/website/image/player fullscreen zoom2 navigation_thumbnail.png"
       inkscape:export-xdpi="25.714285"
       inkscape:export-ydpi="25.714285" />
  </g>
  <g
     inkscape:groupmode="layer"
     id="layer5"
     inkscape:label="cursor play"
     sodipodi:insensitive="true"
     style="display:none">
    <path
       style="fill:#ffffff;stroke:#000000;stroke-width:2;stroke-miterlimit:4;stroke-opacity:1;stroke-dasharray:none"
       d="m 646.28625,755.42385 5.66302,-6.458 3.80905,9.29519 4.22741,-1.87929 -3.80911,-9.29517 8.39486,0.20876 -18.23549,-18.12498 -0.0507,26.25352 z"
       id="path4826" />
    <rect
       style="fill:#4d4d4d;fill-opacity:0.50196078;stroke:none"
       id="rect4830"
       width="170"
       height="29.698486"
       x="558.89832"
       y="766.97308"
       rx="18.384777"
       ry="18.384777" />
    <text
       xml:space="preserve"
       style="font-size:24px;fill:#ffffff"
       x="618.04675"
       y="788.44342"
       id="text4832"><tspan
         sodipodi:role="line"
         id="tspan4834"
         x="618.04675"
         y="788.44342">Play</tspan></text>
  </g>
  <g
     inkscape:label="cursor navigation"
     id="g4836"
     inkscape:groupmode="layer"
     sodipodi:insensitive="true"
     style="display:none">
    <path
       id="path4838"
       d="m 406.42205,755.42385 5.66302,-6.458 3.80905,9.29519 4.22741,-1.87929 -3.80911,-9.29517 8.39486,0.20876 -18.23549,-18.12498 -0.0507,26.25352 z"
       style="fill:#ffffff;stroke:#000000;stroke-width:2;stroke-miterlimit:4;stroke-opacity:1;stroke-dasharray:none" />
    <rect
       ry="18.384777"
       rx="18.384777"
       y="766.97308"
       x="319.03412"
       height="29.698486"
       width="170"
       id="rect4840"
       style="fill:#4d4d4d;fill-opacity:0.50196078;stroke:none" />
    <text
       id="text4842"
       y="788.44342"
       x="339.15326"
       style="font-size:24px;fill:#ffffff"
       xml:space="preserve"><tspan
         y="788.44342"
         x="339.15326"
         id="tspan4844"
         sodipodi:role="line">Navigation</tspan></text>
  </g>
  <g
     style="display:inline"
     inkscape:groupmode="layer"
     id="g2964"
     inkscape:label="cursor"
     sodipodi:insensitive="true">
    <path
       style="fill:#ffffff;stroke:#000000;stroke-width:2;stroke-miterlimit:4;stroke-opacity:1;stroke-dasharray:none"
       d="m 1013.6525,620.87969 5.663,-6.458 3.809,9.29519 4.2274,-1.87929 -3.8091,-9.29517 8.3949,0.20876 -18.2355,-18.12498 -0.051,26.25352 z"
       id="path2966" />
  </g>
</svg>
