<?xml version="1.0" encoding="UTF-8" standalone="no"?>
<!-- Created with Inkscape (http://www.inkscape.org/) -->

<svg
   xmlns:dc="http://purl.org/dc/elements/1.1/"
   xmlns:cc="http://creativecommons.org/ns#"
   xmlns:rdf="http://www.w3.org/1999/02/22-rdf-syntax-ns#"
   xmlns:svg="http://www.w3.org/2000/svg"
   xmlns="http://www.w3.org/2000/svg"
   xmlns:xlink="http://www.w3.org/1999/xlink"
   xmlns:sodipodi="http://sodipodi.sourceforge.net/DTD/sodipodi-0.dtd"
   xmlns:inkscape="http://www.inkscape.org/namespaces/inkscape"
   width="1280"
   height="800"
   id="svg2"
   version="1.1"
   inkscape:version="0.47pre0 r21549"
   sodipodi:docname="player fullscreen.svg"
   inkscape:output_extension="org.inkscape.output.svg.inkscape"
   inkscape:export-filename="/home/lrbabe/workspace/todoso/website/image/player fullscreen.png"
   inkscape:export-xdpi="42.1875"
   inkscape:export-ydpi="42.1875">
  <defs
     id="defs4">
    <inkscape:path-effect
       effect="sketch"
       id="path-effect3765"
       is_visible="true"
       nbiter_approxstrokes="1"
       strokelength="50"
       strokelength_rdm="0.3;-1959017369"
       strokeoverlap="0.3"
       strokeoverlap_rdm="0.3;1"
       ends_tolerance="0.1;1"
       parallel_offset="2;1"
       tremble_size="5;1"
       tremble_frequency="1"
       nbtangents="0"
       tgt_places_rdmness="1;1216440296"
       tgtscale="10"
       tgtlength="70"
       tgtlength_rdm="0.3;1" />
    <inkscape:path-effect
       effect="sketch"
       id="path-effect3762"
       is_visible="true"
       nbiter_approxstrokes="1"
       strokelength="50"
       strokelength_rdm="0.3;1"
       strokeoverlap="0.3"
       strokeoverlap_rdm="0.3;1"
       ends_tolerance="0.1;1"
       parallel_offset="5;1"
       tremble_size="5;1"
       tremble_frequency="1"
       nbtangents="1"
       tgt_places_rdmness="1;1"
       tgtscale="10"
       tgtlength="50"
       tgtlength_rdm="0.3;1" />
    <inkscape:path-effect
       effect="rough_hatches"
       id="path-effect3760"
       is_visible="true"
       direction="-213.5533,712.99211 , 25.035688,0"
       dist_rdm="75;1"
       growth="0"
       do_bend="true"
       bender="-213.5533,717.99211 , 5,0"
       bottom_edge_variation="8.4847126;1"
       top_edge_variation="8.4847126;1"
       bottom_tgt_variation="0;1"
       top_tgt_variation="0;1"
       scale_bf="1"
       scale_bb="1"
       scale_tf="1"
       scale_tb="1"
       top_smth_variation="0;1"
       bottom_smth_variation="0;1"
       fat_output="true"
       stroke_width_top="1"
       stroke_width_bottom="1"
       front_thickness="1"
       back_thickness="0.25" />
    <inkscape:path-effect
       effect="bend_path"
       id="path-effect4915"
       is_visible="true"
       bendpath="m 471.35459,737.94697 346.23194,0"
       prop_scale="1"
       scale_y_rel="false"
       vertical="false" />
    <linearGradient
       id="linearGradient3851">
      <stop
         style="stop-color:#ffffff;stop-opacity:1;"
         offset="0"
         id="stop3853" />
      <stop
         style="stop-color:#eeeeee;stop-opacity:1;"
         offset="1"
         id="stop3855" />
    </linearGradient>
    <inkscape:perspective
       sodipodi:type="inkscape:persp3d"
       inkscape:vp_x="0 : 526.18109 : 1"
       inkscape:vp_y="0 : 1000 : 0"
       inkscape:vp_z="744.09448 : 526.18109 : 1"
       inkscape:persp3d-origin="372.04724 : 350.78739 : 1"
       id="perspective10" />
    <inkscape:perspective
       id="perspective10-0"
       inkscape:persp3d-origin="372.04724 : 350.78739 : 1"
       inkscape:vp_z="744.09448 : 526.18109 : 1"
       inkscape:vp_y="0 : 1000 : 0"
       inkscape:vp_x="0 : 526.18109 : 1"
       sodipodi:type="inkscape:persp3d" />
    <linearGradient
       id="linearGradient3155">
      <stop
         id="stop3157"
         offset="0"
         style="stop-color:#3c3c3c;stop-opacity:1;" />
      <stop
         id="stop3159"
         offset="1"
         style="stop-color:#0a0a0a;stop-opacity:1;" />
    </linearGradient>
    <marker
       style="overflow:visible"
       id="Arrow1Mend"
       refX="0"
       refY="0"
       orient="auto"
       inkscape:stockid="Arrow1Mend">
      <path
         transform="matrix(-0.4,0,0,-0.4,-4,0)"
         style="fill-rule:evenodd;stroke:#000000;stroke-width:1pt;marker-start:none"
         d="M 0,0 5,-5 -12.5,0 5,5 0,0 z"
         id="path3217" />
    </marker>
    <linearGradient
       inkscape:collect="always"
       xlink:href="#linearGradient3851"
       id="linearGradient3857"
       x1="60"
       y1="252.36218"
       x2="60"
       y2="1052.4438"
       gradientUnits="userSpaceOnUse" />
    <inkscape:perspective
       sodipodi:type="inkscape:persp3d"
       inkscape:vp_x="0 : 0.5 : 1"
       inkscape:vp_y="0 : 1000 : 0"
       inkscape:vp_z="1 : 0.5 : 1"
       inkscape:persp3d-origin="0.5 : 0.33333333 : 1"
       id="perspective3153" />
    <inkscape:perspective
       sodipodi:type="inkscape:persp3d"
       inkscape:vp_x="0 : 0.5 : 1"
       inkscape:vp_y="0 : 1000 : 0"
       inkscape:vp_z="1 : 0.5 : 1"
       inkscape:persp3d-origin="0.5 : 0.33333333 : 1"
       id="perspective3056" />
    <filter
       height="1"
       width="1"
       y="0"
       x="0"
       inkscape:menu-tooltip="Render in shades of gray by reducing saturation to zero"
       inkscape:menu="Color"
       inkscape:label="Desaturate"
       id="filter2938"
       color-interpolation-filters="sRGB">
      <feColorMatrix
         result="result7"
         values="1 0 0 0 0 0 1 0 0 0 0 0 1 0 0 0 0 0 1 0 "
         type="matrix"
         id="feColorMatrix2940" />
      <feGaussianBlur
         stdDeviation="5"
         result="result6"
         id="feGaussianBlur2942" />
      <feComposite
         result="result8"
         in="result6"
         operator="atop"
         in2="result7"
         id="feComposite2944" />
      <feComposite
         result="fbSourceGraphic"
         operator="in"
         in2="result8"
         id="feComposite2946" />
      <feColorMatrix
         id="feColorMatrix2986"
         values="0 0 0 -1 0 0 0 0 -1 0 0 0 0 -1 0 0 0 0 1 0"
         in="fbSourceGraphic"
         result="fbSourceGraphicAlpha" />
      <feColorMatrix
         in="fbSourceGraphic"
         values="0"
         type="saturate"
         id="feColorMatrix2988" />
    </filter>
    <inkscape:perspective
       sodipodi:type="inkscape:persp3d"
       inkscape:vp_x="0 : 0.5 : 1"
       inkscape:vp_y="0 : 1000 : 0"
       inkscape:vp_z="1 : 0.5 : 1"
       inkscape:persp3d-origin="0.5 : 0.33333333 : 1"
       id="perspective2932" />
    <inkscape:path-effect
       back_thickness="0.25"
       front_thickness="1"
       stroke_width_bottom="1"
       stroke_width_top="1"
       fat_output="true"
       bottom_smth_variation="0;1"
       top_smth_variation="0;1"
       scale_tb="1"
       scale_tf="1"
       scale_bb="1"
       scale_bf="1"
       top_tgt_variation="0;1"
       bottom_tgt_variation="0;1"
       top_edge_variation="12.210851;1"
       bottom_edge_variation="12.210851;1"
       bender="644.47057,737.94697 , -8.1556678,8.1556678"
       do_bend="true"
       growth="0"
       dist_rdm="75;1"
       direction="636.31489,729.79128 , -49.793822,49.793822"
       is_visible="true"
       id="path-effect4688-4"
       effect="rough_hatches" />
    <inkscape:perspective
       sodipodi:type="inkscape:persp3d"
       inkscape:vp_x="0 : 0.5 : 1"
       inkscape:vp_y="0 : 1000 : 0"
       inkscape:vp_z="1 : 0.5 : 1"
       inkscape:persp3d-origin="0.5 : 0.33333333 : 1"
       id="perspective4712" />
    <inkscape:perspective
       sodipodi:type="inkscape:persp3d"
       inkscape:vp_x="0 : 0.5 : 1"
       inkscape:vp_y="0 : 1000 : 0"
       inkscape:vp_z="1 : 0.5 : 1"
       inkscape:persp3d-origin="0.5 : 0.33333333 : 1"
       id="perspective4637" />
    <inkscape:perspective
       sodipodi:type="inkscape:persp3d"
       inkscape:vp_x="0 : 0.5 : 1"
       inkscape:vp_y="0 : 1000 : 0"
       inkscape:vp_z="1 : 0.5 : 1"
       inkscape:persp3d-origin="0.5 : 0.33333333 : 1"
       id="perspective4605-4" />
    <inkscape:perspective
       sodipodi:type="inkscape:persp3d"
       inkscape:vp_x="0 : 0.5 : 1"
       inkscape:vp_y="0 : 1000 : 0"
       inkscape:vp_z="1 : 0.5 : 1"
       inkscape:persp3d-origin="0.5 : 0.33333333 : 1"
       id="perspective4605" />
    <inkscape:perspective
       sodipodi:type="inkscape:persp3d"
       inkscape:vp_x="0 : 0.5 : 1"
       inkscape:vp_y="0 : 1000 : 0"
       inkscape:vp_z="1 : 0.5 : 1"
       inkscape:persp3d-origin="0.5 : 0.33333333 : 1"
       id="perspective4583" />
    <inkscape:perspective
       sodipodi:type="inkscape:persp3d"
       inkscape:vp_x="0 : 0.5 : 1"
       inkscape:vp_y="0 : 1000 : 0"
       inkscape:vp_z="1 : 0.5 : 1"
       inkscape:persp3d-origin="0.5 : 0.33333333 : 1"
       id="perspective4038" />
    <inkscape:perspective
       sodipodi:type="inkscape:persp3d"
       inkscape:vp_x="0 : 0.5 : 1"
       inkscape:vp_y="0 : 1000 : 0"
       inkscape:vp_z="1 : 0.5 : 1"
       inkscape:persp3d-origin="0.5 : 0.33333333 : 1"
       id="perspective4024" />
    <filter
       height="1"
       width="1"
       y="0"
       x="0"
       color-interpolation-filters="sRGB"
       inkscape:menu-tooltip="Render in shades of gray by reducing saturation to zero"
       inkscape:menu="Color"
       inkscape:label="Desaturate"
       id="filter4006">
      <feColorMatrix
         result="result7"
         values="1 0 0 0 0 0 1 0 0 0 0 0 1 0 0 0 0 0 1 0 "
         type="matrix"
         id="feColorMatrix4008" />
      <feGaussianBlur
         stdDeviation="5"
         result="result6"
         id="feGaussianBlur4010" />
      <feComposite
         result="result8"
         in="result6"
         operator="atop"
         in2="result7"
         id="feComposite4012" />
      <feComposite
         result="fbSourceGraphic"
         operator="in"
         in2="result8"
         id="feComposite4014" />
      <feColorMatrix
         id="feColorMatrix4769"
         values="0 0 0 -1 0 0 0 0 -1 0 0 0 0 -1 0 0 0 0 1 0"
         in="fbSourceGraphic"
         result="fbSourceGraphicAlpha" />
      <feColorMatrix
         in="fbSourceGraphic"
         values="0"
         type="saturate"
         id="feColorMatrix4771" />
    </filter>
    <inkscape:perspective
       sodipodi:type="inkscape:persp3d"
       inkscape:vp_x="0 : 0.5 : 1"
       inkscape:vp_y="0 : 1000 : 0"
       inkscape:vp_z="1 : 0.5 : 1"
       inkscape:persp3d-origin="0.5 : 0.33333333 : 1"
       id="perspective4000" />
    <inkscape:perspective
       id="perspective3990"
       inkscape:persp3d-origin="372.04724 : 350.78739 : 1"
       inkscape:vp_z="744.09448 : 526.18109 : 1"
       inkscape:vp_y="0 : 1000 : 0"
       inkscape:vp_x="0 : 526.18109 : 1"
       sodipodi:type="inkscape:persp3d" />
    <inkscape:path-effect
       back_thickness="6"
       front_thickness="8"
       stroke_width_bottom="1"
       stroke_width_top="1"
       fat_output="true"
       bottom_smth_variation="0;1"
       top_smth_variation="0;1"
       scale_tb="1"
       scale_tf="1"
       scale_bb="1"
       scale_bf="1"
       top_tgt_variation="0;1"
       bottom_tgt_variation="0;1"
       top_edge_variation="2.259051;1"
       bottom_edge_variation="2.259051;1"
       bender="471.83314,563.6836 , 5,-3.9248119e-16"
       do_bend="true"
       growth="0"
       dist_rdm="75;270385171"
       direction="471.83314,558.6836 , 37.52263,-2.9453853e-15"
       is_visible="true"
       id="path-effect4685"
       effect="rough_hatches" />
    <inkscape:path-effect
       back_thickness="0.25"
       front_thickness="1"
       stroke_width_bottom="1"
       stroke_width_top="1"
       fat_output="true"
       bottom_smth_variation="0;1"
       top_smth_variation="0;1"
       scale_tb="1"
       scale_tf="1"
       scale_bb="1"
       scale_bf="1"
       top_tgt_variation="0;1"
       bottom_tgt_variation="0;1"
       top_edge_variation="12.210851;1"
       bottom_edge_variation="12.210851;1"
       bender="644.47054,737.94698 , 3.1466674,4.0459753"
       do_bend="true"
       growth="0"
       dist_rdm="75;1"
       direction="647.61721,733.90098 , 19.211744,24.7024"
       is_visible="false"
       id="path-effect4688"
       effect="rough_hatches" />
    <inkscape:path-effect
       tgtlength_rdm="0.3;1"
       tgtlength="80"
       tgtscale="10"
       tgt_places_rdmness="1;-1948471300"
       nbtangents="8"
       tremble_frequency="1"
       tremble_size="3;1"
       parallel_offset="2;-289350382"
       ends_tolerance="0.1;1"
       strokeoverlap_rdm="0.3;1"
       strokeoverlap="0.3"
       strokelength_rdm="0.3;1"
       strokelength="60"
       nbiter_approxstrokes="2"
       is_visible="true"
       id="path-effect4752"
       effect="sketch" />
    <inkscape:path-effect
       tgtlength_rdm="0.3;1"
       tgtlength="100"
       tgtscale="10"
       tgt_places_rdmness="1;1"
       nbtangents="0"
       tremble_frequency="1"
       tremble_size="1;1"
       parallel_offset="0;1"
       ends_tolerance="0.1;1"
       strokeoverlap_rdm="0.3;1"
       strokeoverlap="0.3"
       strokelength_rdm="0.3;1"
       strokelength="20"
       nbiter_approxstrokes="1"
       is_visible="true"
       id="path-effect4754"
       effect="sketch" />
    <inkscape:path-effect
       tgtlength_rdm="0.3;1"
       tgtlength="100"
       tgtscale="10"
       tgt_places_rdmness="1;1"
       nbtangents="0"
       tremble_frequency="1"
       tremble_size="1;758124198"
       parallel_offset="0;1"
       ends_tolerance="0.1;1"
       strokeoverlap_rdm="0.3;1"
       strokeoverlap="0.3"
       strokelength_rdm="0.3;1"
       strokelength="20"
       nbiter_approxstrokes="1"
       is_visible="true"
       id="path-effect4756"
       effect="sketch" />
    <inkscape:path-effect
       tgtlength_rdm="0.3;1"
       tgtlength="100"
       tgtscale="10"
       tgt_places_rdmness="1;1"
       nbtangents="0"
       tremble_frequency="1"
       tremble_size="1;1"
       parallel_offset="0;1"
       ends_tolerance="0.1;1"
       strokeoverlap_rdm="0.3;1"
       strokeoverlap="0.3"
       strokelength_rdm="0.3;1"
       strokelength="20"
       nbiter_approxstrokes="2"
       is_visible="true"
       id="path-effect4760"
       effect="sketch" />
    <inkscape:path-effect
       tgtlength_rdm="0.3;1"
       tgtlength="100"
       tgtscale="10"
       tgt_places_rdmness="1;1"
       nbtangents="0"
       tremble_frequency="1"
       tremble_size="1;2128881214"
       parallel_offset="0;1"
       ends_tolerance="0.1;1"
       strokeoverlap_rdm="0.3;1"
       strokeoverlap="0.3"
       strokelength_rdm="0.3;1"
       strokelength="20"
       nbiter_approxstrokes="1"
       is_visible="true"
       id="path-effect4762"
       effect="sketch" />
    <inkscape:path-effect
       tgtlength_rdm="0.3;1"
       tgtlength="100"
       tgtscale="10"
       tgt_places_rdmness="1;1"
       nbtangents="0"
       tremble_frequency="1"
       tremble_size="1;203897216"
       parallel_offset="0;1"
       ends_tolerance="0.1;1"
       strokeoverlap_rdm="0.3;1"
       strokeoverlap="0.3"
       strokelength_rdm="0.3;1"
       strokelength="20"
       nbiter_approxstrokes="1"
       is_visible="true"
       id="path-effect4765"
       effect="sketch" />
    <inkscape:path-effect
       tgtlength_rdm="0.3;1"
       tgtlength="100"
       tgtscale="10"
       tgt_places_rdmness="1;1"
       nbtangents="0"
       tremble_frequency="1"
       tremble_size="1;1571510750"
       parallel_offset="0;1937242858"
       ends_tolerance="0.1;1839034513"
       strokeoverlap_rdm="0.3;252978155"
       strokeoverlap="0.3"
       strokelength_rdm="0.3;1741417890"
       strokelength="20"
       nbiter_approxstrokes="1"
       is_visible="true"
       id="path-effect4767"
       effect="sketch" />
    <filter
       id="filter4931"
       inkscape:label="Inkblot"
       inkscape:menu="Textures"
       inkscape:menu-tooltip="Inkblot on tissue or rough paper"
       height="1.3"
       y="-0.15000001"
       width="1.3"
       x="-0.15000001">
      <feGaussianBlur
         id="feGaussianBlur4933"
         result="result1"
         in="SourceGraphic"
         stdDeviation="4" />
      <feTurbulence
         id="feTurbulence4935"
         result="result0"
         numOctaves="4"
         baseFrequency="0.050000000000000003"
         type="fractalNoise" />
      <feDisplacementMap
         id="feDisplacementMap4937"
         in2="result0"
         result="result2"
         scale="20"
         yChannelSelector="G"
         xChannelSelector="R"
         in="result1" />
      <feGaussianBlur
         id="feGaussianBlur4939"
         result="result4"
         in="SourceGraphic"
         stdDeviation="3" />
      <feComposite
         id="feComposite4941"
         in2="result2"
         in="result4"
         operator="arithmetic"
         k2="-0.25"
         k3="0.5"
         k1="1.5"
         result="result5" />
    </filter>
    <radialGradient
       inkscape:collect="always"
       xlink:href="#linearGradient3155"
       id="radialGradient2923"
       gradientUnits="userSpaceOnUse"
       gradientTransform="matrix(1,0,0,0.75000002,733.14288,1176.153)"
       cx="-92.809509"
       cy="-698.38776"
       fx="-92.809509"
       fy="-698.38776"
       r="512" />
  </defs>
  <sodipodi:namedview
     id="base"
     pagecolor="#ffffff"
     bordercolor="#666666"
     borderopacity="1.0"
     inkscape:pageopacity="0.0"
     inkscape:pageshadow="2"
     inkscape:zoom="0.484375"
     inkscape:cx="489.35935"
     inkscape:cy="454.52055"
     inkscape:document-units="px"
     inkscape:current-layer="layer6"
     showgrid="false"
     inkscape:window-width="1280"
     inkscape:window-height="776"
     inkscape:window-x="0"
     inkscape:window-y="24"
     inkscape:window-maximized="1" />
  <metadata
     id="metadata7">
    <rdf:RDF>
      <cc:Work
         rdf:about="">
        <dc:format>image/svg+xml</dc:format>
        <dc:type
           rdf:resource="http://purl.org/dc/dcmitype/StillImage" />
        <dc:title></dc:title>
      </cc:Work>
    </rdf:RDF>
  </metadata>
  <g
     inkscape:label="background"
     inkscape:groupmode="layer"
     id="layer1"
     transform="translate(0,-252.36218)"
     sodipodi:insensitive="true">
    <rect
       style="fill:url(#linearGradient3857);fill-opacity:1;stroke:none"
       id="rect3825"
       width="1280"
       height="800"
       x="0"
       y="252.36218" />
  </g>
  <g
     inkscape:groupmode="layer"
     id="layer2"
     inkscape:label="slide"
     transform="translate(0,-252.36218)"
     sodipodi:insensitive="true">
    <rect
       style="fill:url(#radialGradient2923);fill-opacity:1;stroke:none"
       id="rect2383"
       width="1066.6667"
       height="800"
       x="107"
       y="252.36215"
       rx="0"
       ry="0" />
    <text
       xml:space="preserve"
       style="font-size:50px;font-style:normal;font-variant:normal;font-weight:bold;font-stretch:normal;text-indent:0;text-align:start;text-decoration:none;line-height:normal;letter-spacing:normal;word-spacing:normal;text-transform:none;direction:ltr;block-progression:tb;writing-mode:lr-tb;text-anchor:start;fill:#000000;fill-opacity:1;fill-rule:nonzero;stroke:none;stroke-width:1px;marker:none;visibility:visible;display:inline;overflow:visible;enable-background:accumulate;font-family:Century Schoolbook L;-inkscape-font-specification:Century Schoolbook L Medium"
       x="178.39648"
       y="357.12405"
       id="text3167"><tspan
         sodipodi:role="line"
         id="tspan3169"
         x="178.39648"
         y="357.12405">A Cat's Guide to World Dominashun</tspan></text>
    <text
       xml:space="preserve"
       style="font-size:50px;font-style:normal;font-variant:normal;font-weight:bold;font-stretch:normal;text-indent:0;text-align:start;text-decoration:none;line-height:normal;letter-spacing:normal;word-spacing:normal;text-transform:none;direction:ltr;block-progression:tb;writing-mode:lr-tb;text-anchor:start;fill:#ffffff;fill-opacity:1;fill-rule:nonzero;stroke:none;stroke-width:1px;marker:none;visibility:visible;display:inline;overflow:visible;enable-background:accumulate;font-family:Century Schoolbook L;-inkscape-font-specification:Century Schoolbook L Medium"
       x="174.22981"
       y="352.9574"
       id="text3163"><tspan
         sodipodi:role="line"
         id="tspan3165"
         x="174.22981"
         y="352.9574">A Cat's Guide to World Dominashun</tspan></text>
    <rect
       style="fill:#808080;fill-opacity:1;stroke:none"
       id="rect3171"
       width="930.05951"
       height="4.4642859"
       x="175.30359"
       y="368.43359" />
    <text
       xml:space="preserve"
       style="font-size:37.5px;font-style:normal;font-variant:normal;font-weight:normal;font-stretch:normal;text-indent:0;text-align:start;text-decoration:none;line-height:normal;letter-spacing:normal;word-spacing:normal;text-transform:none;direction:ltr;block-progression:tb;writing-mode:lr-tb;text-anchor:start;fill:#ffffff;fill-opacity:1;fill-rule:nonzero;stroke:none;stroke-width:1px;marker:none;visibility:visible;display:inline;overflow:visible;enable-background:accumulate;font-family:Century Schoolbook L;-inkscape-font-specification:Century Schoolbook L Bold"
       x="218.7567"
       y="493.69196"
       id="text3173"><tspan
         sodipodi:role="line"
         id="tspan3175"
         x="218.7567"
         y="493.69196"
         style="font-size:37.5px;font-style:normal;-inkscape-font-specification:Century Schoolbook L Bold">Be careful, some are already suspicious:</tspan></text>
    <text
       xml:space="preserve"
       style="font-size:37.5px;font-style:normal;font-variant:normal;font-weight:normal;font-stretch:normal;text-indent:0;text-align:start;text-decoration:none;line-height:normal;letter-spacing:normal;word-spacing:normal;text-transform:none;direction:ltr;block-progression:tb;writing-mode:lr-tb;text-anchor:start;fill:#ffffff;fill-opacity:1;fill-rule:nonzero;stroke:none;stroke-width:1px;marker:none;visibility:visible;display:inline;overflow:visible;enable-background:accumulate;font-family:Century Schoolbook L;-inkscape-font-specification:Century Schoolbook L Bold"
       x="238.39017"
       y="644.59833"
       id="text3181"><tspan
         sodipodi:role="line"
         x="238.39017"
         y="644.59833"
         id="tspan5037"
         style="font-style:italic">&quot;In ancient times, cats were worshiped as gods. </tspan><tspan
         sodipodi:role="line"
         x="238.39017"
         y="691.47333"
         id="tspan2552"
         style="font-style:italic">They have never forgotten this.&quot; </tspan></text>
    <path
       sodipodi:type="arc"
       style="fill:#ffffff;fill-opacity:1;stroke:none"
       id="path5029"
       sodipodi:cx="64.649765"
       sodipodi:cy="303.32983"
       sodipodi:rx="10.101525"
       sodipodi:ry="10.101525"
       d="m 74.75129,303.32983 a 10.101525,10.101525 0 1 1 -20.20305,0 10.101525,10.101525 0 1 1 20.20305,0 z"
       transform="matrix(0.46875001,0,0,0.46875001,170.8711,341.75159)" />
    <text
       xml:space="preserve"
       style="font-size:50px;font-style:normal;font-variant:normal;font-weight:bold;font-stretch:normal;text-indent:0;text-align:start;text-decoration:none;line-height:normal;letter-spacing:normal;word-spacing:normal;text-transform:none;direction:ltr;block-progression:tb;writing-mode:lr-tb;text-anchor:start;fill:#ff0000;fill-opacity:1;fill-rule:nonzero;stroke:none;stroke-width:1px;marker:none;visibility:visible;display:inline;overflow:visible;enable-background:accumulate;font-family:Century Schoolbook L;-inkscape-font-specification:Century Schoolbook L Medium"
       x="1099.2645"
       y="1001.6431"
       id="text5083"><tspan
         sodipodi:role="line"
         id="tspan5085"
         x="1099.2645"
         y="1001.6431">2</tspan></text>
    <text
       xml:space="preserve"
       style="font-size:37.5px;font-style:normal;font-variant:normal;font-weight:normal;font-stretch:normal;text-indent:0;text-align:start;text-decoration:none;line-height:normal;letter-spacing:normal;word-spacing:normal;text-transform:none;direction:ltr;block-progression:tb;writing-mode:lr-tb;text-anchor:start;fill:#ffffff;fill-opacity:1;fill-rule:nonzero;stroke:none;stroke-width:1px;marker:none;visibility:visible;display:inline;overflow:visible;enable-background:accumulate;font-family:Century Schoolbook L;-inkscape-font-specification:Century Schoolbook L Bold"
       x="707.24628"
       y="743.10828"
       id="text2558"><tspan
         sodipodi:role="line"
         x="707.24628"
         y="743.10828"
         id="tspan2562"
         style="font-weight:normal;-inkscape-font-specification:Century Schoolbook L Italic"
         transform="translate(479.63846,0)">― Terry Pratchett</tspan></text>
  </g>
  <g
     inkscape:groupmode="layer"
     id="layer4"
     inkscape:label="controls"
     sodipodi:insensitive="true">
    <rect
       style="fill:#000000;stroke:#ffffff;stroke-width:1;stroke-miterlimit:4;stroke-opacity:1;stroke-dasharray:none"
       id="rect3725"
       width="507.87094"
       height="205.41936"
       x="-613.16132"
       y="614.19354" />
    <g
       id="layer3"
       inkscape:label="placeholder"
       style="display:none"
       transform="translate(-511.42859,1054.3622)">
      <text
         xml:space="preserve"
         style="font-size:8.44700432px;font-style:normal;font-weight:normal;fill:#ffffff;fill-opacity:1;stroke:none;font-family:Bitstream Vera Sans"
         x="509.0452"
         y="566.70691"
         id="text4660"><tspan
           sodipodi:role="line"
           id="tspan4662"
           x="509.0452"
           y="566.70691">ToDoSo</tspan></text>
      <rect
         style="fill:none;stroke:#ffffff;stroke-width:1;stroke-miterlimit:4;stroke-opacity:1;stroke-dasharray:none"
         id="rect4056"
         width="150.09052"
         height="22.590511"
         x="396.7879"
         y="552.38837" />
      <path
         style="stroke:#ffffff;stroke-width:0.99999994px;stroke-opacity:1"
         d="m 464.64834,556.54076 0,14.28572 13.50583,-7.14286 -13.50583,-7.14286 z"
         id="path4573"
         sodipodi:nodetypes="cccc" />
      <path
         style="stroke:#ffffff;stroke-width:0.99999994px;stroke-opacity:1"
         d="m 457.40745,559.55152 0,8.26421 -7.79155,-4.13211 7.79155,-4.1321 z"
         id="path4573-1"
         sodipodi:nodetypes="cccc" />
      <path
         style="stroke:#ffffff;stroke-width:0.99999994px;stroke-opacity:1"
         d="m 437.375,559.55862 -7.78125,4.125 7.78125,4.125 0,-2.65625 5,2.65625 0,-8.25 -5,2.65625 0,-2.65625 z"
         id="path4573-1-7" />
      <path
         style="stroke:#ffffff;stroke-width:0.99999994px;stroke-opacity:1"
         d="m 490.39508,559.55862 7.78125,4.125 -7.78125,4.125 0,-2.65625 -5,2.65625 0,-8.25 5,2.65625 0,-2.65625 z"
         id="path4573-1-7-9" />
      <g
         id="g4656"
         transform="matrix(0.61712067,0,0,0.61712067,147.9857,238.67041)">
        <rect
           y="517.10712"
           x="411.78571"
           height="12.321428"
           width="17.5"
           id="rect4651"
           style="fill:none;stroke:#ffffff;stroke-width:1.62042868;stroke-miterlimit:4;stroke-opacity:1;stroke-dasharray:none" />
        <path
           sodipodi:nodetypes="ccccc"
           id="path4653"
           d="m 420.5357,529.60714 0,4.28572 4.64285,2.32143 -4.64285,-2.32143 -4.64285,2.32143"
           style="fill:none;stroke:#ffffff;stroke-width:1.62042868px;stroke-opacity:1" />
      </g>
    </g>
    <path
       inkscape:original-d="m 577.67792,725.01911 0,25.85574 133.58524,0 0,-25.85574 -133.58524,0 z"
       inkscape:path-effect="#path-effect4688"
       id="rect4666"
       d="m 577.67792,725.01911 0,25.85574 133.58524,0 0,-25.85574 -133.58524,0 z"
       style="fill:#4d4d4d;fill-opacity:1;stroke:none;filter:url(#filter4931)"
       transform="matrix(4.4851349,0,0,2.0374901,-2246.0667,-765.61265)" />
    <path
       style="font-size:19.48530579px;font-style:normal;font-weight:normal;fill:#ffffff;fill-opacity:1;stroke:none;font-family:purisa"
       d="m 857.33549,730.74326 c 4.00553,0 8.01105,0 12.01658,0 0.0111,0.88733 0.28471,2.03706 -1.01109,1.61743 -1.34383,0 -2.68767,0 -4.0315,0 0,4.19581 0,8.39162 0,12.58743 -0.71004,-0.1745 -2.28363,0.51456 -1.9314,-0.72221 0,-3.95507 0,-7.91015 0,-11.86522 -1.68087,0 -3.36173,0 -5.04259,0 0,-0.53915 0,-1.07829 0,-1.61743 z m 14.6235,4.77618 c -2.69656,-0.0209 -3.42076,3.31014 -2.93086,5.43074 0.10627,2.24811 2.95132,3.70552 4.7023,2.16881 1.74598,-1.79491 1.74298,-5.1767 0,-6.97338 -0.48254,-0.42856 -1.13179,-0.63337 -1.77144,-0.62617 z m 0,-1.48423 c 3.19388,-0.25776 5.23055,3.02266 4.88526,5.91708 0.2423,3.19639 -2.77443,6.03544 -5.9699,5.17898 -3.54624,-0.57205 -4.40242,-4.90241 -3.48223,-7.84216 0.54593,-2.0156 2.49576,-3.35794 4.56687,-3.2539 z m 9.78071,-1.71258 c 0,3.68204 0,7.36408 0,11.04611 2.51927,-0.031 5.66694,0.37804 7.22135,-2.09433 1.12918,-2.34348 1.18025,-5.58062 -0.59939,-7.61978 -1.79577,-1.67121 -4.37907,-1.27722 -6.62196,-1.332 z m -1.92189,-1.57937 c 3.46142,0.1239 7.47239,-0.62207 10.24293,1.94374 2.12837,2.39191 2.1043,6.14207 0.93934,8.97319 -1.5392,3.1415 -5.45615,3.38463 -8.53381,3.28793 -0.88282,0 -1.76564,0 -2.64846,0 0,-4.73495 0,-9.46991 0,-14.20486 z m 19.04764,4.77618 c -2.69655,-0.0209 -3.42075,3.31014 -2.93085,5.43074 0.10627,2.24811 2.95132,3.70552 4.7023,2.16881 1.74598,-1.79491 1.74298,-5.1767 0,-6.97338 -0.48255,-0.42856 -1.13179,-0.63337 -1.77145,-0.62617 z m 0,-1.48423 c 3.19389,-0.25776 5.23056,3.02266 4.88527,5.91708 0.24229,3.19639 -2.77443,6.03544 -5.9699,5.17898 -3.54624,-0.57205 -4.40242,-4.90241 -3.48224,-7.84216 0.54594,-2.0156 2.49577,-3.35794 4.56687,-3.2539 z m 16.37413,-2.82575 c 0.1177,1.39972 0.11086,2.47488 -1.57165,1.23924 -2.17905,-1.14454 -6.88138,-0.14645 -5.32444,3.09453 1.96068,1.69047 5.2613,0.77302 6.96566,2.99373 1.71098,2.17759 0.58944,5.97883 -2.30544,6.42067 -2.23352,0.5161 -4.96917,0.28637 -6.8503,-0.7819 -0.25675,-1.71114 0.1688,-2.10367 1.72863,-1.03176 2.24759,1.16631 7.11963,0.63362 6.04456,-2.90543 -1.30068,-2.23312 -4.43289,-1.32056 -6.31452,-2.73239 -2.64572,-1.61638 -1.6363,-6.20612 1.38849,-6.74861 2.05149,-0.55711 4.25332,-0.19314 6.23901,0.45192 z m 7.90639,4.30998 c -2.69655,-0.0209 -3.42075,3.31014 -2.93085,5.43074 0.10627,2.24811 2.95131,3.70552 4.70229,2.16881 1.74598,-1.79491 1.74298,-5.1767 0,-6.97338 -0.48254,-0.42856 -1.13178,-0.63337 -1.77144,-0.62617 z m 0,-1.48423 c 3.19389,-0.25776 5.23056,3.02266 4.88526,5.91708 0.2423,3.19639 -2.77442,6.03544 -5.96989,5.17898 -3.54624,-0.57205 -4.40243,-4.90241 -3.48224,-7.84216 0.54593,-2.0156 2.49577,-3.35794 4.56687,-3.2539 z"
       id="text4731" />
    <path
       inkscape:original-d="m 346.59162,711.91851 596.03611,0 0,52.11114 -596.03611,0 0,-52.11114 z"
       inkscape:path-effect="#path-effect4752"
       id="rect4735"
       d="m 352.43591,715.44161 c 16.79543,-0.54002 32.26952,-0.20287 47.78205,-0.0691 m -15.15333,-1.06355 c 14.06598,-0.24086 28.845,-0.0325 43.87569,0.26403 m -9.21477,-0.90466 c 14.26787,-0.25638 29.59343,-0.60733 44.92202,-1.45376 m -11.93045,0.82145 c 19.88424,0.6385 38.44031,0.38966 58.06783,0.97956 m -16.68406,-1.4567 c 16.44391,-0.41706 34.69931,-0.46952 53.69927,-1.08501 m -13.4686,2.98397 c 14.83458,0.42999 31.04892,-0.70677 47.80861,-2.64079 m -17.35205,0.35927 c 14.50042,0.006 30.22636,-0.15514 46.43327,-0.48033 m -6.2392,-2.13696 c 14.3318,-0.13684 27.83034,0.44954 40.90361,1.56689 m -4.47802,5.1912 c 18.926,0.34509 36.67848,-0.6177 54.5583,-2.04157 m -19.55411,-3.91128 c 17.83329,0.83838 36.93317,0.80903 56.36597,2.03421 m -12.14621,3.4811 c 17.246,0.23738 33.18534,-0.0105 49.42713,-0.28861 m -16.13264,-3.28158 c 18.86541,0.4708 36.13394,-0.38285 53.86178,-1.42927 m -16.95453,-3.35215 c 17.35202,0.15717 34.17138,1.40347 51.79456,4.0882 m -10.22513,-4.11124 c 14.14044,0.71784 28.65186,1.26388 42.63182,2.79051 m -8.56269,3.9431 c 15.89702,-0.43188 31.15311,-0.20419 45.96932,-0.10606 m -11.06939,-1.79182 c 13.26005,0.37918 27.18831,0.53083 41.48205,0.96579 0.29038,5.00611 0.62802,10.04886 0.99884,15.152 m -0.57076,-13.52412 c 0.19718,0.004 0.39429,0.008 0.59132,0.0114 0.32644,17.69387 0.0907,33.79723 0.0743,49.09945 -1.89895,-0.22588 -3.79528,-0.46132 -5.68798,-0.70528 m 4.67272,-10.84101 c 0.0118,3.87393 0.0319,7.75248 0.0617,11.64541 -15.69327,0.45635 -31.21632,1.164 -46.45728,2.83633 m 12.42752,-1.35715 c -16.34735,0.14744 -32.05776,-0.30987 -46.919,-1.06475 m 9.99196,0.40819 c -17.41852,-0.40134 -34.96846,-0.41385 -51.14288,-1.02097 m 14.28896,3.90389 c -18.64766,-0.22154 -37.91529,-0.63711 -57.13267,-1.86366 m 13.46967,-2.23828 c -20.16762,-0.96397 -38.72111,0.41093 -57.25197,1.30633 m 16.08131,1.93617 c -18.89354,-0.33337 -37.85418,-1.66089 -56.77085,-4.86327 m 16.65663,3.94928 c -20.24744,-0.20958 -39.26838,-0.0641 -58.16521,-0.18529 m 18.80693,-4.86886 c -17.4124,0.77067 -35.93697,1.34104 -54.33915,3.60369 m 15.2629,0.88805 c -14.53065,-0.0222 -28.93318,0.23568 -43.60918,0.72663 m 11.92923,-1.95348 c -17.23946,-0.52583 -34.71387,-0.25934 -51.82214,-0.37057 m 15.30932,1.19919 c -15.54018,0.28656 -30.49613,0.0205 -45.80691,-0.33454 m 3.12213,1.70173 c -16.81886,0.33435 -33.11533,-0.82405 -48.8981,-2.78722 m 11.20353,-2.03361 c -20.26943,-0.64247 -39.29575,0.64939 -58.37748,1.98351 m 21.96628,1.07976 c -16.62533,0.73051 -32.46348,0.42143 -47.9499,0.53183 m 12.41785,-2.14938 c -16.40342,0.14242 -33.15561,0.17229 -49.86962,0.38299 m 9.15913,-0.25027 c -7.85838,-0.006 -15.9975,0.12234 -24.3379,0.38059 -0.41411,-9.96305 -1.16004,-19.71218 -2.06961,-29.25776 m 0.60353,11.09165 c -0.19374,-12.23824 -0.12704,-24.23293 -0.0182,-36.11973 3e-4,6.1e-4 6e-4,0.001 9e-4,0.002 6.72541,0.12099 13.4634,0.27458 20.17752,0.43811 m -11.62823,-0.10667 c 18.47709,0.14546 35.49743,0.91629 52.8497,2.68382 m -17.29702,0.55065 c 18.27481,0.32457 37.4675,0.0579 57.02966,0.0444 m -17.11879,-2.67786 c 13.69603,-0.66448 28.28019,-0.33109 42.84112,-9.3e-4 m -4.56411,-0.15495 c 20.26368,-0.18468 37.72464,-0.46329 53.99375,-1.34196 m -13.21505,3.92817 c 19.86862,0.33696 38.75769,0.1632 58.57679,0.36973 m -19.74024,-3.30731 c 14.63304,0.14878 29.77545,0.65706 45.4107,1.78232 m -13.08553,2.44433 c 17.05919,0.3259 36.39897,-0.43831 56.34671,-1.54081 m -18.10092,0.2746 c 18.37428,-0.75865 38.56255,0.6883 59.25022,2.35062 m -11.19609,-3.55337 c 14.91292,-0.0295 30.11838,-0.003 45.29661,0.003 m -11.93447,1.06775 c 14.67881,0.56186 30.15233,0.21838 45.28888,-0.0129 m -11.99643,-3.30012 c 13.8138,-0.16914 28.62714,-0.0215 43.43938,0.15378 m -11.10243,6.97947 c 17.6576,0.57416 36.08255,-0.36368 55.09477,-1.48511 m -14.11791,-3.60897 c 19.77271,-0.008 39.68988,0.23453 59.90835,0.75143 m -18.33509,-1.74381 c 18.76949,-0.3703 37.51278,-0.0716 57.52937,0.008 m -14.29371,-0.91378 c 18.72782,-0.15365 35.92081,-0.19973 51.55713,-0.55637 -0.2014,1.19427 -0.40937,2.38723 -0.62391,3.57876 m -11.4813,-1.89757 c 4.96969,-0.12258 9.78752,-0.24898 14.49034,-0.40041 -0.15212,13.55732 -1.30195,26.89747 -2.50816,39.47833 m 3.34306,-13.00304 c -0.16877,8.33104 -0.24586,16.95441 -0.32939,25.69347 -10.116,0.10917 -20.24064,0.37375 -30.52668,0.51875 m 13.23224,3.88703 c -16.74452,0.39071 -33.66256,-0.6143 -50.28337,-2.14089 m 10.3848,-3.79729 c -17.61237,-0.76515 -33.91835,0.79376 -50.40537,3.02926 m 12.37715,-1.15369 c -15.63829,0.1899 -30.83854,0.21192 -45.50041,0.39339 m 13.45762,0.1064 c -19.47043,-0.16784 -39.56299,-0.3309 -60.11387,-0.93998 m 16.91238,1.00278 c -16.86718,0.33545 -32.43744,0.67038 -48.00657,1.64199 m 11.12577,-0.34579 c -16.75815,-0.75267 -32.09355,0.12722 -46.80862,1.15625 m 13.6339,-2.47628 c -15.74476,-0.29544 -32.66044,0.50826 -50.68113,1.87007 m 8.41204,2.30209 c -17.28263,0.18839 -34.57258,-0.42366 -50.37313,-1.38227 m 12.20539,-2.22743 c -18.34133,-0.39777 -36.01945,0.96027 -54.80065,3.18648 m 18.31201,-1.01438 c -18.55542,0.007 -38.05538,-0.64191 -57.2555,-1.92858 m 15.644,-3.20464 c -15.52767,-0.61972 -30.3031,-0.20595 -44.75665,0.14576 m 7.08707,2.24523 c -15.02694,-0.0628 -29.4636,0.0343 -43.94502,0.19732 m 11.47865,1.09199 c -19.12013,0.37901 -36.35455,0.42927 -53.69961,1.12626 m 12.25154,-4.09517 c -14.68627,0.0626 -28.37719,0.48959 -41.28974,1.39579 m 13.73174,3.68971 c -15.50904,-0.60047 -31.10083,-0.22651 -47.01111,0.046 m 11.7146,-1.14758 c -6.62897,-0.28903 -13.54601,-0.34209 -20.66822,-0.26027 -0.29063,-7.40578 -0.82645,-14.65038 -1.49916,-21.86584 m -2.53449,9.55043 c 0.40505,-12.45365 0.6209,-25.81643 1.16258,-39.43726 0.001,-0.002 0.003,-0.003 0.004,-0.005 2.99757,-0.1459 6.01125,-0.30442 9.04667,-0.46846 m 225.01791,51.02595 -128.6875,0 m 130.04522,-52.11114 114.8125,0 m 213.36899,52.11114 -119.3125,0 m -455.40709,-52.11114 152.125,0 m -118.55479,0 135.625,0 m 407.11813,52.11114 -122.5,0 m -375.27602,0 -119.5,0 m 51.19265,44.48869 0,-112.375"
       style="fill:none;stroke:#ffffff;stroke-width:1;stroke-miterlimit:4;stroke-opacity:1;stroke-dasharray:none" />
    <path
       inkscape:original-d="m 627.90844,721.49713 0,32.95388 31.15486,-16.47694 -31.15486,-16.47694 z"
       inkscape:path-effect="#path-effect4754"
       style="fill:none;stroke:#ffffff;stroke-width:1;stroke-miterlimit:4;stroke-opacity:1;stroke-dasharray:none"
       d="m 628.21357,723.49689 c 0.23614,5.18223 0.037,10.66547 -0.15618,16.06834 m -0.62571,-4.3714 c -0.095,4.7037 0.0538,9.55353 0.27928,14.43682 m -0.62327,-3.17478 c -0.118,2.68058 -0.13209,5.34927 -0.0977,7.98693 2.01186,-1.12295 4.05656,-2.2669 6.10325,-3.4425 m -2.49561,1.69969 c 5.89239,-2.75073 11.33238,-5.79557 17.14829,-8.56337 m -5.25918,2.13815 c 4.82617,-2.78087 10.24758,-5.43291 15.9301,-8.28421 m -4.57508,3.2416 c 1.59619,-0.82261 3.25393,-1.7159 4.95973,-2.66682 -2.76887,-1.6424 -5.39435,-3.45673 -7.9459,-5.37577 m 1.75941,1.34028 c -4.54683,-2.32597 -8.68165,-4.70528 -12.66075,-7.1421 m 3.61849,1.98104 c -4.04436,-2.23443 -8.36191,-4.23122 -12.82615,-6.04727 m 3.6269,2.04383 c -1.82429,-0.95533 -3.69653,-1.962 -5.59772,-3.00923 -0.0371,3.91644 -0.17727,7.68862 -0.29276,11.38913"
       id="path4737"
       sodipodi:nodetypes="cccc" />
    <path
       inkscape:original-d="m 611.20536,728.44226 0,19.06364 -17.97332,-9.53183 17.97332,-9.53181 z"
       inkscape:path-effect="#path-effect4760"
       style="fill:none;stroke:#ffffff;stroke-width:1;stroke-miterlimit:4;stroke-opacity:1;stroke-dasharray:none"
       d="m 611.51049,730.44202 c 0.23614,5.18223 0.037,10.66547 -0.15618,16.06834 m -0.62571,-4.3714 c -0.0367,1.8204 -0.037,3.6627 -0.0104,5.52034 -2.54857,-1.36405 -5.02985,-2.68958 -7.48227,-4.00254 m 2.10617,1.36225 c -4.52135,-2.36978 -8.71018,-4.77762 -12.88362,-7.33304 0.0843,-0.0484 0.16857,-0.0969 0.25287,-0.14545 m 2.91118,1.70305 c -0.85431,-0.44354 -1.72032,-0.89469 -2.5946,-1.35107 4.8375,-2.38058 9.45027,-4.90355 14.32774,-7.23145 m -5.25628,2.14361 c 2.79143,-1.61274 5.78225,-3.18233 8.90768,-4.77237 0.002,-5.9e-4 0.005,-0.001 0.007,-0.002 0.17135,2.30541 0.41168,4.59996 0.69706,6.86013 m -0.76411,-3.93238 c -0.15891,5.24703 0.13992,9.96842 0.62309,14.42873 m -1.34964,-3.8211 c -0.0524,1.79578 -0.0512,3.58463 -0.009,5.36634 -2.73722,-1.51555 -5.34374,-3.05353 -7.88659,-4.61503 m 3.61671,1.98442 c -4.04186,-2.23915 -8.35691,-4.24066 -12.81865,-6.06143 m 3.62531,2.04682 c -0.87142,-0.45765 -1.7538,-0.92704 -2.64507,-1.40697 4.56632,-2.41815 8.90717,-5.10416 13.2882,-7.90703 m -4.86488,1.62908 c 2.89641,-1.41695 5.9244,-2.92522 9.02755,-4.40072 0.001,9.5e-4 0.003,0.002 0.004,0.003 0.11311,2.75497 0.27378,5.53163 0.4533,8.39312"
       id="path4739"
       sodipodi:nodetypes="cccc" />
    <path
       inkscape:original-d="m 564.99508,728.45864 -17.94956,9.51543 17.94956,9.51543 0,-6.12736 11.53386,6.12736 0,-19.03086 -11.53386,6.12736 0,-6.12736 z"
       inkscape:path-effect="#path-effect4762"
       style="fill:none;stroke:#ffffff;stroke-width:1;stroke-miterlimit:4;stroke-opacity:1;stroke-dasharray:none"
       d="m 563.89647,729.60851 c -4.99692,2.33784 -9.78166,4.88547 -14.85067,7.31912 m 4.81834,-1.26688 c -1.94002,0.97934 -3.93812,1.95935 -5.97131,2.91159 2.19038,1.05559 4.33765,2.07706 6.47312,3.02567 m -4.21938,-2.09949 c 4.53602,2.34224 9.05771,4.81713 13.81455,7.45516 m -3.14806,-1.20472 c 1.27741,0.6185 2.55525,1.25399 3.83609,1.89984 0.0281,-2.07501 0.0623,-4.12881 0.1101,-6.18082 2.60049,1.33241 5.22787,2.66835 7.90291,3.95404 m -5.11492,-3.22323 c 2.90932,1.57951 5.857,3.1207 8.85022,4.64555 0.0611,-2.37252 0.14549,-4.75343 0.25592,-7.13463 m -0.90613,5.55494 c -0.2268,-5.335 -0.0673,-10.32723 0.10258,-15.38594 m 1.3123,2.26236 c 0.0563,-1.56438 0.0754,-3.07725 0.065,-4.54968 -3.10499,1.67932 -6.37127,3.5801 -9.69915,5.56032 m 2.18306,-0.64252 c -1.76383,0.90832 -3.53202,1.81645 -5.30724,2.71716 -0.0269,-2.07184 -0.0613,-4.15156 -0.10616,-6.24706 -7.3e-4,-8.7e-4 -0.001,-0.002 -0.002,-0.003 -0.56683,0.27674 -1.13464,0.55198 -1.70352,0.8255"
       id="path4741" />
    <path
       inkscape:original-d="m 687.30028,728.45864 17.94956,9.51543 -17.94956,9.51543 0,-6.12736 -11.53386,6.12736 0,-19.03086 11.53386,6.12736 0,-6.12736 z"
       inkscape:path-effect="#path-effect4756"
       style="fill:none;stroke:#ffffff;stroke-width:1;stroke-miterlimit:4;stroke-opacity:1;stroke-dasharray:none"
       d="m 688.38254,728.91314 c 4.60775,2.30845 9.33171,4.77142 13.92769,7.02366 m -3.66765,-1.55691 c 2.03643,1.06801 4.06268,2.15155 6.09164,3.25416 -2.19508,1.22229 -4.38684,2.46803 -6.55776,3.74206 m 3.93366,-1.61191 c -4.34002,2.36948 -8.76495,4.91088 -13.17539,7.66728 m 2.86036,-2.36217 c -1.23574,0.62418 -2.50591,1.28655 -3.80672,1.98129 -0.0566,-2.00505 -0.17597,-3.94385 -0.34693,-5.83346 -2.77342,1.56046 -5.64866,3.21794 -8.59497,4.92507 m 6.29546,-4.06861 c -2.89005,1.51795 -5.82575,3.08801 -8.79499,4.68754 -0.0439,-2.31905 -0.10495,-4.62298 -0.17877,-6.92013 m -1.29677,4.68213 c 0.14944,-4.99288 0.22159,-10.26092 0.47851,-15.59955 m 0.74824,4.91311 c 0.072,-1.51806 0.0926,-3.04244 0.0726,-4.57686 3.03377,1.53427 5.84451,3.01358 8.5681,4.39034 m -2.38598,-1.21134 c 1.72433,0.90129 3.44225,1.78097 5.14717,2.6333 -0.0456,-2.12173 -0.10497,-4.27256 -0.18541,-6.45876 -0.001,-0.002 -0.003,-0.005 -0.004,-0.007 0.52813,0.24875 1.05427,0.49416 1.57822,0.73606"
       id="path4743" />
    <path
       style="fill:none;stroke:#ffffff;stroke-width:6;stroke-miterlimit:4;stroke-opacity:1;stroke-dasharray:none"
       d="m -230.52958,765.0438 c 0.97707,-11.8217 0.45189,-22.642 -0.29986,-33.48332 -2.48485,0.0497 -4.97969,0.0985 -7.47271,0.13688 m 5.81816,-7.47716 c -0.0361,-0.93798 -0.0654,-1.87166 -0.0881,-2.8013 -11.32889,-0.26934 -21.69059,0.0604 -31.69711,0.5174 m 1.23497,5.7332 c -3.76396,-0.1191 -7.39128,-0.25075 -10.91983,-0.40922 6.19134,-6.72903 13.04421,-13.63775 19.90195,-20.97357 m -0.31358,8.65812 c 12.68781,-10.10567 23.15718,-21.68939 35.42167,-31.87649 m -17.76598,0.65849 c 5.66339,-6.57755 12.47607,-12.92205 20.02203,-19.39962 4.6758,3.60585 9.63316,7.1606 14.77309,10.57716 m -8.15804,-1.14084 c 8.25502,9.71093 18.80853,16.80893 30.27224,22.58049 m -13.45668,-2.22495 c 8.1014,8.78382 18.24708,17.29099 29.19207,25.52296 m -1.09818,-9.86398 c 3.6989,3.38083 7.15161,6.97539 10.40865,10.75997 -7.10515,0.42249 -14.57923,1.20327 -22.29143,2.28096 m 6.37348,1.17936 c -7.22355,0.28583 -14.93147,0.034 -22.85597,-0.58348 -0.29318,7.09873 -0.808,13.82326 -1.26721,20.35165 m 3.21038,-13.90477 c -0.34561,9.48808 0.003,18.49985 0.7513,27.70309 -5.91753,0.38436 -11.61311,0.87509 -17.2088,1.74868 m 7.5343,1.02432 c -9.91488,0.31756 -21.23054,0.1162 -32.56472,-0.21624 -0.083,-2.78309 -0.16702,-5.57409 -0.23172,-8.36725 m 42.3503,-60.82773 57.05116,56.69304"
       id="path2925"
       sodipodi:nodetypes="cccccccc"
       inkscape:path-effect="#path-effect3762"
       inkscape:original-d="m -233.57734,760.41567 0,-36.49583 -35.8241,0 55.8241,-55.47367 55.82409,55.47367 -35.82409,0 0,36.49583 -40,0 z" />
    <g
       id="g2937"
       transform="matrix(0.1980184,0,0,0.1980184,460.2158,625.47887)">
      <use
         height="800"
         width="1280"
         transform="matrix(0.70710678,-0.70710678,0.70710678,0.70710678,-706.52291,-37.769216)"
         id="use2927"
         xlink:href="#path2925"
         y="0"
         x="0" />
      <use
         height="800"
         width="1280"
         transform="matrix(0.70710678,0.70710678,-0.70710678,0.70710678,204.20153,264.27476)"
         id="use2929"
         xlink:href="#path2925"
         y="0"
         x="0" />
      <use
         height="800"
         width="1280"
         transform="matrix(-0.70710678,-0.70710678,0.70710678,-0.70710678,-1008.5669,872.95523)"
         id="use2931"
         xlink:href="#path2925"
         y="0"
         x="0" />
      <use
         height="800"
         width="1280"
         transform="matrix(-0.70710678,0.70710678,-0.70710678,-0.70710678,-97.842453,1174.9992)"
         id="use2933"
         xlink:href="#path2925"
         y="0"
         x="0" />
    </g>
    <path
       style="fill:none;stroke:#ffffff;stroke-width:5;stroke-miterlimit:4;stroke-opacity:1"
       d="m -539.63678,679.30603 c 13.7942,-0.851 25.62006,-0.39321 37.392,-0.153 -0.16066,2.2949 -0.32302,4.58293 -0.47635,6.85553 m -6.06294,-12.35064 c 1.29613,-0.0453 2.60739,-0.0811 3.93267,-0.10813 -0.25041,13.48733 0.95713,27.87674 2.4538,42.24955 -0.18336,0.009 -0.36665,0.0182 -0.54988,0.0273 m -4.86567,-7.68579 c -0.2679,2.98573 -0.42675,5.96166 -0.50357,8.91751 -11.4899,-0.4938 -21.90153,-1.25148 -32.52394,-2.76212 m 12.87756,2.2077 c -5.2265,0.38623 -10.7464,0.57789 -16.3666,0.71228 0.15201,-6.48232 0.17045,-13.0409 0.35202,-19.46474 m -4.19584,6.3235 c -0.64018,-11.18436 0.43666,-22.02117 2.47016,-33.1777 4.82692,-0.18885 9.79217,-0.42393 14.85395,-0.74194"
       id="rect3727"
       inkscape:path-effect="#path-effect3765"
       inkscape:original-d="m -545.03229,674.06451 41.29032,0 0,41.29033 -41.29032,0 0,-41.29033 z" />
    <g
       id="g3749"
       transform="translate(41.95442,1.5882107)">
      <use
         height="800"
         width="1280"
         transform="matrix(0.23951065,0,0,0.23951065,545.2918,555.75679)"
         id="use3729"
         xlink:href="#rect3727"
         y="0"
         x="0" />
      <use
         height="800"
         width="1280"
         transform="matrix(0.23951065,0,0,0.23951065,560.37323,555.75679)"
         id="use3733"
         xlink:href="#rect3727"
         y="0"
         x="0" />
      <use
         height="800"
         width="1280"
         transform="matrix(0.23951065,0,0,0.23951065,575.45468,555.75679)"
         id="use3735"
         xlink:href="#rect3727"
         y="0"
         x="0" />
      <use
         height="800"
         width="1280"
         transform="matrix(0.23951065,0,0,0.23951065,575.45468,570.09652)"
         id="use3737"
         xlink:href="#rect3727"
         y="0"
         x="0" />
      <use
         height="800"
         width="1280"
         transform="matrix(0.23951065,0,0,0.23951065,560.37323,570.09652)"
         id="use3739"
         xlink:href="#rect3727"
         y="0"
         x="0" />
      <use
         height="800"
         width="1280"
         transform="matrix(0.23951065,0,0,0.23951065,545.2918,570.09652)"
         id="use3741"
         xlink:href="#rect3727"
         y="0"
         x="0" />
      <use
         height="800"
         width="1280"
         transform="matrix(0.23951065,0,0,0.23951065,575.45468,584.43626)"
         id="use3743"
         xlink:href="#rect3727"
         y="0"
         x="0" />
      <use
         height="800"
         width="1280"
         transform="matrix(0.23951065,0,0,0.23951065,560.37323,584.43626)"
         id="use3745"
         xlink:href="#rect3727"
         y="0"
         x="0" />
      <use
         height="800"
         width="1280"
         transform="matrix(0.23951065,0,0,0.23951065,545.2918,584.43626)"
         id="use3747"
         xlink:href="#rect3727"
         y="0"
         x="0" />
    </g>
  </g>
  <g
     inkscape:groupmode="layer"
     id="layer6"
     inkscape:label="zoom"
     style="display:inline"
     sodipodi:insensitive="true">
    <rect
       style="fill:#ffffff;fill-opacity:0;stroke:none"
       id="rect3788"
       width="700"
       height="437.5"
       x="293.17606"
       y="453.00964"
       inkscape:export-filename="/home/lrbabe/workspace/todoso/website/image/player fullscreen zoom.png"
       inkscape:export-xdpi="77.14286"
       inkscape:export-ydpi="77.14286" />
  </g>
</svg>
