<?xml version="1.0" encoding="UTF-8" standalone="no"?>
<!-- Created with Inkscape (http://www.inkscape.org/) -->

<svg
   xmlns:dc="http://purl.org/dc/elements/1.1/"
   xmlns:cc="http://creativecommons.org/ns#"
   xmlns:rdf="http://www.w3.org/1999/02/22-rdf-syntax-ns#"
   xmlns:svg="http://www.w3.org/2000/svg"
   xmlns="http://www.w3.org/2000/svg"
   xmlns:sodipodi="http://sodipodi.sourceforge.net/DTD/sodipodi-0.dtd"
   xmlns:inkscape="http://www.inkscape.org/namespaces/inkscape"
   width="36"
   height="384"
   id="svg2"
   version="1.1"
   inkscape:version="0.47pre0 r21549"
   sodipodi:docname="vertical tabs.svg"
   inkscape:output_extension="org.inkscape.output.svg.inkscape"
   inkscape:export-filename="/home/lrbabe/workspace/todoso/website/image/verticalTabs.png"
   inkscape:export-xdpi="90"
   inkscape:export-ydpi="90">
  <defs
     id="defs4">
    <inkscape:perspective
       sodipodi:type="inkscape:persp3d"
       inkscape:vp_x="0 : 526.18109 : 1"
       inkscape:vp_y="0 : 1000 : 0"
       inkscape:vp_z="744.09448 : 526.18109 : 1"
       inkscape:persp3d-origin="372.04724 : 350.78739 : 1"
       id="perspective10" />
    <filter
       id="filter3877"
       inkscape:label="Drop shadow"
       width="1.5"
       height="1.5"
       x="-0.25"
       y="-0.25"
       color-interpolation-filters="sRGB">
      <feGaussianBlur
         id="feGaussianBlur3879"
         in="SourceAlpha"
         stdDeviation="1.500000"
         result="blur" />
      <feColorMatrix
         id="feColorMatrix3881"
         result="bluralpha"
         type="matrix"
         values="1 0 0 0 0 0 1 0 0 0 0 0 1 0 0 0 0 0 0.500000 0 " />
      <feOffset
         id="feOffset3883"
         in="bluralpha"
         dx="2.000000"
         dy="2.000000"
         result="offsetBlur" />
      <feMerge
         id="feMerge3885">
        <feMergeNode
           id="feMergeNode3887"
           in="offsetBlur" />
        <feMergeNode
           id="feMergeNode3889"
           in="SourceGraphic" />
      </feMerge>
    </filter>
    <filter
       id="filter3891"
       inkscape:label="Drop shadow"
       width="1.5"
       height="1.5"
       x="-0.25"
       y="-0.25"
       color-interpolation-filters="sRGB">
      <feGaussianBlur
         id="feGaussianBlur3893"
         in="SourceAlpha"
         stdDeviation="1.500000"
         result="blur" />
      <feColorMatrix
         id="feColorMatrix3895"
         result="bluralpha"
         type="matrix"
         values="1 0 0 0 0 0 1 0 0 0 0 0 1 0 0 0 0 0 0.500000 0 " />
      <feOffset
         id="feOffset3897"
         in="bluralpha"
         dx="2.000000"
         dy="2.000000"
         result="offsetBlur" />
      <feMerge
         id="feMerge3899">
        <feMergeNode
           id="feMergeNode3901"
           in="offsetBlur" />
        <feMergeNode
           id="feMergeNode3903"
           in="SourceGraphic" />
      </feMerge>
    </filter>
    <filter
       id="filter3905"
       inkscape:label="Drop shadow"
       width="1.5"
       height="1.5"
       x="-0.25"
       y="-0.25"
       color-interpolation-filters="sRGB">
      <feGaussianBlur
         id="feGaussianBlur3907"
         in="SourceAlpha"
         stdDeviation="1.500000"
         result="blur" />
      <feColorMatrix
         id="feColorMatrix3909"
         result="bluralpha"
         type="matrix"
         values="1 0 0 0 0 0 1 0 0 0 0 0 1 0 0 0 0 0 0.500000 0 " />
      <feOffset
         id="feOffset3911"
         in="bluralpha"
         dx="2.000000"
         dy="2.000000"
         result="offsetBlur" />
      <feMerge
         id="feMerge3913">
        <feMergeNode
           id="feMergeNode3915"
           in="offsetBlur" />
        <feMergeNode
           id="feMergeNode3917"
           in="SourceGraphic" />
      </feMerge>
    </filter>
  </defs>
  <sodipodi:namedview
     id="base"
     pagecolor="#ffffff"
     bordercolor="#666666"
     borderopacity="1.0"
     inkscape:pageopacity="0.0"
     inkscape:pageshadow="2"
     inkscape:zoom="2"
     inkscape:cx="-120.66878"
     inkscape:cy="306.42041"
     inkscape:document-units="px"
     inkscape:current-layer="layer1"
     showgrid="false"
     inkscape:window-width="1280"
     inkscape:window-height="776"
     inkscape:window-x="0"
     inkscape:window-y="24"
     inkscape:window-maximized="1" />
  <metadata
     id="metadata7">
    <rdf:RDF>
      <cc:Work
         rdf:about="">
        <dc:format>image/svg+xml</dc:format>
        <dc:type
           rdf:resource="http://purl.org/dc/dcmitype/StillImage" />
        <dc:title />
      </cc:Work>
    </rdf:RDF>
  </metadata>
  <g
     inkscape:label="Layer 1"
     inkscape:groupmode="layer"
     id="layer1"
     transform="translate(-498.55377,-181.08078)">
    <g
       id="g3921">
      <path
         transform="translate(299.079,148.42369)"
         id="rect3646"
         d="M 1,4 1,124 31,124 31,4 1,4 z m 18.375,23.9375 c 0.914064,8e-6 1.623048,0.335946 2.15625,1.0625 0.533203,0.72071 0.8125,1.734381 0.8125,3 0,0.527348 -0.05078,1.082035 -0.15625,1.65625 -0.09961,0.568362 -0.263672,1.148439 -0.46875,1.78125 l -1.65625,0 c 0.310549,-0.597655 0.529298,-1.16992 0.6875,-1.75 0.152345,-0.580075 0.218751,-1.150387 0.21875,-1.71875 1e-6,-0.761714 -0.117186,-1.371088 -0.375,-1.78125 -0.26367,-0.41015 -0.619139,-0.593743 -1.09375,-0.59375 -0.43945,7e-6 -0.796872,0.138679 -1.03125,0.4375 -0.234371,0.292975 -0.439449,0.935552 -0.65625,1.9375 l -0.15625,0.5625 c -0.210933,1.001956 -0.535151,1.74219 -0.96875,2.1875 -0.439447,0.445314 -1.019525,0.656251 -1.78125,0.65625 -0.925773,10e-7 -1.652335,-0.312499 -2.15625,-0.96875 -0.503896,-0.656247 -0.74999,-1.605465 -0.75,-2.8125 10e-6,-0.597651 0.03712,-1.16015 0.125,-1.6875 0.0879,-0.527337 0.230478,-1.02343 0.40625,-1.46875 l 1.53125,0 c -0.234367,0.457039 -0.414054,0.94532 -0.53125,1.4375 -0.117179,0.492194 -0.187491,1.003912 -0.1875,1.53125 9e-6,0.802739 0.128915,1.408207 0.375,1.8125 0.246102,0.39844 0.63282,0.593753 1.125,0.59375 0.375007,3e-6 0.65821,-0.150388 0.875,-0.4375 0.210944,-0.287106 0.400397,-0.851559 0.59375,-1.71875 l 0.125,-0.5625 c 0.246099,-1.148431 0.611333,-1.957024 1.0625,-2.4375 0.445317,-0.48632 1.072269,-0.718742 1.875,-0.71875 z m -2.625,9.4375 0.78125,0 0,7.4375 c 1.113285,-0.07031 1.976565,-0.402341 2.5625,-1 0.58008,-0.603511 0.875001,-1.427729 0.875,-2.5 1e-6,-0.621087 -0.0664,-1.232414 -0.21875,-1.8125 -0.152342,-0.585929 -0.382811,-1.175772 -0.6875,-1.75 l 1.53125,0 c 0.246094,0.580087 0.433594,1.171884 0.5625,1.78125 0.128906,0.609382 0.1875,1.248054 0.1875,1.875 0,1.570317 -0.460937,2.798831 -1.375,3.71875 -0.91406,0.914064 -2.160153,1.375001 -3.71875,1.375 -1.611322,10e-7 -2.869133,-0.414061 -3.8125,-1.28125 C 12.488291,44.345706 12.00001,43.164067 12,41.6875 c 10e-6,-1.324212 0.425791,-2.388664 1.28125,-3.15625 C 14.130867,37.757822 15.285163,37.37501 16.75,37.375 z M 16.28125,39 c -0.884759,0.01173 -1.597649,0.26368 -2.125,0.75 -0.527335,0.480476 -0.781241,1.109382 -0.78125,1.90625 9e-6,0.902349 0.240243,1.642582 0.75,2.1875 0.509773,0.539066 1.230475,0.824222 2.15625,0.90625 l 0,-5.75 z m -4.03125,8.9375 1.25,0 0,3.34375 5.34375,0 c 0.802737,3e-6 1.302736,-0.12695 1.53125,-0.34375 0.228517,-0.222652 0.343751,-0.669918 0.34375,-1.34375 l 0,-1.65625 1.375,0 0,1.65625 c 0,1.248051 -0.255859,2.119143 -0.71875,2.59375 -0.468749,0.474611 -1.300779,0.718752 -2.53125,0.71875 l -5.34375,0 0,1.1875 -1.25,0 0,-1.1875 -2.8125,0 0,-1.625 2.8125,0 0,-3.34375 z m 4.21875,8.28125 5.625,0 0,1.59375 -1.5,0 c 0.597657,0.369148 1.025391,0.855476 1.3125,1.40625 0.28125,0.550787 0.4375,1.20313 0.4375,2 0,1.007816 -0.28125,1.808596 -0.84375,2.40625 -0.568358,0.591798 -1.332029,0.906251 -2.28125,0.90625 -1.107418,10e-7 -1.937495,-0.386717 -2.5,-1.125 -0.562494,-0.744138 -0.843744,-1.841793 -0.84375,-3.3125 l 0,-2.28125 -0.15625,0 c -0.744134,8e-6 -1.314445,0.25782 -1.71875,0.75 -0.410148,0.486335 -0.624991,1.17774 -0.625,2.0625 9e-6,0.562504 0.05274,1.091801 0.1875,1.625 0.134774,0.533206 0.355477,1.070315 0.625,1.5625 l -1.5,0 c -0.228506,-0.591794 -0.388662,-1.162106 -0.5,-1.71875 -0.117177,-0.556637 -0.18749,-1.097652 -0.1875,-1.625 10e-6,-1.423822 0.355478,-2.515617 1.09375,-3.21875 0.738289,-0.703116 1.875007,-1.031241 3.375,-1.03125 z m 0.65625,1.59375 0,1.625 c 5e-6,1.306645 0.169927,2.214848 0.46875,2.71875 0.298832,0.503909 0.810551,0.750003 1.53125,0.75 0.574221,3e-6 1.003908,-0.187497 1.34375,-0.5625 0.333986,-0.380856 0.500001,-0.912105 0.5,-1.5625 1e-6,-0.896479 -0.304686,-1.585931 -0.9375,-2.125 C 19.392581,58.111336 18.554691,57.812508 17.5,57.8125 l -0.375,0 z m -8.71875,9.4375 13.6875,0 0,1.59375 -1.5,0 c 0.585938,0.339852 1.025391,0.791023 1.3125,1.3125 0.28125,0.515631 0.4375,1.117193 0.4375,1.84375 0,1.189457 -0.488281,2.156253 -1.4375,2.90625 -0.949217,0.744142 -2.203122,1.125001 -3.75,1.125 -1.546869,10e-7 -2.769524,-0.380858 -3.71875,-1.125 C 12.488291,74.156253 12.00001,73.189457 12,72 c 10e-6,-0.726557 0.150401,-1.328119 0.4375,-1.84375 0.281259,-0.521477 0.695321,-0.972648 1.28125,-1.3125 l -5.3125,0 0,-1.59375 z m 8.75,1.59375 c -1.189447,8e-6 -2.107415,0.25782 -2.78125,0.75 -0.679679,0.492194 -1.031241,1.175788 -1.03125,2.03125 9e-6,0.855473 0.351571,1.507816 1.03125,2 0.673835,0.486331 1.591803,0.750003 2.78125,0.75 1.189457,3e-6 2.132815,-0.263669 2.8125,-0.75 0.67383,-0.492184 1.000001,-1.144527 1,-2 1e-6,-0.855462 -0.32617,-1.539056 -1,-2.03125 -0.679685,-0.49218 -1.623043,-0.749992 -2.8125,-0.75 z m 0,9.15625 c 1.546878,1e-5 2.800783,0.37501 3.75,1.125 0.949219,0.744149 1.4375,1.742195 1.4375,2.9375 0,0.720709 -0.15625,1.322271 -0.4375,1.84375 -0.287109,0.515629 -0.726562,0.94141 -1.3125,1.28125 l 5.21875,0 0,1.625 -13.5625,0 0,-1.625 1.46875,0 C 13.132821,84.84766 12.718759,84.421879 12.4375,83.90625 12.150401,83.384771 12.00001,82.783209 12,82.0625 c 10e-6,-1.195305 0.488291,-2.193351 1.4375,-2.9375 0.949226,-0.74999 2.171881,-1.12499 3.71875,-1.125 z m 0,1.6875 c -1.189447,9e-6 -2.107415,0.257821 -2.78125,0.75 -0.679679,0.486336 -1.031241,1.144538 -1.03125,2 9e-6,0.855474 0.351571,1.539067 1.03125,2.03125 0.673835,0.486332 1.591803,0.718753 2.78125,0.71875 1.189457,3e-6 2.132815,-0.232418 2.8125,-0.71875 0.67383,-0.492183 1.000001,-1.175776 1,-2.03125 1e-6,-0.855462 -0.32617,-1.513664 -1,-2 -0.679685,-0.492179 -1.623043,-0.749991 -2.8125,-0.75 z m -8.1875,10.34375 8.1875,0 c 1.710941,1.2e-5 3.001955,0.431652 3.875,1.28125 0.873047,0.843759 1.3125,2.097664 1.3125,3.75 0,1.658208 -0.439453,2.900394 -1.3125,3.75 -0.873045,0.843752 -2.164059,1.25 -3.875,1.25 l -8.1875,0 0,-1.78125 7.96875,0 c 1.406254,3e-6 2.410159,-0.240231 3.03125,-0.75 0.615236,-0.509761 0.937501,-1.326166 0.9375,-2.46875 1e-6,-1.136711 -0.322264,-1.990226 -0.9375,-2.5 -0.621091,-0.509756 -1.624996,-0.74999 -3.03125,-0.75 l -7.96875,0 0,-1.78125 z"
         style="fill:#8d8d8d;fill-opacity:1;stroke:none" />
      <path
         style="fill:none;stroke:#8d8d8d;stroke-width:2;stroke-miterlimit:4;stroke-opacity:1;stroke-dasharray:none"
         d="m 300.079,275.42369 33,0 0,-126 -33,0"
         id="path3648"
         sodipodi:nodetypes="cccc" />
    </g>
    <g
       id="g3925"
       transform="translate(0,-2.00023)">
      <path
         id="rect3628"
         transform="translate(299.079,148.42369)"
         d="m 1,134 0,120 30,0 0,-120 -30,0 z m 18.375,10.625 c 0.914064,1e-5 1.623048,0.3672 2.15625,1.09375 0.533203,0.72071 0.8125,1.70313 0.8125,2.96875 0,0.52735 -0.05078,1.08203 -0.15625,1.65625 -0.09961,0.56836 -0.263672,1.17969 -0.46875,1.8125 l -1.65625,0 c 0.310549,-0.59765 0.529298,-1.20117 0.6875,-1.78125 0.152345,-0.58007 0.218751,-1.15039 0.21875,-1.71875 1e-6,-0.76171 -0.117186,-1.33984 -0.375,-1.75 -0.26367,-0.41015 -0.619139,-0.62499 -1.09375,-0.625 -0.43945,1e-5 -0.796872,0.16993 -1.03125,0.46875 -0.234371,0.29297 -0.439449,0.93555 -0.65625,1.9375 l -0.15625,0.5625 c -0.210933,1.00196 -0.535151,1.71094 -0.96875,2.15625 -0.439447,0.44531 -1.019525,0.6875 -1.78125,0.6875 -0.925773,0 -1.652335,-0.34375 -2.15625,-1 -0.503896,-0.65625 -0.74999,-1.57422 -0.75,-2.78125 10e-6,-0.59765 0.03712,-1.16015 0.125,-1.6875 0.0879,-0.52734 0.230478,-1.02343 0.40625,-1.46875 l 1.53125,0 c -0.234367,0.45704 -0.414054,0.94532 -0.53125,1.4375 -0.117179,0.49219 -0.187491,1.00391 -0.1875,1.53125 9e-6,0.80274 0.128915,1.40821 0.375,1.8125 0.246102,0.39844 0.63282,0.59375 1.125,0.59375 0.375007,0 0.65821,-0.15039 0.875,-0.4375 0.210944,-0.28711 0.400397,-0.88281 0.59375,-1.75 l 0.125,-0.53125 c 0.246099,-1.14843 0.611333,-1.95702 1.0625,-2.4375 0.445317,-0.48632 1.072269,-0.74999 1.875,-0.75 z m -2.625,9.46875 0.78125,0 0,7.4375 c 1.113285,-0.0703 1.976565,-0.40234 2.5625,-1 0.58008,-0.60351 0.875001,-1.45898 0.875,-2.53125 1e-6,-0.62109 -0.0664,-1.20116 -0.21875,-1.78125 -0.152342,-0.58593 -0.382811,-1.17577 -0.6875,-1.75 l 1.53125,0 c 0.246094,0.58009 0.433594,1.17188 0.5625,1.78125 0.128906,0.60938 0.1875,1.2168 0.1875,1.84375 0,1.57032 -0.460937,2.83008 -1.375,3.75 -0.91406,0.91406 -2.160153,1.375 -3.71875,1.375 -1.611322,0 -2.869133,-0.44531 -3.8125,-1.3125 -0.949209,-0.87304 -1.43749,-2.05468 -1.4375,-3.53125 10e-6,-1.32421 0.425791,-2.35741 1.28125,-3.125 0.849617,-0.77343 2.003913,-1.15624 3.46875,-1.15625 z m -0.46875,1.625 c -0.884759,0.0117 -1.597649,0.26368 -2.125,0.75 -0.527335,0.48048 -0.781241,1.10938 -0.78125,1.90625 9e-6,0.90235 0.240243,1.61133 0.75,2.15625 0.509773,0.53907 1.230475,0.85547 2.15625,0.9375 l 0,-5.75 z m -3.65625,9.625 1.5,0 c -0.251945,0.45704 -0.439445,0.91212 -0.5625,1.375 -0.128898,0.45704 -0.187491,0.90626 -0.1875,1.375 9e-6,1.04883 0.33204,1.88868 1,2.46875 0.662116,0.58008 1.580084,0.84375 2.78125,0.84375 1.201176,0 2.144534,-0.26367 2.8125,-0.84375 0.662111,-0.58007 1.000001,-1.41992 1,-2.46875 1e-6,-0.46874 -0.06445,-0.91796 -0.1875,-1.375 -0.128905,-0.46288 -0.310545,-0.91796 -0.5625,-1.375 l 1.5,0 c 0.210938,0.45118 0.363281,0.91993 0.46875,1.40625 0.105469,0.48048 0.15625,0.98633 0.15625,1.53125 0,1.48243 -0.474609,2.65821 -1.40625,3.53125 -0.931639,0.87305 -2.199215,1.3125 -3.78125,1.3125 -1.605462,0 -2.86132,-0.43359 -3.78125,-1.3125 -0.919912,-0.88476 -1.37499,-2.08984 -1.375,-3.625 10e-6,-0.49804 0.05079,-0.99413 0.15625,-1.46875 0.09962,-0.4746 0.263682,-0.92968 0.46875,-1.375 z m -0.53125,8.40625 1.65625,0 c -0.10546,0.18165 -0.171866,0.37696 -0.21875,0.59375 -0.05273,0.21094 -0.09374,0.46094 -0.09375,0.71875 9e-6,0.91407 0.308602,1.60157 0.90625,2.09375 0.591804,0.48633 1.449225,0.71875 2.5625,0.71875 l 5.1875,0 0,1.65625 -9.84375,0 0,-1.65625 1.53125,0 c -0.597647,-0.33984 -1.056631,-0.76757 -1.34375,-1.3125 -0.292959,-0.54492 -0.43749,-1.2207 -0.4375,-2 10e-6,-0.11132 0.01368,-0.20898 0.03125,-0.34375 0.01173,-0.13476 0.03321,-0.30468 0.0625,-0.46875 z m 0.15625,9.0625 9.84375,0 0,1.59375 -1.53125,0 c 0.597657,0.39259 1.050782,0.85352 1.34375,1.375 0.287109,0.51563 0.4375,1.12696 0.4375,1.8125 0,1.13086 -0.359375,1.97657 -1.0625,2.5625 -0.703123,0.58594 -1.740232,0.90625 -3.09375,0.90625 l -5.9375,0 0,-1.625 5.875,0 c 0.931644,0 1.656252,-0.19922 2.125,-0.5625 0.462892,-0.36328 0.687501,-0.89843 0.6875,-1.625 1e-6,-0.87304 -0.287108,-1.55859 -0.84375,-2.0625 -0.556638,-0.50976 -1.320309,-0.78124 -2.28125,-0.78125 l -5.5625,0 0,-1.59375 z m 4.90625,10.75 c 1.611331,1e-5 2.89258,0.38478 3.8125,1.1875 0.914063,0.80274 1.375,1.90626 1.375,3.3125 0,1.41211 -0.460937,2.54102 -1.375,3.34375 -0.91992,0.79688 -2.201169,1.1875 -3.8125,1.1875 -1.617181,0 -2.86718,-0.39062 -3.78125,-1.1875 -0.914053,-0.80273 -1.37499,-1.93164 -1.375,-3.34375 10e-6,-1.40624 0.460947,-2.50976 1.375,-3.3125 0.91407,-0.80272 2.164069,-1.18749 3.78125,-1.1875 z m 0,1.71875 c -1.16601,1e-5 -2.070305,0.2461 -2.75,0.75 -0.685539,0.50391 -1.031241,1.16993 -1.03125,2.03125 9e-6,0.86719 0.351571,1.5586 1.03125,2.0625 0.673835,0.50391 1.572272,0.75 2.75,0.75 1.177738,0 2.132815,-0.25195 2.8125,-0.75 0.67383,-0.5039 1.000001,-1.18945 1,-2.0625 1e-6,-0.86132 -0.351561,-1.52734 -1.03125,-2.03125 -0.679685,-0.5039 -1.609371,-0.74999 -2.78125,-0.75 z m 2.21875,9.1875 c 0.914064,1e-5 1.623048,0.3672 2.15625,1.09375 0.533203,0.72071 0.8125,1.70313 0.8125,2.96875 0,0.52735 -0.05078,1.08203 -0.15625,1.65625 -0.09961,0.56836 -0.263672,1.17969 -0.46875,1.8125 l -1.65625,0 c 0.310549,-0.59765 0.529298,-1.20117 0.6875,-1.78125 0.152345,-0.58007 0.218751,-1.15039 0.21875,-1.71875 1e-6,-0.76171 -0.117186,-1.33984 -0.375,-1.75 -0.26367,-0.41015 -0.619139,-0.62499 -1.09375,-0.625 -0.43945,1e-5 -0.796872,0.13868 -1.03125,0.4375 -0.234371,0.29297 -0.439449,0.9668 -0.65625,1.96875 l -0.15625,0.5625 c -0.210933,1.00196 -0.535151,1.71094 -0.96875,2.15625 -0.439447,0.44531 -1.019525,0.65625 -1.78125,0.65625 -0.925773,0 -1.652335,-0.3125 -2.15625,-0.96875 -0.503896,-0.65625 -0.74999,-1.57422 -0.75,-2.78125 10e-6,-0.59765 0.03712,-1.16015 0.125,-1.6875 0.0879,-0.52734 0.230478,-1.02343 0.40625,-1.46875 l 1.53125,0 c -0.234367,0.45704 -0.414054,0.91407 -0.53125,1.40625 -0.117179,0.49219 -0.187491,1.00391 -0.1875,1.53125 9e-6,0.80274 0.128915,1.40821 0.375,1.8125 0.246102,0.39844 0.63282,0.59375 1.125,0.59375 0.375007,0 0.65821,-0.11914 0.875,-0.40625 0.210944,-0.28711 0.400397,-0.88281 0.59375,-1.75 l 0.125,-0.53125 c 0.246099,-1.14843 0.611333,-1.98827 1.0625,-2.46875 0.445317,-0.48632 1.072269,-0.71874 1.875,-0.71875 z m 0,9.375 c 0.914064,1e-5 1.623048,0.3672 2.15625,1.09375 0.533203,0.72071 0.8125,1.73438 0.8125,3 0,0.52735 -0.05078,1.05078 -0.15625,1.625 -0.09961,0.56836 -0.263672,1.17969 -0.46875,1.8125 l -1.65625,0 c 0.310549,-0.59765 0.529298,-1.16992 0.6875,-1.75 0.152345,-0.58007 0.218751,-1.18164 0.21875,-1.75 1e-6,-0.76171 -0.117186,-1.33984 -0.375,-1.75 -0.26367,-0.41015 -0.619139,-0.59374 -1.09375,-0.59375 -0.43945,1e-5 -0.796872,0.13868 -1.03125,0.4375 -0.234371,0.29297 -0.439449,0.93555 -0.65625,1.9375 l -0.15625,0.5625 c -0.210933,1.00196 -0.535151,1.71094 -0.96875,2.15625 -0.439447,0.44531 -1.019525,0.6875 -1.78125,0.6875 -0.925773,0 -1.652335,-0.34375 -2.15625,-1 -0.503896,-0.65625 -0.74999,-1.57422 -0.75,-2.78125 10e-6,-0.59765 0.03712,-1.16015 0.125,-1.6875 0.0879,-0.52734 0.230478,-1.02343 0.40625,-1.46875 l 1.53125,0 c -0.234367,0.45704 -0.414054,0.94532 -0.53125,1.4375 -0.117179,0.49219 -0.187491,1.00391 -0.1875,1.53125 9e-6,0.80274 0.128915,1.40821 0.375,1.8125 0.246102,0.39844 0.63282,0.59375 1.125,0.59375 0.375007,0 0.65821,-0.15039 0.875,-0.4375 0.210944,-0.28711 0.400397,-0.85156 0.59375,-1.71875 l 0.125,-0.5625 c 0.246099,-1.14843 0.611333,-1.95702 1.0625,-2.4375 0.445317,-0.48632 1.072269,-0.74999 1.875,-0.75 z m -2.625,9.46875 0.78125,0 0,7.4375 c 1.113285,-0.0703 1.976565,-0.40234 2.5625,-1 0.58008,-0.60351 0.875001,-1.45898 0.875,-2.53125 1e-6,-0.62109 -0.0664,-1.20116 -0.21875,-1.78125 -0.152342,-0.58593 -0.382811,-1.17577 -0.6875,-1.75 l 1.53125,0 c 0.246094,0.58009 0.433594,1.17188 0.5625,1.78125 0.128906,0.60938 0.1875,1.24805 0.1875,1.875 0,1.57032 -0.460937,2.79883 -1.375,3.71875 -0.91406,0.91406 -2.160153,1.375 -3.71875,1.375 -1.611322,0 -2.869133,-0.44531 -3.8125,-1.3125 -0.949209,-0.87304 -1.43749,-2.02343 -1.4375,-3.5 10e-6,-1.32421 0.425791,-2.38866 1.28125,-3.15625 0.849617,-0.77343 2.003913,-1.15624 3.46875,-1.15625 z m -0.46875,1.625 c -0.884759,0.0117 -1.597649,0.26368 -2.125,0.75 -0.527335,0.48048 -0.781241,1.10938 -0.78125,1.90625 9e-6,0.90235 0.240243,1.61133 0.75,2.15625 0.509773,0.53907 1.230475,0.85547 2.15625,0.9375 l 0,-5.75 z m 5.8125,8.21875 0,1.90625 -3.375,1.65625 c -0.878902,0.4336 -1.462886,0.8711 -1.75,1.28125 -0.287104,0.4043 -0.437494,0.95313 -0.4375,1.65625 l 0,1.9375 5.5625,0 0,1.78125 -13.125,0 0,-4 c 1.31e-5,-1.49999 0.3105597,-2.63671 0.9375,-3.375 0.626965,-0.73827 1.578136,-1.09374 2.84375,-1.09375 0.82618,1e-5 1.486336,0.17579 2.03125,0.5625 0.544929,0.38087 0.945319,0.95509 1.15625,1.6875 0.128912,-0.38085 0.390631,-0.76757 0.8125,-1.125 0.42188,-0.36327 1.011723,-0.73046 1.75,-1.09375 l 3.59375,-1.78125 z m -9.34375,3.625 c -0.767568,1e-5 -1.363271,0.21681 -1.75,0.65625 -0.392567,0.4336 -0.593738,1.08204 -0.59375,1.9375 l 0,2.21875 4.65625,0 0,-2.21875 c 7e-6,-0.85546 -0.169915,-1.5039 -0.5625,-1.9375 -0.39843,-0.43944 -0.982413,-0.65624 -1.75,-0.65625 z"
         style="fill:#000000;fill-opacity:1;stroke:none" />
      <path
         sodipodi:nodetypes="cccc"
         id="path3632"
         d="m 300.079,405.42392 33,0 0,-126 -33,0"
         style="fill:none;stroke:#000000;stroke-width:2;stroke-miterlimit:4;stroke-opacity:1;stroke-dasharray:none" />
    </g>
    <g
       id="g3929"
       transform="translate(0,-4)">
      <g
         transform="matrix(0,-1,1,0,-24.26818,789.00246)"
         id="g3650">
        <path
           id="rect3652"
           transform="matrix(0,1,-1,0,640.57877,323.34718)"
           d="m 1,264 0,120 30,0 0,-120 -30,0 z m 21.09375,21.1875 0,1.84375 -4.34375,3.21875 0.9375,1.15625 3.40625,0 0,1.59375 -13.0625,0 0,-1.59375 8.15625,0 -4.625,-4.1875 0,-1.84375 4.09375,3.875 5.4375,-4.0625 z m -2.84375,9.5 c 0.392581,0.0527 0.761721,0.16798 1.125,0.34375 0.363283,0.17579 0.69336,0.41407 0.96875,0.71875 0.275391,0.29884 0.486328,0.66016 0.65625,1.09375 0.164062,0.4336 0.25,0.93165 0.25,1.5 0,0.74414 -0.123047,1.38477 -0.375,1.90625 -0.251953,0.52149 -0.591796,0.92188 -1.03125,1.25 -0.445311,0.32227 -0.964842,0.57227 -1.5625,0.71875 -0.603512,0.14649 -1.265621,0.21875 -1.96875,0.21875 -0.638666,0 -1.201166,-0.0508 -1.6875,-0.15625 -0.492181,-0.10547 -0.917961,-0.25 -1.28125,-0.4375 -0.369133,-0.19336 -0.660148,-0.42969 -0.90625,-0.6875 -0.251944,-0.25781 -0.478507,-0.54492 -0.625,-0.84375 -0.152334,-0.30468 -0.248037,-0.60351 -0.3125,-0.9375 -0.0703,-0.33398 -0.09374,-0.6914 -0.09375,-1.03125 10e-6,-0.5332 0.07227,-0.99023 0.21875,-1.40625 0.146494,-0.41601 0.335947,-0.76366 0.59375,-1.0625 0.251962,-0.30468 0.560555,-0.56249 0.90625,-0.75 0.345711,-0.18749 0.72657,-0.33007 1.125,-0.40625 l 0.09375,1.625 c -0.527336,0.082 -0.939445,0.29102 -1.25,0.625 -0.310539,0.33399 -0.468742,0.82227 -0.46875,1.4375 8e-6,0.45118 0.09766,0.82032 0.25,1.125 0.146492,0.29883 0.35157,0.53125 0.65625,0.71875 0.298835,0.1875 0.699226,0.32422 1.15625,0.40625 0.457037,0.0762 0.978521,0.125 1.59375,0.125 0.544926,0 1.042973,-0.0488 1.5,-0.125 0.457034,-0.082 0.853518,-0.21875 1.1875,-0.40625 0.328127,-0.1875 0.599611,-0.41406 0.78125,-0.71875 0.181642,-0.31054 0.250001,-0.70507 0.25,-1.15625 1e-6,-0.56249 -0.132811,-1.03124 -0.4375,-1.40625 -0.304686,-0.38085 -0.773435,-0.5996 -1.40625,-0.6875 L 19.25,294.6875 z m 1.78125,8.53125 1,0 c 0.04687,0.19923 0.07031,0.39454 0.09375,0.59375 0.02344,0.19337 0.03125,0.40235 0.03125,0.625 0,0.29884 -0.01758,0.56446 -0.09375,0.78125 -0.08203,0.21095 -0.216797,0.36524 -0.375,0.5 -0.164062,0.13477 -0.359374,0.24219 -0.59375,0.3125 -0.240233,0.0703 -0.527342,0.10743 -0.84375,0.125 l 0,0.0625 c 0.304689,0.16993 0.597657,0.35743 0.84375,0.5625 0.246094,0.19922 0.449219,0.41797 0.625,0.6875 0.169922,0.26954 0.3125,0.5918 0.40625,0.9375 0.09375,0.33985 0.125,0.74219 0.125,1.1875 0,0.95508 -0.246094,1.67578 -0.75,2.15625 -0.503905,0.48047 -1.183592,0.71875 -2.0625,0.71875 -0.62695,0 -1.164059,-0.14062 -1.5625,-0.375 -0.404292,-0.24023 -0.708979,-0.52539 -0.9375,-0.90625 -0.22851,-0.38672 -0.380854,-0.85156 -0.46875,-1.34375 -0.08788,-0.49218 -0.144525,-0.99023 -0.15625,-1.5 l -0.03125,-2.125 -0.53125,0 c -0.392571,10e-6 -0.724602,0.043 -1,0.125 -0.275383,0.082 -0.48632,0.20508 -0.65625,0.375 -0.169914,0.16993 -0.29882,0.36719 -0.375,0.625 -0.08202,0.25196 -0.124992,0.56055 -0.125,0.90625 8e-6,0.30469 0.01563,0.59766 0.0625,0.84375 0.04102,0.2461 0.132821,0.44336 0.25,0.625 0.111336,0.18164 0.269539,0.32618 0.46875,0.4375 0.193367,0.11133 0.451179,0.1836 0.75,0.21875 l -0.15625,1.65625 c -0.374993,-0.0586 -0.720695,-0.17969 -1.03125,-0.34375 -0.316398,-0.16406 -0.583976,-0.38867 -0.8125,-0.6875 -0.228506,-0.30468 -0.408194,-0.67383 -0.53125,-1.125 -0.128897,-0.45703 -0.18749,-1.01171 -0.1875,-1.65625 10e-6,-1.19531 0.261728,-2.08398 0.8125,-2.6875 0.54493,-0.60351 1.337898,-0.90624 2.375,-0.90625 l 4.09375,0 c 0.468752,10e-6 0.822267,-0.0644 1.0625,-0.1875 0.234376,-0.12304 0.343751,-0.37304 0.34375,-0.71875 1e-6,-0.0879 0.01172,-0.1621 0,-0.25 -0.01172,-0.0879 -0.04492,-0.16796 -0.0625,-0.25 z m -3.65625,3 0.0625,1.71875 c 0.0059,0.38672 0.0098,0.77344 0.0625,1.125 0.04688,0.34571 0.16602,0.64258 0.3125,0.90625 0.146489,0.26367 0.330082,0.4668 0.59375,0.625 0.263675,0.15235 0.634769,0.25 1.0625,0.25 0.515627,0 0.906252,-0.16211 1.1875,-0.4375 0.281251,-0.28125 0.406251,-0.67187 0.40625,-1.1875 1e-6,-0.5039 -0.06836,-0.9375 -0.25,-1.3125 -0.187499,-0.38085 -0.431639,-0.6914 -0.71875,-0.9375 -0.287107,-0.25195 -0.597654,-0.43945 -0.9375,-0.5625 -0.33984,-0.12304 -0.68945,-0.18749 -1,-0.1875 l -0.78125,0 z M 17.28125,314 c 3.316408,10e-6 4.96875,1.13673 4.96875,3.46875 0,0.72071 -0.117188,1.33204 -0.375,1.8125 -0.263671,0.47461 -0.701171,0.85742 -1.28125,1.15625 l 0,0.0312 c 0.152345,0 0.335939,-0.0117 0.5,0 0.164063,0.006 0.296876,0.0195 0.4375,0.0312 0.140625,0.006 0.275391,0.0195 0.375,0.0312 0.09961,0.006 0.164063,0.0254 0.1875,0.0312 l 0,1.53125 c -0.05273,-0.006 -0.158203,-0.0254 -0.28125,-0.0312 -0.128906,-0.006 -0.261718,-0.0254 -0.4375,-0.0312 -0.17578,-0.006 -0.382811,0 -0.59375,0 -0.210936,-0.006 -0.427733,0 -0.65625,0 l -11.09375,0 0,-1.59375 3.71875,0 c 0.17579,0 0.367196,0.0254 0.53125,0.0312 0.158212,0 0.283212,-0.006 0.40625,0 0.146493,0.006 0.277352,-0.006 0.40625,0 l 0,-0.0312 c -0.609366,-0.29297 -1.048819,-0.67578 -1.3125,-1.15625 -0.263662,-0.48632 -0.37499,-1.09765 -0.375,-1.8125 10e-6,-1.20116 0.378916,-2.06249 1.1875,-2.625 0.808601,-0.56835 2.046881,-0.84374 3.6875,-0.84375 z m 0.0625,1.65625 c -0.656245,10e-6 -1.218744,0.043 -1.6875,0.125 -0.468743,0.082 -0.857415,0.19337 -1.15625,0.375 -0.30468,0.18165 -0.515617,0.40626 -0.65625,0.6875 -0.140617,0.28126 -0.218742,0.62696 -0.21875,1.03125 8e-6,0.41602 0.05274,0.80274 0.1875,1.125 0.134774,0.31641 0.35743,0.56446 0.65625,0.78125 0.298835,0.21094 0.701179,0.38867 1.1875,0.5 0.486334,0.11133 1.07813,0.15625 1.78125,0.15625 0.679691,0 1.255863,-0.0449 1.71875,-0.15625 0.462893,-0.11133 0.832033,-0.28906 1.125,-0.5 0.287111,-0.21679 0.496095,-0.46484 0.625,-0.78125 0.123048,-0.3164 0.187501,-0.68359 0.1875,-1.09375 1e-6,-0.38671 -0.08398,-0.71874 -0.21875,-1 -0.134764,-0.28124 -0.32617,-0.53124 -0.625,-0.71875 -0.298826,-0.18749 -0.712888,-0.31835 -1.1875,-0.40625 -0.480465,-0.0937 -1.039058,-0.12499 -1.71875,-0.125 z m 4.75,8.75 0,1.5 c -0.05859,0.0117 -0.144531,0.0508 -0.25,0.0625 -0.111328,0.006 -0.234375,-0.0117 -0.375,0 -0.140624,0.006 -0.285155,0.0254 -0.4375,0.0312 -0.158202,0.006 -0.316405,10e-6 -0.46875,0 l 0,0.0312 c 0.609376,0.29298 1.048829,0.70118 1.3125,1.1875 0.263672,0.48047 0.375,1.06641 0.375,1.78125 0,1.20117 -0.410156,2.08789 -1.21875,2.65625 -0.808592,0.5625 -2.015622,0.84375 -3.65625,0.84375 -3.316398,0 -4.96874,-1.16797 -4.96875,-3.5 10e-6,-0.7207 0.111338,-1.30078 0.375,-1.78125 0.263681,-0.48046 0.70704,-0.89452 1.28125,-1.1875 -0.05859,10e-6 -0.158195,-0.006 -0.28125,0 -0.128898,10e-6 -0.271476,-0.006 -0.40625,0 l -0.375,0 -0.28125,0 -3.6875,0 0,-1.5625 11.09375,0 0.65625,0 c 0.210939,-0.006 0.41797,-0.0254 0.59375,-0.0312 0.175782,-0.006 0.308594,0.006 0.4375,0 0.123047,-0.006 0.228516,-0.0254 0.28125,-0.0312 z m -4.875,1.625 c -0.673823,10e-6 -1.255853,0.0762 -1.71875,0.1875 -0.468743,0.11134 -0.837883,0.25196 -1.125,0.46875 -0.287101,0.2168 -0.501945,0.4961 -0.625,0.8125 -0.128898,0.31055 -0.187491,0.6836 -0.1875,1.09375 9e-6,0.38672 0.08399,0.71875 0.21875,1 0.134774,0.28125 0.32618,0.5 0.625,0.6875 0.298835,0.1875 0.707038,0.34375 1.1875,0.4375 0.474615,0.0879 1.039068,0.125 1.71875,0.125 0.656254,0 1.218754,-0.043 1.6875,-0.125 0.468753,-0.082 0.851565,-0.22461 1.15625,-0.40625 0.29883,-0.18164 0.515626,-0.40625 0.65625,-0.6875 0.140626,-0.28125 0.218751,-0.62695 0.21875,-1.03125 1e-6,-0.41601 -0.05273,-0.77734 -0.1875,-1.09375 -0.134764,-0.32226 -0.35742,-0.60156 -0.65625,-0.8125 -0.304685,-0.21679 -0.701169,-0.35741 -1.1875,-0.46875 -0.486325,-0.11132 -1.078121,-0.18749 -1.78125,-0.1875 z m 0.21875,8.03125 0.21875,0 0,6.78125 c 0.498051,0 0.953128,-0.0254 1.375,-0.125 0.416018,-0.10547 0.789065,-0.28906 1.09375,-0.5 0.29883,-0.21679 0.51758,-0.47851 0.6875,-0.8125 0.164064,-0.33398 0.250001,-0.75 0.25,-1.21875 1e-6,-0.68554 -0.130858,-1.21484 -0.40625,-1.625 -0.275389,-0.41601 -0.609373,-0.69726 -1.03125,-0.84375 L 20,334.3125 c 0.263674,0.0996 0.54297,0.25587 0.8125,0.4375 0.263673,0.17579 0.501954,0.41993 0.71875,0.71875 0.210938,0.29884 0.390625,0.67384 0.53125,1.125 0.134766,0.44532 0.1875,0.96094 0.1875,1.59375 0,1.40625 -0.412109,2.48047 -1.25,3.21875 -0.837889,0.73242 -2.097653,1.09375 -3.75,1.09375 -0.890619,0 -1.634759,-0.0898 -2.25,-0.3125 -0.621086,-0.22265 -1.113273,-0.51953 -1.5,-0.90625 -0.38671,-0.38672 -0.673819,-0.85937 -0.84375,-1.375 -0.175772,-0.51562 -0.24999,-1.07031 -0.25,-1.65625 10e-6,-0.79687 0.117197,-1.46679 0.375,-2 0.257822,-0.53905 0.605477,-0.95898 1.0625,-1.28125 0.45118,-0.32812 1.009773,-0.55273 1.625,-0.6875 0.61524,-0.14062 1.253912,-0.21874 1.96875,-0.21875 z m -1,1.625 c -1.001946,0.0879 -1.730461,0.35938 -2.1875,0.78125 -0.462882,0.42188 -0.687491,1.02149 -0.6875,1.8125 9e-6,0.26368 0.03712,0.55079 0.125,0.84375 0.08204,0.28711 0.251961,0.53516 0.46875,0.78125 0.216805,0.2461 0.500007,0.45508 0.875,0.625 0.369147,0.16992 0.832037,0.28906 1.40625,0.3125 l 0,-5.15625 z m 1,8.40625 0.21875,0 0,6.78125 c 0.498051,0 0.953128,-0.0566 1.375,-0.15625 0.416018,-0.10547 0.789065,-0.25781 1.09375,-0.46875 0.29883,-0.21679 0.51758,-0.47851 0.6875,-0.8125 0.164064,-0.33398 0.250001,-0.75 0.25,-1.21875 1e-6,-0.68554 -0.130858,-1.24609 -0.40625,-1.65625 -0.275389,-0.41601 -0.609373,-0.69726 -1.03125,-0.84375 l 0.375,-1.375 c 0.263674,0.0996 0.54297,0.22462 0.8125,0.40625 0.263673,0.17579 0.501954,0.41993 0.71875,0.71875 0.210938,0.29884 0.390625,0.67384 0.53125,1.125 0.134766,0.44532 0.1875,0.99219 0.1875,1.625 0,1.40625 -0.412109,2.48047 -1.25,3.21875 -0.837889,0.73242 -2.097653,1.09375 -3.75,1.09375 -0.890619,0 -1.634759,-0.12109 -2.25,-0.34375 -0.621086,-0.22265 -1.113273,-0.51953 -1.5,-0.90625 -0.38671,-0.38672 -0.673819,-0.82812 -0.84375,-1.34375 -0.175772,-0.51562 -0.24999,-1.07031 -0.25,-1.65625 10e-6,-0.79687 0.117197,-1.46679 0.375,-2 0.257822,-0.53905 0.605477,-0.95898 1.0625,-1.28125 0.45118,-0.32812 1.009773,-0.55273 1.625,-0.6875 0.61524,-0.14062 1.253912,-0.21874 1.96875,-0.21875 z m -1,1.625 c -1.001946,0.0879 -1.730461,0.35938 -2.1875,0.78125 -0.462882,0.42188 -0.687491,1.02149 -0.6875,1.8125 9e-6,0.26368 0.03712,0.55079 0.125,0.84375 0.08204,0.28711 0.251961,0.53516 0.46875,0.78125 0.216805,0.2461 0.500007,0.45508 0.875,0.625 0.369147,0.16992 0.832037,0.25781 1.40625,0.28125 l 0,-5.125 z m -6.75,8.3125 1.375,0 0,7.125 4.625,0 0,-6.90625 1.375,0 0,6.90625 5.03125,0 0,1.65625 -12.40625,0 0,-8.78125 z"
           style="fill:#660000;fill-opacity:1;stroke:none" />
        <path
           style="fill:none;stroke:#660000;stroke-width:2;stroke-miterlimit:4;stroke-opacity:1;stroke-dasharray:none"
           d="m 253.57877,324.34718 0,33 126,0 0,-33"
           id="path3654"
           sodipodi:nodetypes="cccc" />
      </g>
    </g>
    <g
       id="g2931"
       transform="translate(-8.0000025,25.000232)"
       style="filter:url(#filter3905)">
      <path
         id="path2927"
         style="fill:#ffffff;fill-opacity:1;stroke:none"
         d="m 506.55377,156.08054 30.06227,0 c 1.07338,0 1.9375,0.86412 1.9375,1.9375 l 0,120.125 c 0,1.07337 -0.86412,1.9375 -1.9375,1.9375 l -30.06227,0 c 0,0 0,-124 0,-124 z"
         sodipodi:nodetypes="ccccccc" />
      <rect
         transform="matrix(0,-1,1,0,0,0)"
         style="fill:#8d8d8d;fill-opacity:1;stroke:none"
         id="rect3819"
         width="120"
         height="30"
         x="-278.08054"
         y="506.55377" />
      <text
         transform="matrix(0,-1,1,0,0,0)"
         xml:space="preserve"
         style="font-size:17px;font-weight:bold;fill:#ffffff;-inkscape-font-specification:Bitstream Vera Sans Bold"
         x="-258.18161"
         y="527.57056"
         id="text3823"><tspan
           sodipodi:role="line"
           id="tspan3825"
           x="-258.18161"
           y="527.57056">Updates</tspan></text>
    </g>
    <g
       id="g2937"
       style="filter:url(#filter3905)"
       transform="translate(-8.0000025,22.999992)">
      <path
         sodipodi:nodetypes="ccccccc"
         d="m 506.55377,286.08078 30.06227,0 c 1.07338,0 1.9375,0.86412 1.9375,1.9375 l 0,120.125 c 0,1.07337 -0.86412,1.9375 -1.9375,1.9375 l -30.06227,0 c 0,0 0,-124 0,-124 z"
         style="fill:#ffffff;fill-opacity:1;stroke:none"
         id="path2929" />
      <rect
         transform="matrix(0,-1,1,0,0,0)"
         y="506.55377"
         x="-408.08078"
         height="30"
         width="120"
         id="rect3831"
         style="fill:#000000;fill-opacity:1;stroke:none" />
      <text
         transform="matrix(0,-1,1,0,0,0)"
         xml:space="preserve"
         style="font-size:17px;font-weight:bold;fill:#ffffff;-inkscape-font-specification:Bitstream Vera Sans Bold"
         x="-402.85764"
         y="527.57056"
         id="text3835"><tspan
           sodipodi:role="line"
           id="tspan3837"
           x="-402.85764"
           y="527.57056">Ressources</tspan></text>
    </g>
    <g
       id="g2943"
       transform="translate(-8.0000025,21.000202)"
       style="filter:url(#filter3905)">
      <path
         sodipodi:nodetypes="ccccccc"
         d="m 506.554,416.08057 30.06227,0 c 1.07338,0 1.9375,0.86412 1.9375,1.9375 l 0,120.125 c 0,1.07337 -0.86412,1.9375 -1.9375,1.9375 l -30.06227,0 c 0,0 0,-124 0,-124 z"
         style="fill:#ffffff;fill-opacity:1;stroke:none"
         id="rect2906" />
      <rect
         transform="matrix(0,-1,1,0,0,0)"
         y="506.55377"
         x="-538.08057"
         height="30"
         width="120"
         id="rect3841"
         style="fill:#660000;fill-opacity:1;stroke:none" />
      <text
         xml:space="preserve"
         style="font-size:18px;font-weight:bold;fill:#ffffff;-inkscape-font-specification:Liberation Sans Bold"
         x="-520.2417"
         y="527.6355"
         id="text3845"
         transform="matrix(0,-1,1,0,0,0)"><tspan
           sodipodi:role="line"
           id="tspan3847"
           x="-520.2417"
           y="527.6355"
           style="font-style:normal;font-variant:normal;font-weight:bold;font-stretch:normal;fill:#ffffff;font-family:Liberation Sans;-inkscape-font-specification:Liberation Sans Bold">Feedback</tspan></text>
    </g>
  </g>
</svg>
