<?xml version="1.0" encoding="UTF-8" standalone="no"?>
<!-- Created with Inkscape (http://www.inkscape.org/) -->

<svg
   xmlns:dc="http://purl.org/dc/elements/1.1/"
   xmlns:cc="http://creativecommons.org/ns#"
   xmlns:rdf="http://www.w3.org/1999/02/22-rdf-syntax-ns#"
   xmlns:svg="http://www.w3.org/2000/svg"
   xmlns="http://www.w3.org/2000/svg"
   xmlns:sodipodi="http://sodipodi.sourceforge.net/DTD/sodipodi-0.dtd"
   xmlns:inkscape="http://www.inkscape.org/namespaces/inkscape"
   width="600"
   height="200"
   id="svg2"
   version="1.1"
   inkscape:version="0.47pre0 r21549"
   style="display:inline"
   sodipodi:docname="banner.svg"
   inkscape:output_extension="org.inkscape.output.svg.inkscape"
   inkscape:export-filename="/home/lrbabe/workspace/todoso/website/image/background.png"
   inkscape:export-xdpi="90"
   inkscape:export-ydpi="90">
  <defs
     id="defs4">
    <inkscape:path-effect
       effect="sketch"
       id="path-effect3809"
       is_visible="true"
       nbiter_approxstrokes="3"
       strokelength="20"
       strokelength_rdm="0.3;1"
       strokeoverlap="0.3"
       strokeoverlap_rdm="0.3;1"
       ends_tolerance="0.1;1"
       parallel_offset="1;1"
       tremble_size="1;1"
       tremble_frequency="1"
       nbtangents="5"
       tgt_places_rdmness="1;897053766"
       tgtscale="10"
       tgtlength="30"
       tgtlength_rdm="0.3;1" />
    <inkscape:path-effect
       effect="sketch"
       id="path-effect3807"
       is_visible="true"
       nbiter_approxstrokes="4"
       strokelength="20"
       strokelength_rdm="0.3;1"
       strokeoverlap="0.3"
       strokeoverlap_rdm="0.3;1"
       ends_tolerance="0.1;1"
       parallel_offset="1;1"
       tremble_size="1;1"
       tremble_frequency="1"
       nbtangents="5"
       tgt_places_rdmness="1;1290828297"
       tgtscale="10"
       tgtlength="50"
       tgtlength_rdm="0.3;1" />
    <inkscape:path-effect
       effect="sketch"
       id="path-effect3805"
       is_visible="true"
       nbiter_approxstrokes="3"
       strokelength="20"
       strokelength_rdm="0.3;1"
       strokeoverlap="0.3"
       strokeoverlap_rdm="0.3;1"
       ends_tolerance="0.1;1"
       parallel_offset="1;2123224010"
       tremble_size="1;1"
       tremble_frequency="1"
       nbtangents="3"
       tgt_places_rdmness="1;123058326"
       tgtscale="10"
       tgtlength="30"
       tgtlength_rdm="0.3;1" />
    <inkscape:path-effect
       effect="sketch"
       id="path-effect3803"
       is_visible="true"
       nbiter_approxstrokes="3"
       strokelength="100"
       strokelength_rdm="0.3;1"
       strokeoverlap="0.3"
       strokeoverlap_rdm="0.3;1"
       ends_tolerance="0.1;1"
       parallel_offset="1;1"
       tremble_size="1;1"
       tremble_frequency="1"
       nbtangents="5"
       tgt_places_rdmness="1;1080251036"
       tgtscale="10"
       tgtlength="50"
       tgtlength_rdm="0.3;1" />
    <inkscape:path-effect
       effect="sketch"
       id="path-effect3801"
       is_visible="true"
       nbiter_approxstrokes="3"
       strokelength="20"
       strokelength_rdm="0.3;1"
       strokeoverlap="0.3"
       strokeoverlap_rdm="0.3;1"
       ends_tolerance="0.1;1"
       parallel_offset="1;1"
       tremble_size="1;1"
       tremble_frequency="1"
       nbtangents="5"
       tgt_places_rdmness="1;247597149"
       tgtscale="10"
       tgtlength="30"
       tgtlength_rdm="0.3;1" />
    <inkscape:path-effect
       effect="sketch"
       id="path-effect3771"
       is_visible="true"
       nbiter_approxstrokes="3"
       strokelength="20"
       strokelength_rdm="0.3;1"
       strokeoverlap="0.3"
       strokeoverlap_rdm="0.3;1"
       ends_tolerance="0.1;1"
       parallel_offset="1;1"
       tremble_size="1;495934633"
       tremble_frequency="1"
       nbtangents="4"
       tgt_places_rdmness="1;877450846"
       tgtscale="10"
       tgtlength="50"
       tgtlength_rdm="0.3;1" />
    <inkscape:perspective
       sodipodi:type="inkscape:persp3d"
       inkscape:vp_x="0 : 526.18109 : 1"
       inkscape:vp_y="0 : 1000 : 0"
       inkscape:vp_z="744.09448 : 526.18109 : 1"
       inkscape:persp3d-origin="372.04724 : 350.78739 : 1"
       id="perspective10" />
    <inkscape:perspective
       id="perspective3658"
       inkscape:persp3d-origin="0.5 : 0.33333333 : 1"
       inkscape:vp_z="1 : 0.5 : 1"
       inkscape:vp_y="0 : 1000 : 0"
       inkscape:vp_x="0 : 0.5 : 1"
       sodipodi:type="inkscape:persp3d" />
    <filter
       id="filter3689"
       inkscape:label="Drop shadow"
       inkscape:menu="Textures"
       inkscape:menu-tooltip="Torn edges with a dark inner blur"
       height="1.5"
       y="-0.25"
       width="1.5"
       x="-0.25"
       color-interpolation-filters="sRGB">
      <feTurbulence
         id="feTurbulence3691"
         baseFrequency="0.050000000000000003"
         numOctaves="3"
         type="fractalNoise"
         result="result1" />
      <feDisplacementMap
         id="feDisplacementMap3693"
         in2="result1"
         scale="35"
         result="result5"
         xChannelSelector="R"
         in="SourceGraphic"
         yChannelSelector="G" />
      <feComposite
         id="feComposite3695"
         in2="result5"
         in="SourceGraphic"
         operator="in"
         result="fbSourceGraphic" />
      <feColorMatrix
         id="feColorMatrix3697"
         result="fbSourceGraphicAlpha"
         in="fbSourceGraphic"
         values="0 0 0 -1 0 0 0 0 -1 0 0 0 0 -1 0 0 0 0 1 0" />
      <feGaussianBlur
         id="feGaussianBlur3699"
         result="result6"
         stdDeviation="8"
         in="fbSourceGraphic" />
      <feComposite
         id="feComposite3701"
         in2="result6"
         operator="atop"
         in="fbSourceGraphic"
         result="result8" />
      <feComposite
         id="feComposite3703"
         in2="fbSourceGraphicAlpha"
         in="result8"
         operator="atop"
         result="fbSourceGraphic" />
      <feColorMatrix
         result="fbSourceGraphicAlpha"
         in="fbSourceGraphic"
         values="0 0 0 -1 0 0 0 0 -1 0 0 0 0 -1 0 0 0 0 1 0"
         id="feColorMatrix3719" />
      <feGaussianBlur
         id="feGaussianBlur3721"
         in="fbSourceGraphicAlpha"
         stdDeviation="2.000000"
         result="blur" />
      <feColorMatrix
         id="feColorMatrix3723"
         result="bluralpha"
         type="matrix"
         values="1 0 0 0 0 0 1 0 0 0 0 0 1 0 0 0 0 0 0.500000 0 " />
      <feOffset
         id="feOffset3725"
         in="bluralpha"
         dx="-3.000000"
         dy="-3.000000"
         result="offsetBlur" />
      <feMerge
         id="feMerge3727">
        <feMergeNode
           id="feMergeNode3729"
           in="offsetBlur" />
        <feMergeNode
           id="feMergeNode3731"
           in="fbSourceGraphic" />
      </feMerge>
    </filter>
    <filter
       id="filter3917"
       inkscape:label="Inkblot"
       inkscape:menu="Textures"
       inkscape:menu-tooltip="Inkblot on tissue or rough paper"
       height="1.3"
       y="-0.15000001"
       width="1.3"
       x="-0.15000001"
       color-interpolation-filters="sRGB">
      <feGaussianBlur
         id="feGaussianBlur3919"
         result="result1"
         in="SourceGraphic"
         stdDeviation="4" />
      <feTurbulence
         id="feTurbulence3921"
         result="result0"
         numOctaves="4"
         baseFrequency="0.050000000000000003"
         type="fractalNoise" />
      <feDisplacementMap
         id="feDisplacementMap3923"
         in2="result0"
         result="result2"
         scale="20"
         yChannelSelector="G"
         xChannelSelector="R"
         in="result1" />
      <feGaussianBlur
         id="feGaussianBlur3925"
         result="result4"
         in="SourceGraphic"
         stdDeviation="3" />
      <feComposite
         id="feComposite3927"
         in2="result2"
         in="result4"
         operator="arithmetic"
         k2="-0.25"
         k3="0.5"
         k1="1.5"
         result="result5"
         k4="0" />
    </filter>
    <filter
       id="filter3929"
       inkscape:label="Inkblot"
       inkscape:menu="Textures"
       inkscape:menu-tooltip="Inkblot on tissue or rough paper"
       height="1.3"
       y="-0.15000001"
       width="1.3"
       x="-0.15000001"
       color-interpolation-filters="sRGB">
      <feGaussianBlur
         id="feGaussianBlur3931"
         result="result1"
         in="SourceGraphic"
         stdDeviation="4" />
      <feTurbulence
         id="feTurbulence3933"
         result="result0"
         numOctaves="4"
         baseFrequency="0.050000000000000003"
         type="fractalNoise" />
      <feDisplacementMap
         id="feDisplacementMap3935"
         in2="result0"
         result="result2"
         scale="20"
         yChannelSelector="G"
         xChannelSelector="R"
         in="result1" />
      <feGaussianBlur
         id="feGaussianBlur3937"
         result="result4"
         in="SourceGraphic"
         stdDeviation="3" />
      <feComposite
         id="feComposite3939"
         in2="result2"
         in="result4"
         operator="arithmetic"
         k2="-0.25"
         k3="0.5"
         k1="1.5"
         result="result5"
         k4="0" />
    </filter>
    <filter
       id="filter3941"
       inkscape:label="Inkblot"
       inkscape:menu="Textures"
       inkscape:menu-tooltip="Inkblot on tissue or rough paper"
       height="1.3"
       y="-0.15000001"
       width="1.3"
       x="-0.15000001"
       color-interpolation-filters="sRGB">
      <feGaussianBlur
         id="feGaussianBlur3943"
         result="result1"
         in="SourceGraphic"
         stdDeviation="4" />
      <feTurbulence
         id="feTurbulence3945"
         result="result0"
         numOctaves="4"
         baseFrequency="0.050000000000000003"
         type="fractalNoise" />
      <feDisplacementMap
         id="feDisplacementMap3947"
         in2="result0"
         result="result2"
         scale="20"
         yChannelSelector="G"
         xChannelSelector="R"
         in="result1" />
      <feGaussianBlur
         id="feGaussianBlur3949"
         result="result4"
         in="SourceGraphic"
         stdDeviation="3" />
      <feComposite
         id="feComposite3951"
         in2="result2"
         in="result4"
         operator="arithmetic"
         k2="-0.25"
         k3="0.5"
         k1="1.5"
         result="result5"
         k4="0" />
    </filter>
    <filter
       id="filter3953"
       inkscape:label="Inkblot"
       inkscape:menu="Textures"
       inkscape:menu-tooltip="Inkblot on tissue or rough paper"
       height="1.3"
       y="-0.15000001"
       width="1.3"
       x="-0.15000001"
       color-interpolation-filters="sRGB">
      <feGaussianBlur
         id="feGaussianBlur3955"
         result="result1"
         in="SourceGraphic"
         stdDeviation="4" />
      <feTurbulence
         id="feTurbulence3957"
         result="result0"
         numOctaves="4"
         baseFrequency="0.050000000000000003"
         type="fractalNoise" />
      <feDisplacementMap
         id="feDisplacementMap3959"
         in2="result0"
         result="result2"
         scale="20"
         yChannelSelector="G"
         xChannelSelector="R"
         in="result1" />
      <feGaussianBlur
         id="feGaussianBlur3961"
         result="result4"
         in="SourceGraphic"
         stdDeviation="3" />
      <feComposite
         id="feComposite3963"
         in2="result2"
         in="result4"
         operator="arithmetic"
         k2="-0.25"
         k3="0.5"
         k1="1.5"
         result="result5"
         k4="0" />
    </filter>
    <filter
       id="filter3965"
       inkscape:label="Inkblot"
       inkscape:menu="Textures"
       inkscape:menu-tooltip="Inkblot on tissue or rough paper"
       height="1.3"
       y="-0.15000001"
       width="1.3"
       x="-0.15000001"
       color-interpolation-filters="sRGB">
      <feGaussianBlur
         id="feGaussianBlur3967"
         result="result1"
         in="SourceGraphic"
         stdDeviation="4" />
      <feTurbulence
         id="feTurbulence3969"
         result="result0"
         numOctaves="4"
         baseFrequency="0.050000000000000003"
         type="fractalNoise" />
      <feDisplacementMap
         id="feDisplacementMap3971"
         in2="result0"
         result="result2"
         scale="20"
         yChannelSelector="G"
         xChannelSelector="R"
         in="result1" />
      <feGaussianBlur
         id="feGaussianBlur3973"
         result="result4"
         in="SourceGraphic"
         stdDeviation="3" />
      <feComposite
         id="feComposite3975"
         in2="result2"
         in="result4"
         operator="arithmetic"
         k2="-0.25"
         k3="0.5"
         k1="1.5"
         result="result5"
         k4="0" />
    </filter>
    <filter
       id="filter3977"
       inkscape:label="Inkblot"
       inkscape:menu="Textures"
       inkscape:menu-tooltip="Inkblot on tissue or rough paper"
       height="1.3"
       y="-0.15000001"
       width="1.3"
       x="-0.15000001"
       color-interpolation-filters="sRGB">
      <feGaussianBlur
         id="feGaussianBlur3979"
         result="result1"
         in="SourceGraphic"
         stdDeviation="4" />
      <feTurbulence
         id="feTurbulence3981"
         result="result0"
         numOctaves="4"
         baseFrequency="0.050000000000000003"
         type="fractalNoise" />
      <feDisplacementMap
         id="feDisplacementMap3983"
         in2="result0"
         result="result2"
         scale="20"
         yChannelSelector="G"
         xChannelSelector="R"
         in="result1" />
      <feGaussianBlur
         id="feGaussianBlur3985"
         result="result4"
         in="SourceGraphic"
         stdDeviation="3" />
      <feComposite
         id="feComposite3987"
         in2="result2"
         in="result4"
         operator="arithmetic"
         k2="-0.25"
         k3="0.5"
         k1="1.5"
         result="result5"
         k4="0" />
    </filter>
    <filter
       id="filter4188"
       inkscape:label="Inkblot"
       inkscape:menu="Textures"
       inkscape:menu-tooltip="Inkblot on tissue or rough paper"
       height="1.3"
       y="-0.15000001"
       width="1.3"
       x="-0.15000001">
      <feGaussianBlur
         id="feGaussianBlur4190"
         result="result1"
         in="SourceGraphic"
         stdDeviation="4" />
      <feTurbulence
         id="feTurbulence4192"
         result="result0"
         numOctaves="4"
         baseFrequency="0.050000000000000003"
         type="fractalNoise" />
      <feDisplacementMap
         id="feDisplacementMap4194"
         in2="result0"
         result="result2"
         scale="20"
         yChannelSelector="G"
         xChannelSelector="R"
         in="result1" />
      <feGaussianBlur
         id="feGaussianBlur4196"
         result="result4"
         in="SourceGraphic"
         stdDeviation="3" />
      <feComposite
         id="feComposite4198"
         in2="result2"
         in="result4"
         operator="arithmetic"
         k2="-0.25"
         k3="0.5"
         k1="1.5"
         result="result5" />
    </filter>
  </defs>
  <sodipodi:namedview
     id="base"
     pagecolor="#ffffff"
     bordercolor="#666666"
     borderopacity="1.0"
     inkscape:pageopacity="0.0"
     inkscape:pageshadow="2"
     inkscape:zoom="0.98994949"
     inkscape:cx="311.91389"
     inkscape:cy="57.29044"
     inkscape:document-units="px"
     inkscape:current-layer="g3679"
     showgrid="false"
     inkscape:window-width="1280"
     inkscape:window-height="776"
     inkscape:window-x="0"
     inkscape:window-y="24"
     inkscape:window-maximized="1"
     borderlayer="true" />
  <metadata
     id="metadata7">
    <rdf:RDF>
      <cc:Work
         rdf:about="">
        <dc:format>image/svg+xml</dc:format>
        <dc:type
           rdf:resource="http://purl.org/dc/dcmitype/StillImage" />
        <dc:title></dc:title>
      </cc:Work>
    </rdf:RDF>
  </metadata>
  <g
     inkscape:label="placeholders"
     inkscape:groupmode="layer"
     id="layer1"
     transform="translate(0,-852.36218)"
     style="display:none"
     sodipodi:insensitive="true">
    <rect
       style="fill:none;stroke:#000000;stroke-opacity:1"
       id="rect2816"
       width="580"
       height="180"
       x="10"
       y="862.36218"
       ry="50.225826" />
    <path
       id="path3674"
       d="m 259.29622,965.41827 c -2.52268,-0.9264 -3.77122,-1.86958 -5.11081,-3.86086 -1.02767,-1.52764 -1.22014,-2.27793 -1.22014,-4.75619 0,-2.55955 0.17367,-3.18888 1.33473,-4.83632 2.91492,-4.13605 8.79278,-5.47687 13.56773,-3.09498 6.93631,3.46005 7.0847,12.4857 0.26156,15.90993 -2.29445,1.15148 -6.59041,1.46197 -8.83307,0.63842 z m 5.30668,-1.9387 c 1.79084,-1.11956 2.59153,-8.54264 1.25968,-11.67829 -1.2734,-2.99805 -4.4954,-2.82865 -5.76932,0.30334 -1.34026,3.29509 -0.59881,10.24158 1.21413,11.37495 0.29577,0.18489 1.03726,0.33618 1.64776,0.33618 0.61049,0 1.35198,-0.15129 1.64775,-0.33618 z m 48.81156,2.085 c -3.67544,-1.08374 -6.14204,-4.0989 -6.41747,-7.8447 -0.24877,-3.38324 0.45956,-5.26199 2.77578,-7.36223 5.02118,-4.55301 13.57779,-3.12509 16.40598,2.73782 0.87385,1.81153 0.92289,5.473 0.0986,7.36277 -1.82862,4.19223 -7.85263,6.58365 -12.86287,5.10634 z m 5.9128,-3.12612 c 1.77259,-2.86734 1.67786,-9.46733 -0.16615,-11.57622 -1.18235,-1.35218 -3.09465,-1.47516 -4.31231,-0.27732 -1.31565,1.29421 -1.9888,5.67513 -1.37274,8.93386 0.61117,3.2329 1.48602,4.31036 3.49978,4.31036 1.2006,0 1.65947,-0.27138 2.35142,-1.39068 z m 18.88498,2.98917 c -0.97678,-0.31485 -2.24437,-0.82015 -2.81685,-1.1229 -0.90132,-0.47662 -1.17305,-0.42828 -2.02659,0.36052 -0.54215,0.50103 -1.42239,0.91096 -1.95609,0.91096 -0.94158,0 -0.97037,-0.14903 -0.97037,-5.02281 0,-4.71444 0.054,-5.0228 0.87897,-5.0228 0.58998,0 1.18935,0.61028 1.82305,1.85625 1.09978,2.16238 3.66252,4.93682 5.37883,5.82314 0.65942,0.34054 2.32311,0.61915 3.69711,0.61915 2.16914,0 2.66911,-0.16815 3.796,-1.2767 0.85105,-0.83718 1.29784,-1.72268 1.29784,-2.5722 0,-2.31419 -1.15968,-3.12065 -6.15299,-4.27894 -7.9606,-1.84659 -10.33522,-3.77701 -10.61688,-8.63086 -0.19821,-3.41563 0.76395,-5.25553 3.68414,-7.04501 1.91949,-1.17625 2.50513,-1.30967 5.725,-1.30419 2.60287,0.005 3.99188,0.22189 5.06359,0.79276 1.35288,0.72065 1.56581,0.7293 2.53734,0.10309 0.5833,-0.37596 1.46716,-0.68357 1.96415,-0.68357 0.95015,0 0.91263,-0.26504 1.09786,7.75258 0.0211,0.91413 -0.20481,1.23367 -0.94561,1.33738 -0.72303,0.10122 -1.16885,-0.23576 -1.73355,-1.3103 -1.23903,-2.35771 -3.2954,-4.62669 -4.85151,-5.35308 -0.80062,-0.37374 -2.4835,-0.67952 -3.73972,-0.67952 -1.83307,0 -2.49926,0.21169 -3.37387,1.07206 -1.31531,1.2939 -1.47472,3.69649 -0.31282,4.7145 0.42735,0.37442 3.10979,1.27798 5.961,2.0079 8.2612,2.11487 9.91182,3.59223 9.91182,8.87128 0,3.07802 -0.10797,3.47561 -1.35564,4.99205 -0.74561,0.90622 -2.14014,2.04816 -3.09895,2.53764 -2.12556,1.0851 -6.38747,1.3503 -8.86526,0.55162 z m 23.30685,0.20344 c -3.27528,-1.05716 -5.29087,-2.75324 -6.41385,-5.39718 -1.30099,-3.06301 -0.60338,-7.02265 1.66497,-9.45036 1.61191,-1.72513 5.11086,-3.10564 7.88354,-3.11044 10.2922,-0.0178 14.04951,12.61438 5.09517,17.13012 -1.91416,0.96533 -6.40449,1.41702 -8.22983,0.82786 z m 5.50892,-3.25311 c 1.17239,-1.55099 1.53986,-7.43119 0.63224,-10.11722 -1.14936,-3.40149 -4.84834,-3.53654 -6.00223,-0.21913 -0.57345,1.64869 -0.74641,6.49241 -0.3087,8.64533 0.65181,3.20596 3.8203,4.14949 5.67869,1.69102 z m -136.40436,2.21999 c 0.0843,-0.5816 0.50195,-1.03125 1.02987,-1.10892 0.48839,-0.0719 1.34101,-0.22589 1.89471,-0.34227 l 1.00672,-0.21161 -0.11873,-10.79971 -0.11873,-10.79971 -1.19777,-0.136 c -1.80675,-0.20514 -4.21711,2.18668 -5.1988,5.1588 -0.62286,1.88573 -1.01359,2.4341 -1.81731,2.55053 -1.00701,0.14588 -1.01913,0.0992 -0.7371,-2.83897 0.15772,-1.64302 0.28819,-3.92089 0.28992,-5.06193 l 0.003,-2.07464 12.38912,0 12.38913,0 0.32005,4.61897 c 0.32793,4.73287 0.0707,5.80295 -1.27287,5.29575 -0.35969,-0.13577 -0.7923,-0.89891 -0.96137,-1.69586 -0.74981,-3.53451 -3.55371,-6.39242 -5.84614,-5.95876 -0.75573,0.14295 -0.82038,0.87719 -0.93128,10.5758 -0.0807,7.06066 0.0373,10.60769 0.36607,10.99732 0.26687,0.31633 1.11969,0.63564 1.89513,0.70959 1.0725,0.10226 1.44388,0.36962 1.5518,1.11715 l 0.14188,0.98273 -7.60967,0 -7.60966,0 0.14187,-0.97826 z m 44.64214,0.42398 c -0.32692,-0.83805 0.48675,-1.62955 1.67518,-1.62955 1.90025,0 1.99798,-0.5448 1.99798,-11.13752 0,-10.59272 -0.0977,-11.13752 -1.99798,-11.13752 -1.16246,0 -2.00419,-0.78612 -1.69377,-1.58189 0.18692,-0.47919 1.78689,-0.60125 7.84621,-0.59863 8.85532,0.004 12.6544,0.50126 15.25615,1.9975 1.98917,1.14397 4.08991,3.80408 4.93868,6.25373 0.76289,2.20177 0.6377,7.83102 -0.22984,10.33568 -0.92304,2.66483 -4.50431,6.30099 -7.02565,7.13332 -1.15838,0.3824 -5.03398,0.66072 -11.14478,0.80037 -8.01996,0.18327 -9.40527,0.12057 -9.62218,-0.43549 z m 17.77596,-2.77794 c 2.64366,-1.90042 4.02224,-7.65188 3.2004,-13.35222 -0.77056,-5.34471 -2.63721,-7.37292 -7.0763,-7.68879 -2.55349,-0.1817 -2.67916,-0.14203 -3.11393,0.98286 -0.25423,0.65781 -0.45305,5.07634 -0.45305,10.06902 0,4.99268 0.19882,9.41121 0.45305,10.06903 0.43477,1.12488 0.56044,1.16455 3.11393,0.98285 1.71404,-0.12196 3.09323,-0.50013 3.8759,-1.06275 z"
       style="fill:none;stroke:#000000;stroke-width:1.00000012;stroke-opacity:1" />
  </g>
  <g
     transform="translate(0,-852.36218)"
     id="g3679"
     inkscape:groupmode="layer"
     inkscape:label="background"
     style="display:inline">
    <path
       style="fill:#999999;fill-opacity:1;stroke:none;filter:url(#filter4188)"
       d="M 26.65625,10 C 17.429714,10 10,17.429714 10,26.65625 l 0,146.6875 C 10,182.57029 17.429714,190 26.65625,190 l 546.6875,0 C 582.57029,190 590,182.57029 590,173.34375 l 0,-146.6875 C 590,17.429714 582.57029,10 573.34375,10 l -546.6875,0 z"
       transform="translate(0,852.36218)"
       id="rect3681"
       inkscape:export-filename="/home/lrbabe/workspace/todoso/website/image/background.png"
       inkscape:export-xdpi="90"
       inkscape:export-ydpi="90" />
  </g>
  <g
     style="display:inline"
     transform="translate(0,-852.36218)"
     id="g3811"
     inkscape:groupmode="layer"
     inkscape:label="ink"
     sodipodi:insensitive="true">
    <g
       id="So"
       inkscape:export-xdpi="90"
       inkscape:export-ydpi="90">
      <path
         inkscape:original-d="m 338.21224,965.42762 c -0.97678,-0.31485 -2.24437,-0.82015 -2.81685,-1.1229 -0.90132,-0.47662 -1.17305,-0.42828 -2.02659,0.36052 -0.54215,0.50103 -1.42239,0.91096 -1.95609,0.91096 -0.94158,0 -0.97037,-0.14903 -0.97037,-5.02281 0,-4.71444 0.054,-5.0228 0.87897,-5.0228 0.58998,0 1.18935,0.61028 1.82305,1.85625 1.09978,2.16238 3.66252,4.93682 5.37883,5.82314 0.65942,0.34054 2.32311,0.61915 3.69711,0.61915 2.16914,0 2.66911,-0.16815 3.796,-1.2767 0.85105,-0.83718 1.29784,-1.72268 1.29784,-2.5722 0,-2.31419 -1.15968,-3.12065 -6.15299,-4.27894 -7.9606,-1.84659 -10.33522,-3.77701 -10.61688,-8.63086 -0.19821,-3.41563 0.76395,-5.25553 3.68414,-7.04501 1.91949,-1.17625 2.50513,-1.30967 5.725,-1.30419 2.60287,0.005 3.99188,0.22189 5.06359,0.79276 1.35288,0.72065 1.56581,0.7293 2.53734,0.10309 0.5833,-0.37596 1.46716,-0.68357 1.96415,-0.68357 0.95015,0 0.91263,-0.26504 1.09786,7.75258 0.0211,0.91413 -0.20481,1.23367 -0.94561,1.33738 -0.72303,0.10122 -1.16885,-0.23576 -1.73355,-1.3103 -1.23903,-2.35771 -3.2954,-4.62669 -4.85151,-5.35308 -0.80062,-0.37374 -2.4835,-0.67952 -3.73972,-0.67952 -1.83307,0 -2.49926,0.21169 -3.37387,1.07206 -1.31531,1.2939 -1.47472,3.69649 -0.31282,4.7145 0.42735,0.37442 3.10979,1.27798 5.961,2.0079 8.2612,2.11487 9.91182,3.59223 9.91182,8.87128 0,3.07802 -0.10797,3.47561 -1.35564,4.99205 -0.74561,0.90622 -2.14014,2.04816 -3.09895,2.53764 -2.12556,1.0851 -6.38747,1.3503 -8.86526,0.55162 z"
         inkscape:path-effect="#path-effect3807"
         id="path3755"
         d="m 337.59261,966.56869 c -0.60804,-0.26771 -1.18961,-0.54197 -1.52577,-0.7342 -0.43663,-0.24967 -0.72436,-0.36156 -1.00637,-0.31513 -0.28201,0.0464 -0.5576,0.2506 -0.97941,0.63926 -0.53584,0.49375 -1.41721,0.90021 -1.95436,0.89982 -0.23691,-1.7e-4 -0.41676,-0.009 -0.55346,-0.0993 -0.13671,-0.0899 -0.23035,-0.26063 -0.29726,-0.5828 -0.13382,-0.64435 -0.15773,-1.89418 -0.23275,-4.30532 -0.0725,-2.33033 -0.10938,-3.57339 -0.0174,-4.23505 m -0.36475,1.83144 c -0.0399,-2.13549 -0.01,-3.28432 0.10309,-3.91307 0.0601,-0.33386 0.14587,-0.51968 0.26838,-0.6222 0.12251,-0.10252 0.28204,-0.12167 0.49072,-0.12127 0.59698,0.001 1.20501,0.6129 1.87394,1.87213 0.58047,1.0927 1.54661,2.3481 2.5992,3.44892 0.59622,0.62355 1.21952,1.19713 1.81264,1.66164 m -3.50057,-1.01648 c 0.14932,0.18247 0.30298,0.36185 0.45965,0.53672 0.93918,1.04831 1.98871,1.93358 2.83996,2.35335 0.65411,0.32256 2.31908,0.55744 3.71125,0.51165 1.09891,-0.0361 1.78035,-0.10403 2.32949,-0.30751 0.54915,-0.20348 0.96749,-0.5436 1.55126,-1.13491 0.70081,-0.70983 1.14385,-1.4469 1.30784,-2.17044 m -0.79495,3.2117 c 0.22436,-0.15235 0.45511,-0.34172 0.71729,-0.57601 0.89773,-0.80218 1.36795,-1.66883 1.38664,-2.50271 0.0255,-1.13581 -0.25454,-1.90652 -1.15618,-2.52904 -0.90164,-0.62252 -2.43119,-1.10109 -4.90806,-1.65207 -2.82139,-0.62761 -4.91169,-1.25395 -6.42951,-2.00979 m 3.48043,0.008 c -3.27309,-0.89676 -5.32912,-1.7889 -6.65556,-2.97097 -1.51835,-1.35309 -2.0595,-3.07313 -1.956,-5.56124 0.0571,-1.37402 0.28294,-2.50592 0.73253,-3.49023 m -0.37196,5.55608 c -0.0441,-0.27506 -0.0778,-0.56236 -0.10197,-0.86289 -0.13491,-1.68003 0.0703,-3.02052 0.67975,-4.17518 0.60949,-1.15466 1.62678,-2.12744 3.18714,-3.15681 1.02564,-0.67661 1.70228,-1.07079 2.55301,-1.33265 0.8425,-0.25933 1.85734,-0.39047 3.58889,-0.58797 m -4.94149,1.05473 c 0.0619,-0.0171 0.12479,-0.0331 0.18882,-0.0481 0.76701,-0.17963 1.69684,-0.21185 3.31863,-0.21681 2.62205,-0.007 4.08491,0.19251 5.21734,0.74827 0.71476,0.35079 1.13156,0.52695 1.49607,0.53584 0.36451,0.009 0.67976,-0.15016 1.20465,-0.47287 0.63029,-0.38749 1.58218,-0.71197 2.11834,-0.72182 0.25626,-0.005 0.44489,-0.0245 0.59145,0.0725 0.13802,0.0913 0.24147,0.28555 0.34208,0.68999 m -1.74649,-0.94965 c 0.59551,-0.36029 1.43383,-0.64258 1.91134,-0.6404 0.23851,0.001 0.41446,-0.0143 0.54742,0.0875 0.13295,0.10184 0.22335,0.32083 0.28649,0.79559 0.12627,0.9495 0.16791,2.89393 0.0564,7.13653 -0.0254,0.96744 -0.26455,1.30194 -1.05078,1.45748 -0.65198,0.12898 -1.08914,-0.0752 -1.60598,-0.73685 m 2.14161,0.53655 c -0.11051,0.3583 -0.36812,0.52018 -0.83867,0.59242 -0.70894,0.10883 -1.14684,-0.22355 -1.70537,-1.30536 -1.22551,-2.37366 -3.33729,-4.75068 -4.93418,-5.56006 -0.8216,-0.41644 -2.55018,-0.81563 -3.84341,-0.89743 -1.88706,-0.11937 -2.57252,0.0443 -3.48262,0.80919 -0.04,0.0336 -0.0789,0.0681 -0.11691,0.10351 m 5.39587,-1.33999 c -0.44571,-0.0324 -0.88732,-0.044 -1.28483,-0.0284 -1.85179,0.0729 -2.50779,0.29862 -3.36451,1.19363 -0.6442,0.673 -0.99113,1.62115 -1.02319,2.53399 -0.0321,0.91285 0.24875,1.78922 0.86227,2.32043 0.11283,0.0977 0.37228,0.23227 0.74602,0.39285 0.37373,0.16057 0.86173,0.34708 1.4312,0.54907 1.13892,0.40397 2.60489,0.87046 4.12392,1.31773 0.63329,0.18647 1.2315,0.37149 1.79599,0.55625 m -5.76249,-1.12241 c 0.97717,0.30672 2.09098,0.62458 3.21499,0.91076 2.11254,0.53787 3.75965,1.0167 5.06723,1.52349 1.30759,0.50679 2.27264,1.04073 2.98125,1.67423 0.70862,0.6335 1.15946,1.36608 1.42899,2.2642 0.14665,0.48864 0.2396,1.02624 0.29185,1.62354 m -2.49122,-4.68795 c 0.59797,0.60181 1.00191,1.27507 1.26752,2.06674 0.30919,0.92154 0.4304,2.00324 0.43468,3.30446 0.005,1.51738 -0.0334,2.35917 -0.22433,3.01148 -0.19093,0.65232 -0.53789,1.11174 -1.17938,1.83029 -0.76672,0.8588 -2.19981,1.91503 -3.18132,2.34731 -0.74829,0.32955 -1.7529,0.54932 -2.84763,0.65482 m 4.16665,-0.357 c -0.52709,0.45837 -1.08189,0.87107 -1.53754,1.12529 -1.02525,0.57201 -2.57965,0.96929 -4.17938,1.17308 -1.59973,0.20379 -3.24229,0.21415 -4.44153,-0.0499 0.001,0.003 0.002,0.007 0.003,0.0104 -0.94526,-0.20722 -2.16329,-0.54436 -2.70911,-0.75996 -0.42966,-0.1697 -0.70973,-0.23487 -0.98353,-0.14127 -0.27379,0.0936 -0.53963,0.35172 -0.9358,0.83798 -0.0648,0.0796 -0.135,0.15825 -0.20914,0.23521 m 4.06782,-1.52996 c -0.44413,-0.15195 -0.83507,-0.3006 -1.09174,-0.41791 -0.46838,-0.21406 -0.77102,-0.30746 -1.06769,-0.24256 -0.29667,0.0649 -0.58858,0.28986 -1.03279,0.7121 -0.56431,0.5364 -1.47075,0.99208 -2.01951,1.01969 -0.24204,0.0122 -0.42511,0.0117 -0.5648,-0.0697 -0.13969,-0.0815 -0.23654,-0.24297 -0.30833,-0.54797 -0.14359,-0.61001 -0.18052,-1.80703 -0.26749,-4.05657 -0.0581,-1.50347 -0.10236,-2.49739 -0.0966,-3.16581 m 0.42318,2.0189 c 0.0138,-2.2663 0.008,-3.46637 0.11143,-4.1165 0.0534,-0.33644 0.13404,-0.52369 0.25227,-0.6274 0.11823,-0.10371 0.27354,-0.12395 0.47559,-0.12509 0.578,-0.003 1.16285,0.60333 1.75123,1.85157 0.51056,1.08316 1.36526,2.32573 2.28588,3.41095 0.86574,1.02054 1.79119,1.90057 2.56185,2.37549 m -2.69375,-1.87198 c 0.0233,0.0271 0.0466,0.0541 0.07,0.081 0.96935,1.11543 2.04254,2.06162 2.91037,2.52573 0.66685,0.35665 2.35948,0.66915 3.77781,0.69859 1.11956,0.0232 1.81534,-0.004 2.3774,-0.17048 0.56206,-0.16694 0.99219,-0.47378 1.59748,-1.00605 0.91425,-0.80394 1.41763,-1.65931 1.47296,-2.47768 0.0754,-1.11467 -0.1641,-1.86509 -0.99432,-2.44605 -0.12674,-0.0887 -0.26714,-0.17331 -0.42213,-0.25446 m 1.15086,4.00465 c 0.28403,-0.47244 0.43227,-0.95429 0.43893,-1.42805 0.0162,-1.15133 -0.26778,-1.93935 -1.17598,-2.6014 -0.9082,-0.66204 -2.4424,-1.19718 -4.94776,-1.95108 -3.99418,-1.2019 -6.59403,-2.47866 -8.2153,-4.06134 -0.2247,-0.21935 -0.43074,-0.44535 -0.61928,-0.67929 m 4.61416,2.93233 c -1.88299,-0.57379 -3.27345,-1.21437 -4.28298,-2.00376 -1.60521,-1.25517 -2.24967,-2.8936 -2.34451,-5.19251 -0.0667,-1.61773 0.15529,-2.84689 0.77048,-3.86273 0.6152,-1.01585 1.62439,-1.81692 3.14846,-2.53154 0.0376,-0.0177 0.0748,-0.035 0.11152,-0.052 m -4.06469,2.96584 c 0.11561,-0.46402 0.27962,-0.8935 0.49688,-1.29725 0.59579,-1.10715 1.58948,-2.01884 3.10614,-2.93798 0.99693,-0.60417 1.65308,-0.94635 2.48009,-1.14504 0.82702,-0.1987 1.82396,-0.25406 3.54103,-0.30577 2.5007,-0.0748 3.9868,0.0398 5.12556,0.44052 m -6.34345,1.21551 c 2.19839,-0.003 3.45617,0.20819 4.45772,0.70493 0.70347,0.34891 1.1107,0.52553 1.46759,0.53471 0.35689,0.009 0.66491,-0.14947 1.17452,-0.47047 0.61194,-0.38545 1.53688,-0.70565 2.05796,-0.71283 0.24906,-0.003 0.43282,-0.0223 0.57428,0.0756 0.14146,0.0979 0.24242,0.3122 0.33453,0.77269 0.0921,0.46048 0.17378,1.1678 0.28495,2.24891 0.11118,1.08111 0.24841,2.53786 0.49454,4.47766 0.0204,0.16082 0.031,0.3025 0.0303,0.42726 m 0.0455,-4.76912 c 0.0496,1.07245 0.0945,2.49429 0.13832,4.36841 0.0209,0.8976 -0.20598,1.21255 -0.95029,1.29985 -0.72644,0.0852 -1.1742,-0.26024 -1.75024,-1.36845 -1.26392,-2.43159 -3.36888,-4.82437 -4.95398,-5.6414 -0.62989,-0.32468 -1.79449,-0.63838 -2.88055,-0.8068 m 5.47097,2.30926 c -0.70304,-0.70546 -1.39341,-1.24245 -2.0023,-1.53778 -0.80931,-0.39256 -2.49059,-0.70818 -3.72792,-0.69194 -1.80551,0.0237 -2.44987,0.25982 -3.28352,1.16337 -0.62686,0.67942 -0.95875,1.64253 -0.97889,2.5724 -0.0201,0.92987 0.26902,1.82402 0.88876,2.37095 0.11397,0.10058 0.37561,0.2408 0.75174,0.40862 0.37614,0.16783 0.8667,0.36319 1.43777,0.57288 0.65346,0.23994 1.41236,0.49864 2.22474,0.75498 m -5.44896,-2.33003 c 0.12417,0.43094 0.34518,0.80773 0.66658,1.07771 0.10718,0.09 0.35561,0.20972 0.71259,0.3469 0.35698,0.13718 0.82249,0.29183 1.36379,0.45147 1.08259,0.31927 2.46826,0.65682 3.89563,0.92239 4.13569,0.76946 6.61429,1.32548 8.06071,2.34202 0.67332,0.47321 1.12281,1.03757 1.41115,1.71909 m -5.01151,-2.05049 c 0.98652,0.43049 1.76255,0.89454 2.36371,1.42896 0.72088,0.64087 1.19034,1.38301 1.48581,2.29407 0.29548,0.91107 0.41759,1.9913 0.45205,3.31 0.0402,1.53778 0.0449,2.40674 -0.11288,3.08018 -0.15775,0.67344 -0.47516,1.15179 -1.05814,1.90901 -0.69679,0.90502 -2.01008,2.04307 -2.91744,2.52806 -0.39808,0.21278 -0.87656,0.39282 -1.40592,0.53793 m 5.0241,-5.18486 c -0.061,0.0844 -0.12546,0.17184 -0.19364,0.26316 -0.71383,0.95615 -2.08438,2.17067 -3.03922,2.70678 -1.05839,0.59424 -2.66277,1.00406 -4.32752,1.19974 -1.66475,0.19568 -3.3876,0.17981 -4.65899,-0.10864 -8.4e-4,0.003 -0.002,0.006 -0.003,0.009 -1.00254,-0.22663 -2.30702,-0.59332 -2.8971,-0.82312 -0.46451,-0.18088 -0.76567,-0.25246 -1.06084,-0.16523 -0.0998,0.0295 -0.199,0.0775 -0.30373,0.14671 m 3.3167,1.19511 c -0.50751,-0.19984 -0.96266,-0.39579 -1.24834,-0.54316 -0.45976,-0.23715 -0.75801,-0.34278 -1.0503,-0.29013 -0.2923,0.0527 -0.57929,0.26379 -1.01578,0.66318 -0.55451,0.50737 -1.45008,0.92853 -1.99282,0.93619 -0.23938,0.003 -0.4206,-0.003 -0.5585,-0.0909 -0.1379,-0.0876 -0.23282,-0.25567 -0.30106,-0.57315 -0.13648,-0.63494 -0.16247,-1.87118 -0.21858,-4.23987 -0.0281,-1.18547 -0.0497,-2.07965 -0.0506,-2.75639 m 0.60339,3.5998 c 9.5e-4,-0.0691 0.002,-0.13907 0.003,-0.21 0.0333,-2.42562 0.0561,-3.68963 0.17913,-4.36397 0.0615,-0.33718 0.14736,-0.5249 0.26989,-0.629 0.12253,-0.10411 0.28192,-0.12473 0.49002,-0.12643 0.59529,-0.005 1.20081,0.59984 1.84731,1.84225 0.56099,1.07811 1.49145,2.31281 2.50297,3.38803 1.01153,1.07522 2.1047,1.98939 2.9821,2.42939 0.23819,0.11945 0.60416,0.23065 1.04058,0.3236 m -4.30198,-2.39991 c 0.8832,1.00529 1.8342,1.83794 2.6137,2.25427 0.64297,0.34342 2.27676,0.62077 3.63164,0.60848 1.06947,-0.01 1.72883,-0.0615 2.25857,-0.25058 0.52974,-0.18912 0.93019,-0.51647 1.48251,-1.08572 0.83424,-0.85979 1.26558,-1.76594 1.24851,-2.63532 -0.004,-0.20707 -0.0169,-0.40241 -0.0404,-0.5873 m -1.31484,3.34769 c 0.77543,-0.78037 1.18749,-1.62306 1.1955,-2.43993 0.0115,-1.16668 -0.26737,-1.96367 -1.15827,-2.63932 -0.8909,-0.67565 -2.39486,-1.22992 -4.78862,-2.0111 -2.17625,-0.7102 -3.88806,-1.44758 -5.2345,-2.23717 m 2.87021,-0.0542 c -3.21673,-0.91722 -5.3208,-1.72906 -6.70304,-2.82768 -1.59109,-1.26462 -2.21158,-2.88876 -2.27198,-5.1793 -0.0425,-1.61184 0.19667,-2.84268 0.82448,-3.87079 0.34084,-0.55817 0.79689,-1.05546 1.38642,-1.5178 m -1.98569,6.91303 c -0.06,-1.42088 0.14767,-2.5671 0.68426,-3.55273 0.59078,-1.08515 1.58095,-1.97727 3.08873,-2.86488 0.99109,-0.58345 1.64227,-0.91107 2.4621,-1.0908 0.81983,-0.17973 1.80885,-0.21371 3.49874,-0.20923 0.99249,0.003 1.8206,0.0355 2.52657,0.10431 m -2.12674,-1.79488 c 0.46798,-0.013 1.00885,-0.0131 1.6531,-0.007 2.61944,0.0243 4.00154,0.24784 5.06919,0.826 0.67389,0.36493 1.0631,0.54983 1.40508,0.56595 0.34199,0.0161 0.63641,-0.13633 1.11847,-0.44559 0.57886,-0.37134 1.45601,-0.67236 1.94915,-0.66848 0.2357,0.002 0.41025,-0.0134 0.54191,0.0884 0.13167,0.1018 0.22012,0.32096 0.28253,0.79314 0.0825,0.62427 0.119,1.68961 0.15311,3.51572 m -0.99208,-3.50362 c 0.0675,0.12924 0.12198,0.32368 0.16756,0.61645 0.14601,0.93783 0.23086,2.86458 0.1728,6.99598 -0.0133,0.94209 -0.24979,1.2698 -1.02727,1.40201 -0.75882,0.12903 -1.22441,-0.1928 -1.86401,-1.20988 -1.2108,-1.92539 -3.0912,-3.73521 -4.68264,-4.57843 m 3.55609,2.09944 c -1.25323,-1.87016 -2.85265,-3.47492 -4.1154,-4.05745 -0.79996,-0.36905 -2.47629,-0.65988 -3.7237,-0.64281 -1.8202,0.0249 -2.4796,0.24906 -3.34255,1.13364 -0.6489,0.66516 -1.00846,1.6096 -1.05939,2.51992 -0.0509,0.91031 0.20637,1.78528 0.79277,2.31395 0.0535,0.0483 0.14199,0.10547 0.26137,0.17031 m 0.86501,-5.84536 c -0.52729,0.64154 -0.81743,1.50226 -0.85333,2.33744 -0.039,0.90612 0.22123,1.78094 0.80662,2.31266 0.10765,0.0978 0.35691,0.23261 0.71347,0.39418 0.35655,0.16157 0.82026,0.3499 1.3569,0.5548 1.07329,0.4098 2.43664,0.8872 3.83292,1.34292 2.59544,0.84709 4.50951,1.64513 5.92946,2.50105 m -6.42702,0.6685 c 3.12848,0.93788 5.18103,1.75322 6.4625,2.86491 0.74513,0.64639 1.23412,1.38982 1.55039,2.3002 0.31627,0.91038 0.46036,1.98729 0.5196,3.30067 0.0691,1.53157 0.0882,2.39707 -0.0577,3.06859 -0.14351,0.66067 -0.44393,1.13297 -0.99354,1.86989 m 1.12568,-7.92782 c -0.063,1.36423 -0.11079,2.17558 -0.3003,2.80904 -0.19711,0.65889 -0.54502,1.12819 -1.17538,1.88081 -0.7534,0.89953 -2.1406,2.05321 -3.08826,2.55758 -1.05043,0.55905 -2.62201,0.92885 -4.23333,1.06877 -0.2194,0.019 -0.43958,0.0338 -0.65935,0.0441 m 3.70745,1.84501 c -0.71681,0.15853 -1.51752,0.26067 -2.3435,0.30266 -1.64805,0.0838 -3.40086,-0.0724 -4.71993,-0.4931 -0.002,-5.5e-4 -0.004,-0.001 -0.006,-0.002 -1.04117,-0.33181 -2.42372,-0.86355 -3.05817,-1.18015 -0.49944,-0.24921 -0.82333,-0.36298 -1.14174,-0.3187 -0.31841,0.0443 -0.63562,0.24574 -1.13108,0.62517 -0.62941,0.48202 -1.63012,0.86559 -2.23734,0.84931 -0.26782,-0.007 -0.46989,-0.0218 -0.62814,-0.11708 -0.15825,-0.0953 -0.27542,-0.27188 -0.38655,-0.60612 -0.20592,-0.6193 -0.38244,-1.77593 -0.7524,-3.96682 m 10.03942,5.28577 c -0.88531,-0.29677 -1.92638,-0.71596 -2.42603,-0.98083 -0.43873,-0.23255 -0.72625,-0.33689 -1.00785,-0.28309 -0.2816,0.0538 -0.55658,0.26609 -0.97409,0.66472 -0.53039,0.50641 -1.3989,0.92135 -1.92647,0.92381 -0.23268,0.001 -0.40919,-0.008 -0.54255,-0.097 -0.13336,-0.0895 -0.22334,-0.25967 -0.28244,-0.58173 -0.11821,-0.64412 -0.11694,-1.89671 -0.0876,-4.3268 0.0284,-2.35065 0.071,-3.59928 0.20383,-4.26144 0.0664,-0.33108 0.15563,-0.51559 0.28097,-0.61701 0.12534,-0.10143 0.28744,-0.11961 0.4997,-0.11796 0.27531,0.002 0.55314,0.12992 0.83937,0.38679 m -3.60503,0.48913 c 0.005,-1.77996 0.0467,-2.77793 0.15751,-3.34282 0.0639,-0.3257 0.15176,-0.50684 0.27597,-0.60547 0.12422,-0.0986 0.2853,-0.11416 0.49614,-0.10861 0.60311,0.0159 1.21822,0.64495 1.9009,1.94494 0.5924,1.12806 1.57392,2.43328 2.64615,3.59507 0.83371,0.90335 1.72128,1.71924 2.5109,2.28314 m -2.26873,0.73741 c 0.0204,0.0243 0.0408,0.0484 0.0613,0.0725 0.93606,1.1005 2.00215,2.01637 2.87147,2.45336 0.668,0.3358 2.37445,0.59248 3.82112,0.55609 1.14193,-0.0287 1.8571,-0.0946 2.4361,-0.29623 0.57899,-0.20158 1.02509,-0.54042 1.65887,-1.12989 0.95727,-0.89034 1.49894,-1.82348 1.5911,-2.71945 0.12516,-1.21674 -0.0796,-2.03791 -0.85109,-2.74193 m -0.43216,3.16825 c 0.34012,-0.57954 0.51558,-1.15556 0.51056,-1.71191 -0.0106,-1.1795 -0.29635,-1.96051 -1.19131,-2.58336 -0.89497,-0.62285 -2.39885,-1.08604 -4.75299,-1.52744 -3.75308,-0.70369 -6.07012,-1.38823 -7.49147,-2.52156 -0.002,-0.002 -0.005,-0.004 -0.007,-0.006 m 5.28556,2.78977 c -2.15875,-0.66629 -3.71288,-1.38955 -4.81988,-2.28678 -1.62711,-1.31878 -2.28609,-3.01207 -2.41551,-5.4364 -0.0759,-1.42138 0.0492,-2.57012 0.43251,-3.55637 m -0.78814,2.47328 c -0.14144,-1.5572 0.0278,-2.79573 0.56447,-3.85373 0.55733,-1.09881 1.51316,-2.00528 2.96222,-2.91465 0.95248,-0.59775 1.57616,-0.93489 2.36118,-1.12613 0.78503,-0.19125 1.73371,-0.2387 3.32914,-0.26102 0.36266,-0.005 0.70106,-0.005 1.01774,-5e-4 m -4.23982,-0.11847 c 0.60664,-0.0698 1.35731,-0.0909 2.40611,-0.0937 2.54647,-0.006 3.95816,0.22246 5.0427,0.80139 0.68454,0.36541 1.08315,0.55144 1.43265,0.56841 0.34949,0.017 0.65103,-0.13463 1.14855,-0.44194 0.5974,-0.36902 1.50244,-0.66657 2.0115,-0.66089 0.24331,0.003 0.42304,-0.012 0.56017,0.0904 0.13713,0.10237 0.23269,0.32231 0.3109,0.79588 0.0238,0.14386 0.0459,0.31112 0.067,0.50557 m -2.5116,-0.0498 c 0.42839,-0.1562 0.86866,-0.257 1.16888,-0.25066 0.23804,0.005 0.41449,-0.009 0.54828,0.0944 0.1338,0.10313 0.22484,0.32436 0.29532,0.79656 0.14098,0.94441 0.17975,2.91353 0.4324,6.7728 0.0576,0.88003 -0.15802,1.18944 -0.86311,1.25864 -0.68817,0.0675 -1.1149,-0.28833 -1.61024,-1.42954 -0.53664,-1.23636 -1.25711,-2.46417 -2.01713,-3.49145 m 2.17585,3.64979 c -0.12215,-0.17336 -0.24564,-0.38238 -0.37526,-0.63067 -1.23024,-2.3565 -3.2651,-4.60728 -4.80393,-5.31708 -0.79172,-0.36521 -2.455,-0.65131 -3.69305,-0.6323 -1.80657,0.0277 -2.4613,0.25187 -3.31231,1.13776 -0.63992,0.66615 -0.98881,1.61182 -1.02718,2.52405 -0.0214,0.50942 0.0538,1.00824 0.22905,1.44182 m 1.10121,-5.46722 c -0.51638,0.14701 -0.90019,0.41048 -1.33465,0.84715 -0.63059,0.63381 -0.97103,1.54912 -1.001,2.43351 -0.03,0.8844 0.24886,1.73782 0.85931,2.24675 0.11226,0.0936 0.37057,0.22027 0.74235,0.36959 0.37177,0.14932 0.85697,0.32131 1.42314,0.50542 1.13233,0.36821 2.58933,0.78542 4.10918,1.16104 2.09842,0.51861 3.83101,0.9991 5.24908,1.49809 m -4.74251,-1.67175 c 4.08602,1.01497 6.35933,1.8984 7.64855,3.17007 0.64834,0.6395 1.03768,1.37825 1.22479,2.28313 0.18712,0.90488 0.17123,1.976 -0.001,3.27839 -0.20113,1.51875 -0.3638,2.37261 -0.65715,3.03378 -0.27342,0.61622 -0.66678,1.06446 -1.36554,1.7188 m 2.90632,-5.10317 c 0.0224,0.25704 0.0382,0.5242 0.048,0.80211 0.0528,1.49882 0.0223,2.34312 -0.16234,2.99598 -0.18465,0.65286 -0.52876,1.11412 -1.17702,1.83794 -0.7748,0.86511 -2.24671,1.93352 -3.26613,2.36971 -1.12995,0.48348 -2.83445,0.73114 -4.60332,0.71292 -1.55667,-0.016 -3.15945,-0.23817 -4.44161,-0.65831 m 6.07804,-0.36726 c -0.3826,0.036 -0.77362,0.0609 -1.1666,0.0743 -1.66841,0.0568 -3.37172,-0.0905 -4.62357,-0.49013 -3.3e-4,-10e-6 -6.6e-4,0 -9.9e-4,0 -0.98693,-0.31457 -2.26669,-0.80823 -2.84519,-1.10338 -0.4554,-0.23232 -0.75146,-0.33518 -1.04161,-0.2798 -0.29015,0.0554 -0.57472,0.26968 -1.00779,0.674 -0.55015,0.51363 -1.44184,0.94113 -1.98297,0.95151 -0.23867,0.005 -0.41947,-0.001 -0.55701,-0.0884 -0.13754,-0.0869 -0.23207,-0.25438 -0.29989,-0.57117 -0.12989,-0.60663 -0.15645,-1.75698 -0.21928,-3.9631 m 24.41293,1.10568 -35.90008,-12.95146 m 10.777,15.29562 24.51113,1.17393 m -3.80224,-12.74745 1.56379,3.50401 m -23.63243,-7.71155 10.14368,19.83273 m -18.94881,-26.68171 35.56474,12.99336"
         style="fill:none;stroke:#ffffff;stroke-width:0.5;stroke-miterlimit:4;stroke-opacity:1;stroke-dasharray:none;display:inline" />
      <path
         inkscape:original-d="m 367.02801,962.37795 c 1.17239,-1.55099 1.53986,-7.43119 0.63224,-10.11722 -1.14936,-3.40149 -4.84834,-3.53654 -6.00223,-0.21913 -0.57345,1.64869 -0.74641,6.49241 -0.3087,8.64533 0.65181,3.20596 3.8203,4.14949 5.67869,1.69102 z m -5.50892,3.25311 c -3.27528,-1.05716 -5.29087,-2.75324 -6.41385,-5.39718 -1.30099,-3.06301 -0.60338,-7.02265 1.66497,-9.45036 1.61191,-1.72513 5.11086,-3.10564 7.88354,-3.11044 10.2922,-0.0178 14.04951,12.61438 5.09517,17.13012 -1.91416,0.96533 -6.40449,1.41702 -8.22983,0.82786 z"
         inkscape:path-effect="#path-effect3809"
         d="m 368.17953,962.77539 c 0.0744,-0.21763 0.1438,-0.45168 0.20773,-0.69887 0.21603,-0.83529 0.36853,-1.82001 0.44361,-2.83231 0.15016,-2.02461 -0.0128,-4.15831 -0.49671,-5.49126 -0.61273,-1.68799 -1.86667,-2.55657 -3.12048,-2.58787 -0.90769,-0.0227 -1.81683,0.39461 -2.49216,1.25988 m 3.19933,-3.0271 c -0.34403,-0.16036 -0.70203,-0.24926 -1.05881,-0.26646 -1.22769,-0.0592 -2.4456,0.72797 -3.00051,2.39076 -0.27577,0.82637 -0.43223,2.45897 -0.43866,4.16727 -0.006,1.70829 0.13444,3.49046 0.40398,4.58926 0.0364,0.14857 0.078,0.29244 0.12428,0.43151 m -1.6451,-1.91397 c -0.0208,1.00632 0.0311,1.92904 0.15424,2.59047 0.29207,1.56901 1.24731,2.57539 2.3593,2.87132 1.112,0.29593 2.38245,-0.11666 3.34377,-1.40707 6.9e-4,-0.001 0.001,-0.003 0.002,-0.004 0.30337,-0.4072 0.56189,-1.09408 0.76849,-1.94454 0.17751,-0.73072 0.31655,-1.58212 0.40979,-2.4786 m 0.75288,3.03658 c 0.0113,-0.038 0.0224,-0.0764 0.0334,-0.11515 0.22235,-0.78392 0.38468,-1.72187 0.47397,-2.70028 0.17857,-1.9568 0.0645,-4.07545 -0.37797,-5.40415 -0.56034,-1.68263 -1.76661,-2.55593 -2.96883,-2.58592 -1.20223,-0.03 -2.40563,0.77955 -2.94448,2.47693 -0.1577,0.49677 -0.27345,1.27746 -0.33748,2.19425 m 0.89617,-6.2107 c -0.91759,0.25364 -1.73604,0.99352 -2.16185,2.22522 -0.27955,0.80865 -0.43315,2.406 -0.40735,4.06556 0.0258,1.65956 0.22833,3.37798 0.54514,4.43105 0.47177,1.56814 1.55989,2.57185 2.79956,2.86298 0.35938,0.0844 0.73181,0.10884 1.10689,0.0694 m -3.29338,-1.1194 c 0.38619,1.26126 1.21417,2.0579 2.16353,2.32517 1.11184,0.31301 2.38823,-0.0973 3.37961,-1.41311 0.001,-0.002 0.003,-0.004 0.004,-0.006 0.31313,-0.41555 0.58726,-1.11683 0.81999,-1.99219 0.23272,-0.87535 0.42422,-1.92496 0.5633,-3.02648 0.15534,-1.23027 0.24513,-2.52519 0.24157,-3.6986 m -1.84759,7.19331 c 0.0224,-0.0977 0.0439,-0.19817 0.0647,-0.30111 0.16369,-0.8114 0.27856,-1.77745 0.34412,-2.78142 0.13113,-2.00795 0.0715,-4.16914 -0.31232,-5.52961 -0.48607,-1.72284 -1.61054,-2.628 -2.73181,-2.69501 -0.61062,-0.0365 -1.21915,0.17538 -1.71471,0.6371 m 4.08421,-1.12187 c -0.38643,-0.2229 -0.80287,-0.34236 -1.22147,-0.35796 -1.20095,-0.0448 -2.41403,0.75986 -3.02764,2.46732 -0.30495,0.84858 -0.5375,2.52795 -0.67698,4.30534 -0.13561,1.72811 -0.18114,3.54795 -0.0531,4.71803 m -0.43496,-2.70947 c 0.0428,1.1981 0.13509,2.30173 0.29586,3.06175 0.33798,1.59769 1.28323,2.60845 2.37528,2.90495 1.09204,0.2965 2.32984,-0.1208 3.2223,-1.42482 -7.9e-4,-0.002 -0.002,-0.003 -0.002,-0.005 0.28139,-0.41158 0.50672,-1.10531 0.66877,-1.9651 0.16205,-0.85978 0.26096,-1.88553 0.29347,-2.95487 0.0292,-0.96044 0.005,-1.95589 -0.0741,-2.89419 m -6.27822,10.24252 c -3.15721,-0.91268 -5.03533,-2.54095 -6.02867,-5.02686 -1.15758,-2.89689 -0.33351,-6.62724 2.01103,-8.84599 m -3.00182,4.67155 c 0.36018,-1.71373 1.15495,-3.36984 2.34365,-4.62722 1.63329,-1.72762 5.08832,-3.14465 7.81841,-3.19322 0.87801,-0.0156 1.70804,0.0634 2.48744,0.22412 m -5.02262,-1.15295 c 0.53871,-0.0655 1.06456,-0.0983 1.5645,-0.0922 2.65974,0.0323 4.82175,0.7826 6.46142,1.97599 1.63967,1.19339 2.75087,2.8252 3.26271,4.58596 0.32541,1.11944 0.40826,2.29092 0.22889,3.43303 m -0.94172,-3.19673 c 0.17647,0.36752 0.3279,0.74544 0.45369,1.13102 0.61863,1.89642 0.61667,3.97603 -0.0802,5.92708 -0.69689,1.95104 -2.09305,3.76637 -4.2349,5.21701 -0.71138,0.48181 -1.79452,0.93985 -2.94148,1.32687 m 4.70582,-2.79157 c -0.28153,0.18247 -0.57662,0.35689 -0.88554,0.52264 -0.99487,0.5338 -2.64556,0.96218 -4.28087,1.20334 -1.6353,0.24115 -3.25819,0.29818 -4.20086,0.067 -0.001,0.002 -0.002,0.004 -0.003,0.007 -1.97011,-0.48212 -3.51366,-1.17435 -4.71663,-2.1201 m 4.02787,0.99316 c -2.70079,-1.14896 -4.46946,-2.76898 -5.55905,-5.14272 -1.12884,-2.45923 -1.01788,-5.47273 0.1289,-7.81422 m -0.96911,4.10634 c 0.17021,-1.85617 0.95882,-3.67464 2.27884,-5.00614 1.66149,-1.6759 5.31366,-2.98249 8.26231,-2.88986 1.51439,0.0476 2.90708,0.34328 4.15947,0.83404 m -5.06632,-0.89575 c 0.37631,-0.035 0.74531,-0.0523 1.10184,-0.0496 2.61291,0.0197 4.78062,0.73475 6.43754,1.87586 1.65691,1.14111 2.80046,2.70255 3.34554,4.37298 0.52251,1.60125 0.49463,3.30428 -0.15974,4.81835 m -0.2038,-5.34855 c 0.0129,0.0417 0.0254,0.0835 0.0377,0.12536 0.55962,1.90656 0.52313,3.9569 -0.20236,5.84248 -0.7255,1.88559 -2.14153,3.6019 -4.32578,4.88062 -0.93385,0.5467 -2.49547,1.00901 -4.03631,1.3052 -0.98783,0.18989 -1.96756,0.31049 -2.77349,0.32519 m 5.24822,-1.8807 c -0.83845,0.24404 -1.82669,0.42352 -2.80281,0.52012 -1.55947,0.15433 -3.08632,0.0966 -3.96039,-0.21638 0.001,-6.4e-4 0.003,-0.001 0.004,-0.002 -3.13493,-1.12424 -4.98548,-2.91059 -5.84336,-5.68179 -0.0664,-0.21434 -0.12331,-0.43285 -0.17095,-0.65481 m 2.82218,7.31142 c -2.3391,-1.12561 -3.85515,-2.70506 -4.70116,-4.96371 -1.16434,-3.10849 -0.27327,-7.11623 2.31624,-9.64677 0.20032,-0.19576 0.42501,-0.38816 0.67088,-0.57596 m -2.39935,4.18412 c 0.39382,-1.33535 1.06169,-2.58349 1.97827,-3.58666 1.61378,-1.76623 5.08044,-3.23333 7.81197,-3.35002 2.26433,-0.0967 4.20108,0.42364 5.74704,1.32651 m -4.35857,-1.40263 c 2.15718,0.0335 4.0444,0.76866 5.5532,1.90865 1.68805,1.27541 2.90609,3.06339 3.53975,5.00749 0.63367,1.9441 0.6826,4.0447 0.0438,5.95834 -0.19013,0.56961 -0.44107,1.12272 -0.75526,1.6503 m 0.82489,-5.16327 c 0.11704,1.29102 -0.0636,2.58667 -0.57261,3.77723 -0.74258,1.73668 -2.18407,3.25694 -4.42051,4.15987 -0.95616,0.38603 -2.55614,0.57577 -4.14521,0.53166 -1.58907,-0.0441 -3.16713,-0.31916 -4.0792,-0.77483 1e-5,-0.003 2e-5,-0.007 4e-5,-0.0104 m 4.07479,1.53169 c -0.40208,0.0604 -0.81281,0.10979 -1.22131,0.147 -1.60743,0.14641 -3.17764,0.10558 -4.07979,-0.19208 3.6e-4,-1.1e-4 7.4e-4,-2.2e-4 0.001,-3.2e-4 -3.23594,-1.0679 -5.16509,-2.75954 -6.16966,-5.40618 -0.66484,-1.75159 -0.66377,-3.79819 -0.0872,-5.69232 m 15.65252,13.53753 -3.0925,-28.56507 m -18.62204,13.76267 24.24646,-10.13689 m -10.26586,-9.73743 -1.50918,44.71672 m 18.1016,-22.26582 -11.76108,12.73369 m 12.4096,-11.29046 -15.2764,11.87942"
         style="fill:none;stroke:#ffffff;stroke-width:0.5;stroke-miterlimit:4;stroke-opacity:1;stroke-dasharray:none;display:inline"
         id="path3751" />
      <path
         transform="matrix(0.45444766,0,0,0.45444766,163.17024,519.49564)"
         id="path3831"
         d="m 384.66154,981.30945 c -2.16412,-0.69757 -4.97254,-1.81709 -6.24091,-2.48785 -1.99693,-1.05598 -2.59896,-0.94888 -4.49003,0.79875 -1.20117,1.11007 -3.15139,2.01829 -4.33383,2.01829 -2.08613,0 -2.14992,-0.33018 -2.14992,-11.12834 0,-10.44513 0.11964,-11.12832 1.94741,-11.12832 1.30714,0 2.63508,1.35212 4.03908,4.11264 2.43663,4.79088 8.11454,10.93782 11.91712,12.90152 1.46099,0.75449 5.147,1.37176 8.19118,1.37176 4.80586,0 5.91357,-0.37254 8.41026,-2.8286 1.88556,-1.85483 2.87545,-3.81671 2.87545,-5.69887 0,-5.12723 -2.56934,-6.91399 -13.63233,-9.48025 -17.63719,-4.09123 -22.8983,-8.36819 -23.52234,-19.12219 -0.43914,-7.56754 1.69258,-11.64395 8.16244,-15.60865 4.25275,-2.60605 5.55027,-2.90165 12.68408,-2.88951 5.76682,0.0111 8.84426,0.49161 11.21869,1.75641 2.99739,1.59664 3.46915,1.6158 5.62163,0.2284 1.29234,-0.83296 3.25059,-1.51449 4.3517,-1.51449 2.10511,0 2.02198,-0.58721 2.43237,17.17631 0.0467,2.02531 -0.45377,2.73327 -2.09505,2.96305 -1.60192,0.22425 -2.58966,-0.52235 -3.84079,-2.90305 -2.74514,-5.22365 -7.30116,-10.25072 -10.74881,-11.86008 -1.77382,-0.82804 -5.50235,-1.50551 -8.28558,-1.50551 -4.06128,0 -5.53726,0.46901 -7.47501,2.37521 -2.91415,2.86671 -3.26733,8.1898 -0.69307,10.44526 0.94682,0.82955 6.88992,2.83144 13.20695,4.44862 18.30319,4.68563 21.96024,7.95881 21.96024,19.65486 0,6.81954 -0.23921,7.70043 -3.0035,11.06019 -1.65195,2.00779 -4.74161,4.53782 -6.86591,5.6223 -4.70931,2.4041 -14.15183,2.99167 -19.64152,1.22214 z"
         style="fill:#000000;fill-opacity:1;stroke:none;filter:url(#filter3953)" />
      <path
         transform="matrix(0.45444766,0,0,0.45444766,163.17024,519.49564)"
         d="m 448.50462,974.55273 c 2.5975,-3.43632 3.41165,-16.46426 1.40077,-22.41532 -2.54648,-7.53621 -10.74179,-7.83542 -13.29831,-0.48549 -1.27051,3.65277 -1.65371,14.38432 -0.68394,19.15425 1.44412,7.103 8.4641,9.19344 12.58148,3.74656 z m -12.20535,7.20746 c -7.25658,-2.3422 -11.72224,-6.09997 -14.21027,-11.95778 -2.88242,-6.78629 -1.33682,-15.55911 3.68884,-20.93785 3.57129,-3.82213 11.32342,-6.88073 17.46646,-6.89137 22.803,-0.0394 31.12754,27.94793 11.28866,37.95282 -4.24094,2.13875 -14.18953,3.1395 -18.23369,1.83418 z"
         style="fill:#000000;fill-opacity:1;stroke:none;filter:url(#filter3941)"
         id="path3827" />
    </g>
    <g
       id="To"
       inkscape:export-xdpi="90"
       inkscape:export-ydpi="90">
      <path
         inkscape:original-d="m 264.6029,963.47957 c 1.79084,-1.11956 2.59153,-8.54264 1.25968,-11.67829 -1.2734,-2.99805 -4.4954,-2.82865 -5.76932,0.30334 -1.34026,3.29509 -0.59881,10.24158 1.21413,11.37495 0.29577,0.18489 1.03726,0.33618 1.64776,0.33618 0.61049,0 1.35198,-0.15129 1.64775,-0.33618 z m -5.30668,1.9387 c -2.52268,-0.9264 -3.77122,-1.86958 -5.11081,-3.86086 -1.02767,-1.52764 -1.22014,-2.27793 -1.22014,-4.75619 0,-2.55955 0.17367,-3.18888 1.33473,-4.83632 2.91492,-4.13605 8.79278,-5.47687 13.56773,-3.09498 6.93631,3.46005 7.0847,12.4857 0.26156,15.90993 -2.29445,1.15148 -6.59041,1.46197 -8.83307,0.63842 z"
         inkscape:path-effect="#path-effect3801"
         d="m 266.00932,964.04373 c 0.13552,-0.2587 0.26235,-0.55116 0.37901,-0.87016 0.33955,-0.92845 0.59172,-2.08079 0.72911,-3.28544 0.2748,-2.40931 0.087,-5.02764 -0.62692,-6.57863 -0.68255,-1.48292 -1.84585,-2.17696 -3.00987,-2.107 -0.45219,0.0272 -0.90484,0.16976 -1.33021,0.42615 m 3.25054,-1.4348 c -0.64031,-0.74343 -1.43878,-1.08979 -2.2327,-1.05353 -1.12733,0.0515 -2.24625,0.87405 -2.85073,2.45041 -0.63596,1.65845 -0.70509,4.25266 -0.35915,6.58748 0.0644,0.43439 0.14276,0.85963 0.23386,1.26783 m -1.58815,-1.92377 c -0.0188,0.60391 -0.003,1.20981 0.0443,1.79674 0.0909,1.12263 0.29873,2.17566 0.59828,3.01479 0.29956,0.83913 0.68989,1.46528 1.14731,1.73249 0.2985,0.17436 1.04779,0.30243 1.66768,0.28116 0.61988,-0.0213 1.37584,-0.20072 1.679,-0.39959 7.1e-4,-0.001 0.001,-0.003 0.002,-0.004 0.45906,-0.30123 0.86196,-1.00579 1.19313,-1.95409 0.21428,-0.61361 0.39826,-1.32896 0.54558,-2.10113 m 0.52369,2.86794 c 0.0436,-0.0971 0.0861,-0.19771 0.12749,-0.30156 0.34723,-0.8719 0.61192,-1.97336 0.76847,-3.14426 0.31309,-2.34178 0.1949,-4.96004 -0.4597,-6.51131 -0.62587,-1.4832 -1.74186,-2.17847 -2.85254,-2.1032 -1.11068,0.0753 -2.21952,0.91883 -2.80848,2.53052 -0.0961,0.26299 -0.17861,0.54884 -0.24772,0.85331 m 2.08396,-5.02569 c -0.18843,-0.0365 -0.37836,-0.0519 -0.56769,-0.0465 -1.14994,0.033 -2.28503,0.83526 -2.88423,2.37331 -0.6304,1.61815 -0.65479,4.14374 -0.21947,6.38861 0.21767,1.12243 0.5452,2.17438 0.94524,3.01144 0.40003,0.83706 0.86915,1.46037 1.38588,1.72499 0.12163,0.0623 0.30714,0.11841 0.5273,0.16334 m -2.13258,-2.27582 c 0.0958,0.59546 0.2264,1.14236 0.38685,1.61906 0.29212,0.86798 0.68225,1.5044 1.14092,1.77703 0.29932,0.1779 1.05233,0.30969 1.67895,0.28567 0.62662,-0.024 1.39517,-0.21342 1.70537,-0.41833 0.001,-0.002 0.003,-0.004 0.004,-0.006 0.46999,-0.31073 0.88991,-1.03121 1.25281,-2.00976 0.36291,-0.97855 0.66882,-2.21504 0.8954,-3.53864 0.15553,-0.90854 0.27326,-1.85764 0.34205,-2.78706 m -2.40829,7.00507 c 0.0587,-0.1532 0.11484,-0.31577 0.16853,-0.48658 0.28371,-0.9027 0.49946,-2.03609 0.63996,-3.23612 0.28101,-2.40006 0.26964,-5.06906 -0.29121,-6.6626 -0.53623,-1.5236 -1.57473,-2.25175 -2.6061,-2.21624 -0.18217,0.006 -0.36398,0.0363 -0.54249,0.09 m 3.90156,0.30084 c -0.61831,-0.85773 -1.46546,-1.25125 -2.31897,-1.19819 -1.12564,0.07 -2.26149,0.91554 -2.94839,2.54275 -0.72267,1.71195 -0.98877,4.40463 -0.89663,6.869 0.01,0.26259 0.0239,0.52242 0.0421,0.77792 m -0.40919,-2.71178 c 0.014,0.75873 0.0661,1.52191 0.15281,2.2519 0.1363,1.14788 0.35794,2.21353 0.65707,3.05877 0.29913,0.84525 0.67662,1.47153 1.12241,1.73814 0.29091,0.17398 1.02063,0.29995 1.61913,0.27519 0.5985,-0.0248 1.32313,-0.21024 1.61049,-0.41226 -8e-4,-0.002 -0.002,-0.003 -0.002,-0.005 0.43486,-0.30607 0.80183,-1.01812 1.08107,-1.97727 0.27925,-0.95915 0.47121,-2.16479 0.56407,-3.44544 0.0477,-0.65798 0.0694,-1.3356 0.0636,-2.00867 m -6.88966,8.53952 c -2.36838,-0.77665 -3.5566,-1.68699 -4.78961,-3.53471 -0.49341,-0.73941 -0.77893,-1.29282 -0.93112,-1.96236 -0.15218,-0.66953 -0.17054,-1.4561 -0.11258,-2.65639 0.0599,-1.23967 0.14759,-2.00625 0.37639,-2.65974 0.22879,-0.65349 0.6007,-1.19402 1.24501,-1.96194 0.39331,-0.46877 0.83121,-0.89299 1.30632,-1.27017 m -3.41568,4.4284 c 0.0484,-0.27374 0.10755,-0.5196 0.18282,-0.75229 0.21829,-0.67484 0.57501,-1.23786 1.17849,-2.05701 2.67864,-3.636 7.45799,-5.16942 11.79893,-3.89695 m -4.99816,-1.48205 c 2.00242,-0.07 4.01722,0.30407 5.83779,1.17939 3.47699,1.67173 5.1538,4.63808 5.1417,7.58335 -0.003,0.64681 -0.0874,1.29204 -0.25356,1.92112 m -0.51762,-3.23563 c 0.35618,0.90186 0.5544,1.85039 0.59691,2.80888 0.1426,3.2157 -1.47824,6.51155 -4.75343,8.68472 -0.96622,0.64111 -2.30018,1.17621 -3.65622,1.56548 m 4.78706,-2.55616 c -0.0647,0.0361 -0.13006,0.0718 -0.19597,0.10695 -1.19543,0.63801 -2.89504,1.07912 -4.58322,1.27976 -1.68817,0.20065 -3.36724,0.1633 -4.52567,-0.17031 -0.001,0.002 -0.002,0.004 -0.003,0.007 -2.15152,-0.61838 -3.41788,-1.27826 -4.61827,-2.46275 m 3.93794,1.31118 c -1.90084,-0.87948 -3.00605,-1.83445 -4.21195,-3.56998 -0.53371,-0.76812 -0.85682,-1.3377 -1.0559,-2.02512 -0.19909,-0.68742 -0.27435,-1.49228 -0.32767,-2.72418 -0.0551,-1.27231 -0.053,-2.06307 0.0977,-2.74093 0.15064,-0.67785 0.44815,-1.24189 0.96659,-2.05885 0.021,-0.0331 0.0421,-0.066 0.0635,-0.0987 m -1.22401,3.97468 c 0.0253,-0.47053 0.0802,-0.85626 0.17773,-1.21053 0.18307,-0.66523 0.51476,-1.21905 1.10346,-2.02064 2.87841,-3.91937 8.77768,-5.23718 13.87834,-2.83975 m -5.00413,-1.28972 c 1.81267,-0.008 3.64851,0.35766 5.33628,1.13581 3.48002,1.60447 5.22256,4.4574 5.26413,7.23769 0.0174,1.16228 -0.2635,2.30937 -0.84092,3.33591 m 0.31316,-5.31046 c 0.13063,0.58595 0.20222,1.18099 0.21469,1.77646 0.0669,3.1963 -1.57549,6.38999 -4.90995,8.31551 -1.1213,0.6475 -2.72984,1.1198 -4.32204,1.37364 -1.13887,0.18157 -2.26977,0.25056 -3.21391,0.17536 m 5.26135,-1.53668 c -0.75438,0.18433 -1.56542,0.30792 -2.36987,0.36575 -1.61336,0.11598 -3.19844,-0.0335 -4.27249,-0.46766 0.001,-6.2e-4 0.003,-0.001 0.004,-0.002 -2.41487,-0.97763 -3.575,-1.96917 -4.7274,-4.05381 -0.44203,-0.79962 -0.69167,-1.39621 -0.80263,-2.11601 -0.0327,-0.21189 -0.0531,-0.43455 -0.0623,-0.67643 m 2.42442,7.77003 c -1.55172,-0.81224 -2.51142,-1.75146 -3.49932,-3.34901 -0.48055,-0.77711 -0.76093,-1.3551 -0.90806,-2.05312 -0.14713,-0.69802 -0.16159,-1.51571 -0.0978,-2.77351 0.0659,-1.29905 0.15858,-2.11029 0.39363,-2.80702 0.23504,-0.69672 0.61322,-1.27883 1.27518,-2.12729 0.64365,-0.825 1.40679,-1.54855 2.26288,-2.16548 m -2.84058,3.90015 c 0.20776,-0.54179 0.52406,-1.05251 1.00466,-1.73813 2.9492,-4.20732 8.74895,-5.6549 13.43264,-3.58015 0.54129,0.23978 1.03997,0.51361 1.49602,0.81584 m -4.23483,-1.76411 c 1.1225,0.1095 2.25221,0.42611 3.3395,0.95739 3.46073,1.691 5.35282,4.95663 5.54892,8.22079 0.12288,2.04531 -0.41499,4.09878 -1.62258,5.79737 m 1.32506,-5.01143 c -0.0139,2.99536 -1.67858,5.90393 -5.01334,7.2657 -1.14603,0.46798 -2.79242,0.67068 -4.43254,0.58621 -1.64013,-0.0845 -3.27391,-0.45375 -4.39451,-1.06466 2e-5,-0.006 4e-5,-0.0111 6e-5,-0.0167 -0.0265,-0.0145 -0.053,-0.029 -0.0792,-0.0435 m 4.01513,1.90056 c -0.25326,0.0268 -0.5076,0.0481 -0.76121,0.0639 -1.6636,0.10344 -3.29334,-0.0324 -4.40227,-0.44818 3.4e-4,-1.1e-4 7e-4,-2.2e-4 0.001,-3.3e-4 -2.49351,-0.9351 -3.69798,-1.87679 -4.95219,-3.86894 -0.48109,-0.76415 -0.76089,-1.33395 -0.90816,-2.02294 -0.14727,-0.68898 -0.16118,-1.49684 -0.10405,-2.73937 0.059,-1.28328 0.14118,-2.08445 0.36432,-2.77175 0.0263,-0.0811 0.0546,-0.1606 0.0851,-0.23915 m 8.60571,-13.36192 -3.13705,27.37827 m 13.71206,-21.02011 2.77347,16.6334 m -12.5083,9.469 L 246.22,949.40653 m 28.62591,1.53625 -3.83648,15.99719 m -2.8723,-1.0662 -3.53773,-24.22973"
         style="fill:none;stroke:#ffffff;stroke-width:0.5;stroke-miterlimit:4;stroke-opacity:1;stroke-dasharray:none;display:inline"
         id="path3761" />
      <path
         inkscape:original-d="m 230.62365,964.59794 c 0.0843,-0.5816 0.50195,-1.03125 1.02987,-1.10892 0.48839,-0.0719 1.34101,-0.22589 1.89471,-0.34227 l 1.00672,-0.21161 -0.11873,-10.79971 -0.11873,-10.79971 -1.19777,-0.136 c -1.80675,-0.20514 -4.21711,2.18668 -5.1988,5.1588 -0.62286,1.88573 -1.01359,2.4341 -1.81731,2.55053 -1.00701,0.14588 -1.01913,0.0992 -0.7371,-2.83897 0.15772,-1.64302 0.28819,-3.92089 0.28992,-5.06193 l 0.003,-2.07464 12.38912,0 12.38913,0 0.32005,4.61897 c 0.32793,4.73287 0.0707,5.80295 -1.27287,5.29575 -0.35969,-0.13577 -0.7923,-0.89891 -0.96137,-1.69586 -0.74981,-3.53451 -3.55371,-6.39242 -5.84614,-5.95876 -0.75573,0.14295 -0.82038,0.87719 -0.93128,10.5758 -0.0807,7.06066 0.0373,10.60769 0.36607,10.99732 0.26687,0.31633 1.11969,0.63564 1.89513,0.70959 1.0725,0.10226 1.44388,0.36962 1.5518,1.11715 l 0.14188,0.98273 -7.60967,0 -7.60966,0 0.14187,-0.97826 z"
         inkscape:path-effect="#path-effect3771"
         id="path3749"
         d="m 231.4682,964.71928 c 0.10028,-0.0464 0.20666,-0.0796 0.31741,-0.0978 0.51006,-0.084 1.39298,-0.25601 1.96113,-0.38216 0.34433,-0.0765 0.6871,-0.15232 1.02843,-0.22768 0.0209,-3.6505 -0.11625,-7.24455 -0.2634,-10.86778 -0.0274,-0.6757 -0.0552,-1.35241 -0.0824,-2.0307 m 0.84784,2.60833 c 0.003,-0.60975 0.004,-1.22329 0.004,-1.84031 -1.7e-4,-3.56902 -0.0412,-7.25447 -0.0823,-10.99759 -0.39943,-0.0613 -0.79886,-0.12336 -1.19823,-0.18603 -0.15518,-0.0244 -0.3148,-0.0298 -0.47758,-0.0176 m 1.31008,2.15471 c -0.006,-0.48161 -0.0117,-0.9604 -0.0185,-1.43657 -0.4007,-0.0519 -0.80189,-0.10196 -1.20358,-0.15016 -0.90889,-0.10907 -1.97187,0.43844 -2.94094,1.40285 -0.96906,0.96442 -1.84446,2.34736 -2.37321,3.89338 -0.33547,0.98091 -0.60787,1.61943 -0.89805,2.02884 -0.29018,0.40942 -0.59857,0.59065 -1.01386,0.66919 -0.26016,0.0492 -0.45617,0.0833 -0.59942,0.0608 -0.14325,-0.0225 -0.2338,-0.10133 -0.28732,-0.27186 -0.0172,-0.0547 -0.0305,-0.11891 -0.0405,-0.1938 m 2.50844,-1.11897 c -0.13852,0.33936 -0.27374,0.60193 -0.41643,0.80332 -0.26875,0.37932 -0.56365,0.54127 -0.96135,0.5946 -0.24914,0.0334 -0.43715,0.0559 -0.57437,0.0248 -0.13721,-0.0312 -0.22358,-0.11605 -0.26923,-0.29794 -0.0913,-0.36377 -0.018,-1.11711 0.1196,-2.58613 0.15392,-1.64294 0.26047,-3.90314 0.24701,-5.03255 -0.008,-0.6845 -0.0174,-1.36814 -0.0272,-2.05137 2.01976,0.0247 4.03467,0.0528 6.05657,0.0723 m -6.8442,-0.92073 c 3.70871,0.15929 7.60734,0.26825 11.50894,0.48786 1.77215,0.0997 3.54492,0.22233 5.30077,0.38282 m -2.9324,0.34775 c 3.98393,0.037 7.72739,0.0198 11.41169,-0.0197 0.0498,1.28584 0.0927,2.56906 0.13589,3.85097 m -0.67053,-3.19983 c 0.1192,1.40543 0.23315,2.80659 0.34504,4.20339 0.18782,2.3445 0.21712,3.77179 0.0337,4.55434 -0.0917,0.39127 -0.2371,0.62109 -0.44269,0.71999 -0.20559,0.0989 -0.47108,0.0663 -0.8031,-0.0672 -0.35555,-0.14296 -0.77925,-0.92171 -0.93765,-1.73642 -0.15464,-0.79539 -0.40759,-1.55924 -0.73131,-2.26323 m 1.10387,2.9742 c -0.13435,-0.26668 -0.24711,-0.58524 -0.31382,-0.91317 -0.35076,-1.7242 -1.23596,-3.36699 -2.32332,-4.55377 -1.08737,-1.18678 -2.37495,-1.90491 -3.53622,-1.80994 -0.19141,0.0157 -0.33895,0.0738 -0.45672,0.28473 -0.11777,0.21092 -0.20589,0.57374 -0.27943,1.19152 -0.0519,0.43606 -0.0966,0.99908 -0.13962,1.71997 m 0.6652,-4.16406 c -0.0465,0.22304 -0.0826,0.51887 -0.11215,0.91475 -0.10127,1.35789 -0.0986,3.88092 -0.34991,8.84875 -0.18295,3.61662 -0.35741,6.38036 -0.42244,8.25538 -0.007,0.21224 -0.0135,0.41333 -0.0183,0.60334 m 0.69494,-3.1444 c 0.0507,1.86636 0.0783,3.36083 0.11872,4.51269 0.0317,0.90289 0.0702,1.59494 0.1223,2.08588 0.0521,0.49094 0.1176,0.78084 0.19834,0.87619 0.26216,0.30964 1.10323,0.61347 1.86485,0.67025 1.05338,0.0785 1.41779,0.33759 1.50892,1.0642 0.0399,0.31842 0.0796,0.63641 0.11909,0.954 -1.86957,-0.0551 -3.7449,-0.12247 -5.61316,-0.19943 m 5.07571,-1.89914 c -2.46418,-0.0516 -4.87764,-0.0531 -7.27523,-0.0216 -2.57102,0.0338 -5.12378,0.10555 -7.70126,0.19434 0.042,-0.31456 0.0835,-0.62882 0.12458,-0.94285 -5.7e-4,0.001 -0.001,0.002 -0.002,0.004 0.0278,-0.21361 0.10416,-0.40834 0.21652,-0.5707 m 1.39387,2.75102 c -0.74963,-0.0341 -1.50129,-0.0611 -2.25407,-0.0824 0.0562,-0.33514 0.11227,-0.66924 0.16817,-1.0024 9.3e-4,-7.2e-4 0.002,-0.001 0.003,-0.002 0.0996,-0.59388 0.52996,-1.05142 1.07141,-1.13572 0.50091,-0.0781 1.37549,-0.23931 1.94391,-0.35827 0.34449,-0.0721 0.68911,-0.14359 1.03395,-0.21458 0.0535,-3.34478 0.12714,-6.64214 0.29342,-9.99791 m -3.45608,11.6977 c 0.49541,-0.0877 1.17414,-0.21755 1.64083,-0.31593 0.33631,-0.0709 0.67258,-0.14029 1.00879,-0.20823 -0.0328,-3.57269 -0.0706,-6.98531 -0.10394,-10.2912 -0.01,-0.98718 -0.0195,-1.96484 -0.0284,-2.9344 m 0.75985,3.77086 c -0.0186,-0.33134 -0.0354,-0.66237 -0.0503,-0.99316 -0.1669,-3.69217 -0.11188,-7.35439 0.0119,-11.07812 -0.38102,-0.0591 -0.76119,-0.11907 -1.14071,-0.17989 -0.49117,-0.0787 -1.02876,0.0522 -1.56239,0.3415 m 3.38192,-1.22991 c 0.002,-0.10733 0.004,-0.21448 0.006,-0.32147 -0.38711,-0.0628 -0.77618,-0.12305 -1.16707,-0.18095 -0.88444,-0.13101 -1.92496,0.39332 -2.87809,1.33321 -0.95312,0.9399 -1.82118,2.29851 -2.34808,3.82014 -0.3343,0.96543 -0.60714,1.59359 -0.8974,1.99523 -0.29025,0.40164 -0.59872,0.57768 -1.01394,0.64918 -0.26013,0.0448 -0.45605,0.0755 -0.59922,0.0505 -0.14316,-0.025 -0.23365,-0.10566 -0.28698,-0.27964 -0.0968,-0.31591 -0.0714,-0.93884 -0.002,-2.11164 m 0.96429,2.86245 c -0.15218,0.0873 -0.31888,0.13816 -0.50855,0.16448 -0.25043,0.0347 -0.43875,0.0578 -0.57609,0.0269 -0.13735,-0.0309 -0.22373,-0.11562 -0.26899,-0.29755 -0.0905,-0.36386 -0.0185,-1.11532 0.14756,-2.60389 0.18578,-1.66481 0.38,-3.98709 0.42238,-5.15564 0.0256,-0.70822 0.0541,-1.41812 0.0855,-2.12984 2.45445,-0.0686 4.94286,-0.15816 7.47056,-0.27348 m -6.84227,-0.63213 c 3.38297,0.0675 6.98874,0.12183 10.75531,0.21415 3.29606,0.0808 6.71527,0.19068 10.21605,0.36407 m -6.14444,-0.82041 c 2.9364,0.0598 5.94161,0.1694 8.98309,0.36169 0.13014,1.63871 0.26991,3.29936 0.41484,4.98645 0.22277,2.59303 0.28393,4.23407 0.11608,5.13837 -0.0839,0.45214 -0.22463,0.72093 -0.42591,0.85647 -0.12481,0.084 -0.2727,0.11803 -0.44457,0.11471 m 1.68766,-5.68922 c 0.22497,2.26663 0.22245,3.66472 0.0325,4.44388 -0.0981,0.40219 -0.24887,0.63893 -0.45974,0.74433 -0.21088,0.1054 -0.48237,0.0798 -0.82497,-0.0432 -0.36687,-0.13163 -0.81723,-0.88608 -1.01202,-1.67339 -0.43193,-1.74586 -1.40551,-3.31863 -2.572,-4.3916 -0.9127,-0.83953 -1.94146,-1.37403 -2.92899,-1.44785 m 1.2695,3.54349 c -0.18143,-0.23975 -0.37028,-0.46478 -0.56478,-0.6732 -1.07277,-1.14956 -2.31976,-1.79197 -3.4308,-1.61168 -0.18314,0.0297 -0.32463,0.0981 -0.4297,0.33005 -0.10506,0.23194 -0.17372,0.6272 -0.20596,1.30963 -0.0322,0.68242 -0.0291,1.65327 0.0255,3.02598 0.0545,1.3727 0.15923,3.15136 0.36171,5.40186 0.0696,0.774 0.14338,1.49583 0.21928,2.16738 m -0.33455,-5.93942 c 0.0211,0.75111 0.0441,1.58004 0.07,2.49668 0.0997,3.52323 0.23466,6.26511 0.40594,8.1483 0.0856,0.9416 0.17761,1.67128 0.27018,2.19026 0.0926,0.51899 0.18489,0.82705 0.27716,0.93021 0.29959,0.33501 1.22403,0.69467 2.0731,0.80749 1.17435,0.15603 1.57877,0.4394 1.77222,1.22734 0.0848,0.34528 0.17109,0.69079 0.25906,1.03647 -0.0494,0.003 -0.0988,0.006 -0.14806,0.009 m -4.01261,-3.19666 c 0.003,0.004 0.005,0.008 0.008,0.0111 0.26211,0.33263 1.10982,0.68456 1.89103,0.78616 1.08049,0.14051 1.45999,0.41738 1.58778,1.19056 0.056,0.33882 0.11344,0.67761 0.17228,1.01648 -2.44802,0.0865 -4.81324,0.17719 -7.10667,0.3131 -2.05049,0.12151 -4.04358,0.27919 -5.98714,0.50243 m 6.42824,-1.67998 c -2.29486,-0.0229 -4.54115,0.0244 -6.77127,0.13618 0.0412,-0.30928 0.0828,-0.61709 0.12465,-0.92347 -4.9e-4,0.002 -9.9e-4,0.004 -0.001,0.006 0.0747,-0.54593 0.4848,-0.96122 1.00479,-0.99895 0.48107,-0.0349 1.32103,-0.11754 1.86603,-0.1823 0.33031,-0.0393 0.66045,-0.077 0.9903,-0.11334 -0.0619,-2.0137 -0.13615,-3.96537 -0.25722,-5.86117 m -4.02251,6.33148 c 0.48443,-0.0635 1.26534,-0.18877 1.7828,-0.28628 0.32941,-0.0621 0.65938,-0.12406 0.98983,-0.18588 -0.0933,-3.50839 -0.1327,-6.99918 -0.20281,-10.40107 -0.0403,-1.95341 -0.0906,-3.87751 -0.16715,-5.7588 m -1.01562,4.73631 c 0.005,-3.42726 -0.0689,-6.95962 -0.19044,-10.52787 -0.40876,-0.0521 -0.81815,-0.10463 -1.2281,-0.15755 -0.92759,-0.11973 -2.0133,0.40454 -3.00953,1.31896 -0.65941,0.60527 -1.27899,1.38205 -1.78329,2.25998 m 3.77969,-2.81928 c -0.54333,0.21205 -1.09624,0.57709 -1.61922,1.06012 -0.97997,0.90511 -1.85395,2.22703 -2.36834,3.7168 -0.32637,0.94522 -0.58912,1.56178 -0.87218,1.95512 -0.28306,0.39334 -0.58632,0.56434 -0.99448,0.62944 -0.25571,0.0408 -0.44826,0.0687 -0.58888,0.0416 -0.14062,-0.0271 -0.22932,-0.10921 -0.27923,-0.28584 -0.0998,-0.35327 -0.0431,-1.08463 0.0666,-2.51762 0.0224,-0.29188 0.0431,-0.60419 0.0615,-0.92655 m 0.13674,3.28262 c -0.003,-0.4181 0.0519,-1.05224 0.15003,-2.00104 0.16281,-1.57405 0.34555,-3.74976 0.38666,-4.83162 0.0249,-0.65568 0.0539,-1.30874 0.0871,-1.9582 2.87788,0.16739 5.81937,0.39176 8.8124,0.73475 m -5.0346,0.2052 c 3.01379,9.9e-4 5.96687,-0.0626 8.91934,-0.18547 2.11631,-0.088 4.2323,-0.20654 6.3701,-0.35349 m -2.62666,-0.35199 c 3.12379,-0.10135 6.3125,-0.16215 9.54225,-0.24782 0.13729,1.49791 0.28432,2.9899 0.43834,4.46842 0.10732,1.03027 0.18188,1.8733 0.21569,2.557 m -0.70192,-3.25932 c 0.0254,0.54024 0.0505,1.07524 0.0754,1.6054 0.11353,2.42111 0.093,3.82686 -0.12113,4.60145 -0.10705,0.3873 -0.26226,0.61326 -0.47712,0.70838 -0.21486,0.0951 -0.49029,0.0582 -0.83762,-0.0832 -0.37195,-0.15143 -0.83103,-0.9505 -1.03063,-1.79285 -0.44259,-1.86793 -1.41336,-3.59843 -2.58206,-4.82856 -1.1687,-1.23013 -2.52808,-1.9511 -3.76332,-1.84284 -0.20361,0.0178 -0.35991,0.0778 -0.49517,0.29328 -0.0376,0.0599 -0.0736,0.13176 -0.10877,0.21801 m 4.98255,2.19022 c -0.21507,-0.31804 -0.4448,-0.6113 -0.68526,-0.87635 -1.05325,-1.16094 -2.31233,-1.78218 -3.44586,-1.56909 -0.18684,0.0351 -0.33111,0.10752 -0.44245,0.34826 -0.11135,0.24074 -0.1896,0.64944 -0.2453,1.36317 -0.0557,0.71374 -0.0894,1.73297 -0.10945,3.2021 -0.0201,1.46913 -0.029,3.3927 -0.0129,5.88932 0.001,0.17676 0.002,0.35133 0.004,0.5237 m 0.27286,-5.03929 c 0.0127,1.05733 0.0238,2.26555 0.028,3.64973 0.0112,3.64255 0.0164,6.39118 0.0809,8.29758 0.0323,0.9532 0.077,1.69319 0.13452,2.22041 0.0575,0.52722 0.12765,0.84097 0.21032,0.94658 0.26352,0.3367 1.09376,0.70689 1.86271,0.848 m -1.82539,-2.62635 c 0.0124,0.45914 0.0344,0.84161 0.0639,1.14652 0.0467,0.48318 0.11227,0.77154 0.19283,0.86604 0.26155,0.30689 1.10646,0.60989 1.88085,0.6754 1.07105,0.0906 1.44545,0.35826 1.55991,1.10516 0.0502,0.3273 0.10102,0.65529 0.15251,0.98386 -2.50441,0.008 -4.97179,0.0501 -7.43323,0.0883 -1.1056,0.0172 -2.20999,0.0335 -3.31601,0.0454 m 6.05396,0.0372 c -0.55837,-0.005 -1.1152,-0.0102 -1.67093,-0.0161 -2.62306,-0.0279 -5.22145,-0.0691 -7.84036,-0.13304 0.0366,-0.3344 0.0728,-0.66919 0.10865,-1.00438 -0.001,-9.2e-4 -0.002,-0.002 -0.003,-0.003 0.0636,-0.59798 0.46244,-1.06273 0.96876,-1.15755 0.4684,-0.0878 1.28297,-0.2717 1.80899,-0.40938 0.3188,-0.0834 0.63672,-0.16741 0.95364,-0.25194 -0.0854,-1.35924 -0.18509,-2.72647 -0.30533,-4.10302 m -0.67857,28.67855 -0.88418,-80.42483 m 6.54695,30.58125 2.67062,46.26956 m 32.77705,-18.4247 -74.57031,0 m 33.4865,24.4215 -1.04521,-95.07238"
         style="fill:none;stroke:#ffffff;stroke-width:0.5;stroke-miterlimit:4;stroke-opacity:1;stroke-dasharray:none;display:inline" />
      <path
         transform="matrix(0.45444766,0,0,0.45444766,163.17024,519.49564)"
         d="m 221.57558,976.99343 c 3.96772,-2.48045 5.7417,-18.92674 2.7909,-25.87396 -2.82129,-6.64236 -9.95983,-6.26704 -12.78228,0.67207 -2.96942,7.30047 -1.3267,22.69084 2.68998,25.20189 0.6553,0.40964 2.29811,0.74483 3.65071,0.74483 1.35258,0 2.9954,-0.33519 3.65069,-0.74483 z m -11.75727,4.29531 c -5.58915,-2.0525 -8.35536,-4.14217 -11.32331,-8.55397 -2.27686,-3.38458 -2.70329,-5.04689 -2.70329,-10.53763 0,-5.67084 0.38478,-7.06515 2.95717,-10.71516 6.45819,-9.16367 19.48094,-12.13434 30.06013,-6.85711 15.36782,7.66595 15.69658,27.66282 0.5795,35.24941 -5.08349,2.55117 -14.60145,3.23908 -19.5702,1.41446 z"
         style="fill:#000000;fill-opacity:1;stroke:none;filter:url(#filter3977)"
         id="path3837" />
      <path
         transform="matrix(0.45444766,0,0,0.45444766,163.17024,519.49564)"
         id="path3825"
         d="m 146.2925,979.47125 c 0.18677,-1.28857 1.1121,-2.2848 2.28174,-2.45688 1.08205,-0.1593 2.97108,-0.50047 4.19784,-0.75832 l 2.23045,-0.46884 -0.26305,-23.92741 -0.26306,-23.92741 -2.65373,-0.30132 c -4.00296,-0.4545 -9.34326,4.84473 -11.51826,11.42964 -1.37998,4.17795 -2.24567,5.39289 -4.02636,5.65085 -2.23109,0.32321 -2.25794,0.21978 -1.63309,-6.28991 0.34944,-3.64021 0.63851,-8.68697 0.64234,-11.21501 l 0.007,-4.59649 27.44884,0 27.44887,0 0.70909,10.23361 c 0.72655,10.48596 0.15664,12.85678 -2.82012,11.73305 -0.79692,-0.30081 -1.75539,-1.99159 -2.12997,-3.75728 -1.66125,-7.83092 -7.87346,-14.16279 -12.95248,-13.20199 -1.67437,0.31671 -1.8176,1.94346 -2.06331,23.43132 -0.17879,15.64332 0.0826,23.50198 0.81105,24.36523 0.59127,0.70085 2.48074,1.4083 4.19878,1.57214 2.37619,0.22656 3.199,0.81892 3.4381,2.47511 l 0.31435,2.1773 -16.85969,0 -16.85966,0 0.31432,-2.16739 z"
         style="fill:#000000;fill-opacity:1;stroke:none;filter:url(#filter3929)" />
    </g>
    <g
       id="Do"
       inkscape:export-xdpi="90"
       inkscape:export-ydpi="90">
      <path
         inkscape:original-d="m 319.32726,962.43845 c 1.77259,-2.86734 1.67786,-9.46733 -0.16615,-11.57622 -1.18235,-1.35218 -3.09465,-1.47516 -4.31231,-0.27732 -1.31565,1.29421 -1.9888,5.67513 -1.37274,8.93386 0.61117,3.2329 1.48602,4.31036 3.49978,4.31036 1.2006,0 1.65947,-0.27138 2.35142,-1.39068 z m -5.9128,3.12612 c -3.67544,-1.08374 -6.14204,-4.0989 -6.41747,-7.8447 -0.24877,-3.38324 0.45956,-5.26199 2.77578,-7.36223 5.02118,-4.55301 13.57779,-3.12509 16.40598,2.73782 0.87385,1.81153 0.92289,5.473 0.0986,7.36277 -1.82862,4.19223 -7.85263,6.58365 -12.86287,5.10634 z"
         inkscape:path-effect="#path-effect3805"
         d="m 320.55658,961.01848 c 0.56931,-1.43469 0.84522,-3.24955 0.82339,-4.98675 -0.0287,-2.28479 -0.56399,-4.44206 -1.52485,-5.48284 -1.23218,-1.33466 -3.19413,-1.44012 -4.47332,-0.22787 -0.10852,0.10284 -0.21348,0.22476 -0.31457,0.36367 m 2.93319,-0.11324 c -1.08382,-0.48162 -2.31974,-0.31106 -3.18828,0.54189 -0.6556,0.64382 -1.14029,2.06287 -1.35617,3.74175 -0.21589,1.67888 -0.1631,3.61754 0.21613,5.27815 0.14346,0.62816 0.29483,1.17732 0.4596,1.6546 m -1.01944,-4.29611 c 0.0166,0.47565 0.0599,0.9407 0.13127,1.38404 0.25519,1.58532 0.62028,2.63691 1.16361,3.2885 0.54332,0.65159 1.26736,0.90237 2.28427,0.87081 1.21257,-0.0376 1.67833,-0.32247 2.39806,-1.4944 7.1e-4,-0.001 0.001,-0.003 0.002,-0.004 0.6548,-1.06603 1.08861,-2.62216 1.29753,-4.30292 m -1.37113,2.98616 c 0.44177,-1.24526 0.6663,-2.75711 0.67424,-4.2385 0.012,-2.2336 -0.46226,-4.3939 -1.37493,-5.43477 -1.17038,-1.33477 -3.07493,-1.44446 -4.26786,-0.21841 -0.63577,0.6534 -1.10544,2.0682 -1.30857,3.75453 m 2.18904,-4.20436 c -0.46313,0.1132 -0.89859,0.34225 -1.26823,0.6889 -0.66925,0.62763 -1.16696,2.02006 -1.36866,3.65762 -0.20171,1.63757 -0.1052,3.51938 0.33484,5.1173 0.43654,1.58525 0.92229,2.63543 1.56099,3.28501 0.63871,0.64958 1.4379,0.8982 2.56686,0.86115 0.0229,-7.5e-4 0.0455,-0.002 0.0679,-0.002 m -3.62818,-1.82829 c 0.19209,0.65712 0.43037,1.15727 0.72573,1.53086 0.53646,0.67855 1.25829,0.94285 2.27979,0.91749 1.21805,-0.0302 1.68756,-0.3173 2.43361,-1.51173 0.001,-0.002 0.003,-0.004 0.004,-0.006 0.95701,-1.53163 1.52105,-4.09052 1.683,-6.62082 0.0427,-0.66756 0.0565,-1.3319 0.0393,-1.97137 m -1.85165,5.36357 c 0.37754,-1.32425 0.56211,-2.95138 0.56587,-4.53864 0.005,-2.28629 -0.37056,-4.48952 -1.20729,-5.56484 -1.01142,-1.29981 -2.67401,-1.50667 -3.75952,-0.55447 m 4.7031,1.46619 c -1.07856,-0.59125 -2.40233,-0.44188 -3.34019,0.49076 -0.66537,0.66166 -1.18505,2.11271 -1.50057,3.84808 -0.31551,1.73536 -0.42736,3.75599 -0.22577,5.50694 0.05,0.43397 0.10493,0.83334 0.16694,1.19986 m -0.23087,-1.68941 c 0.0487,0.63353 0.12959,1.2506 0.24696,1.82885 0.32986,1.62522 0.69733,2.68508 1.23981,3.3423 0.54248,0.65723 1.25774,0.90938 2.24897,0.87537 1.18195,-0.0405 1.63242,-0.32827 2.29272,-1.512 -8e-4,-0.002 -0.002,-0.003 -0.002,-0.005 0.84538,-1.51701 1.19486,-4.0256 1.0949,-6.46747 -0.0169,-0.41189 -0.0464,-0.82162 -0.0883,-1.22383 m -7.50336,8.26066 c -3.57508,-0.98948 -5.83943,-3.89038 -5.94783,-7.42131 -0.0504,-1.64167 0.13603,-2.90987 0.64421,-4.00892 0.45179,-0.97706 1.16037,-1.82115 2.20044,-2.6552 m -2.32206,4.30374 c 0.10233,-0.49678 0.24246,-0.95927 0.42709,-1.3991 0.47992,-1.14329 1.26338,-2.13236 2.43344,-3.18508 2.53649,-2.28212 5.86457,-3.10794 8.93893,-2.6404 0.4103,0.0624 0.81602,0.14782 1.21465,0.25587 m -4.51492,0.44726 c 0.97517,-0.051 1.94302,0.004 2.87728,0.16051 3.19356,0.53643 5.99875,2.27524 7.34772,5.06126 0.4168,0.86083 0.61722,2.16161 0.60768,3.46372 -0.005,0.65894 -0.0631,1.31875 -0.17395,1.92432 m -1.45907,-6.34229 c 0.26167,0.81962 0.41686,1.82206 0.45908,2.84262 0.0588,1.42176 -0.10106,2.87993 -0.48741,3.89052 -0.85709,2.24188 -2.76316,4.10573 -5.02292,5.3765 -0.85455,0.48055 -1.75961,0.87569 -2.67761,1.17154 m 5.43323,-1.90499 c -0.38857,0.21773 -0.79083,0.41634 -1.20379,0.59476 -2.44833,1.05786 -5.27075,1.4048 -7.85611,0.83448 -0.001,0.002 -0.002,0.004 -0.003,0.006 -1.93951,-0.42681 -3.56817,-1.34066 -4.77204,-2.55785 m 4.0956,3.46389 c -3.1222,-1.38562 -5.24971,-4.19436 -5.63734,-7.58802 -0.19228,-1.68337 -0.14362,-2.98791 0.22284,-4.13374 0.17564,-0.5492 0.42365,-1.06169 0.75009,-1.56131 m -2.27067,2.74466 c 0.0554,-0.67192 0.18787,-1.27885 0.40555,-1.84612 0.43183,-1.12533 1.19684,-2.09447 2.39004,-3.11202 2.58665,-2.20589 6.14693,-2.92043 9.4831,-2.2737 0.94646,0.18347 1.87484,0.4763 2.75782,0.87518 m -3.49127,-0.80421 c 0.80598,-0.0178 1.60911,0.0376 2.39244,0.16419 3.1559,0.51001 5.99147,2.18616 7.39103,4.84655 0.43244,0.82201 0.65643,2.0637 0.67061,3.29284 0.0142,1.22915 -0.18029,2.44928 -0.58968,3.26116 -0.0189,0.0376 -0.0383,0.0749 -0.0581,0.11201 m -0.91688,-5.11192 c 0.0889,0.56988 0.13912,1.17945 0.15012,1.79157 0.0254,1.41312 -0.15762,2.84057 -0.55952,3.81928 -0.89158,2.17115 -2.8204,3.91384 -5.1247,5.00681 -2.03508,0.96527 -4.36342,1.4229 -6.53357,1.21144 m 3.51167,-1.23085 c -2.09669,0.6441 -4.38327,0.70791 -6.44328,0.0348 0.001,-6.1e-4 0.003,-0.001 0.004,-0.002 -3.16203,-1.0351 -5.29069,-3.66814 -5.61716,-7.0308 m 5.43417,6.08502 c -2.75257,-1.44563 -4.53338,-4.15973 -4.61425,-7.43255 -0.0424,-1.7161 0.15012,-3.05333 0.67171,-4.23373 0.52158,-1.1804 1.37213,-2.20312 2.6845,-3.30296 0.15806,-0.13246 0.31918,-0.26046 0.48317,-0.38403 m -3.18883,5.17902 c 0.0329,-0.0987 0.0679,-0.19612 0.10505,-0.29251 0.45057,-1.16999 1.2151,-2.18083 2.37344,-3.25885 2.51108,-2.33701 5.86393,-3.20526 8.93397,-2.82689 1.59481,0.19656 3.11317,0.73017 4.39645,1.57012 m -6.14524,-2.95036 c 0.15218,0.0117 0.30413,0.0271 0.45571,0.0463 3.04136,0.38356 5.92538,2.24389 7.44772,5.28945 0.47037,0.94102 0.75453,2.36625 0.83705,3.80938 0.0825,1.44313 -0.039,2.90045 -0.39537,3.89544 -0.24853,0.69398 -0.59965,1.34273 -1.03307,1.93739 m 0.709,-3.30397 c 0.002,1.29007 -0.18953,2.55342 -0.58046,3.41527 -0.90998,2.00614 -2.87027,3.5098 -5.22903,4.21172 -2.35875,0.70192 -5.11605,0.60522 -7.61957,-0.56361 1e-5,-0.005 2e-5,-0.011 4e-5,-0.0165 -0.0896,-0.0419 -0.17839,-0.085 -0.2665,-0.12937 m 5.49649,2.08807 c -1.67222,0.23531 -3.38578,0.14894 -4.97498,-0.3302 3.1e-4,-1.2e-4 6.3e-4,-2.4e-4 9.5e-4,-3.5e-4 -3.6374,-1.09687 -5.98425,-4.10405 -6.09186,-7.85732 -0.0454,-1.58318 0.10713,-2.8401 0.53146,-3.94674 m -3.3112,-4.20719 20.51006,-6.23981 m 2.77415,21.91252 -22.40584,-1.94824 m 14.85917,8.14538 2.70081,-29.99432"
         style="fill:none;stroke:#ffffff;stroke-width:0.5;stroke-miterlimit:4;stroke-opacity:1;stroke-dasharray:none;display:inline"
         id="path3757" />
      <path
         inkscape:original-d="m 293.04175,962.24398 c 2.64366,-1.90042 4.02224,-7.65188 3.2004,-13.35222 -0.77056,-5.34471 -2.63721,-7.37292 -7.0763,-7.68879 -2.55349,-0.1817 -2.67916,-0.14203 -3.11393,0.98286 -0.25423,0.65781 -0.45305,5.07634 -0.45305,10.06902 0,4.99268 0.19882,9.41121 0.45305,10.06903 0.43477,1.12488 0.56044,1.16455 3.11393,0.98285 1.71404,-0.12196 3.09323,-0.50013 3.8759,-1.06275 z m -17.77596,2.77794 c -0.32692,-0.83805 0.48675,-1.62955 1.67518,-1.62955 1.90025,0 1.99798,-0.5448 1.99798,-11.13752 0,-10.59272 -0.0977,-11.13752 -1.99798,-11.13752 -1.16246,0 -2.00419,-0.78612 -1.69377,-1.58189 0.18692,-0.47919 1.78689,-0.60125 7.84621,-0.59863 8.85532,0.004 12.6544,0.50126 15.25615,1.9975 1.98917,1.14397 4.08991,3.80408 4.93868,6.25373 0.76289,2.20177 0.6377,7.83102 -0.22984,10.33568 -0.92304,2.66483 -4.50431,6.30099 -7.02565,7.13332 -1.15838,0.3824 -5.03398,0.66072 -11.14478,0.80037 -8.01996,0.18327 -9.40527,0.12057 -9.62218,-0.43549 z"
         inkscape:path-effect="#path-effect3803"
         d="m 296.64111,958.17432 c 0.51664,-2.3208 0.63958,-5.04177 0.26698,-7.74876 -0.36959,-2.68518 -1.02136,-4.53515 -2.13326,-5.75531 -1.11189,-1.22015 -2.68364,-1.81078 -4.89902,-1.97375 -1.27435,-0.0937 -1.94345,-0.1304 -2.34791,-0.003 -0.40445,0.12705 -0.54427,0.41771 -0.76118,0.9792 -0.0634,0.16417 -0.1232,0.56303 -0.17733,1.14696 -0.0541,0.58393 -0.10261,1.35296 -0.14351,2.25751 -0.0818,1.80909 -0.13345,4.16042 -0.13809,6.65667 -0.005,2.49625 0.0384,4.85028 0.11384,6.66261 0.0377,0.90616 0.0836,1.67689 0.13582,2.26222 0.0522,0.58534 0.11069,0.98528 0.17355,1.14993 0.21499,0.5631 0.35399,0.85456 0.75716,0.98289 0.40317,0.12834 1.07023,0.0936 2.34109,0.005 1.70614,-0.11953 3.07829,-0.49543 3.85593,-1.05642 -1.7e-4,6e-5 -3.5e-4,1.1e-4 -5.2e-4,1.7e-4 1.31331,-0.94745 2.30767,-2.85671 2.86532,-5.23979 0.55764,-2.38308 0.67883,-5.24006 0.24858,-8.08408 -0.4034,-2.66658 -1.07578,-4.50585 -2.20524,-5.71706 -1.12946,-1.21121 -2.7169,-1.79407 -4.9523,-1.94783 -1.28587,-0.0884 -1.96035,-0.12281 -2.36832,0.006 -0.36587,0.11529 -0.51777,0.36168 -0.70517,0.81771 m 10.07828,9.67675 c 0.0997,-1.5619 0.04,-3.21231 -0.20108,-4.85783 -0.3925,-2.67919 -1.05442,-4.52565 -2.17407,-5.74282 -1.11965,-1.21716 -2.69709,-1.80514 -4.91613,-1.96471 -1.27645,-0.0918 -1.94567,-0.12753 -2.35029,1.1e-4 -0.40462,0.12765 -0.54451,0.41869 -0.76125,0.981 -0.0634,0.16441 -0.12303,0.56381 -0.17664,1.14853 -0.0536,0.58471 -0.10115,1.35473 -0.14023,2.2604 -0.0782,1.81136 -0.12232,4.16542 -0.11426,6.66435 0.008,2.49894 0.0674,4.85534 0.15704,6.66948 0.0448,0.90707 0.0972,1.67857 0.15452,2.26449 0.0573,0.58592 0.11944,0.98627 0.1839,1.15109 0.22048,0.56371 0.36201,0.85543 0.76924,0.98419 0.40722,0.12876 1.0805,0.0947 2.36462,0.007 1.72395,-0.11777 3.11182,-0.49219 3.90068,-1.05213 2.1e-4,9e-5 4.3e-4,1.9e-4 6.4e-4,2.8e-4 1.33232,-0.94567 2.35157,-2.85265 2.94201,-5.23265 0.59044,-2.38 0.75176,-5.23314 0.36514,-8.07257 -0.3625,-2.66228 -1.00499,-4.4981 -2.10776,-5.7061 -0.68228,-0.74739 -1.54044,-1.25432 -2.61613,-1.56737 m 3.61276,14.23333 c 0.18826,-1.83021 0.15247,-3.81686 -0.14512,-5.79775 -0.40294,-2.68223 -1.07129,-4.53269 -2.1965,-5.75387 -1.12522,-1.22117 -2.70767,-1.81348 -4.93342,-1.98099 -1.28032,-0.0964 -1.95142,-0.13481 -2.35727,-0.009 -0.40585,0.12592 -0.5465,0.41587 -0.76494,0.97556 -0.0639,0.16365 -0.12467,0.56132 -0.1799,1.14335 -0.0552,0.58202 -0.10489,1.3484 -0.1464,2.2495 -0.083,1.8022 -0.13326,4.14321 -0.13139,6.62604 0.002,2.48284 0.0555,4.82194 0.14084,6.62187 0.0427,0.89996 0.0932,1.66514 0.14907,2.24618 0.0559,0.58103 0.11706,0.97794 0.1811,1.14126 0.21903,0.55854 0.35991,0.84793 0.76611,0.97294 0.4062,0.12501 1.07789,0.0852 2.35888,-0.0145 1.71973,-0.13381 3.10414,-0.52203 3.89055,-1.09178 1.3e-4,-2.5e-4 2.6e-4,-5e-4 3.9e-4,-7.4e-4 1.32818,-0.96228 2.34219,-2.89079 2.92585,-5.299 0.58366,-2.40821 0.7368,-5.29577 0.34094,-8.1732 -0.37115,-2.69792 -1.02023,-4.56025 -2.12905,-5.79219 -1.03621,-1.15128 -2.47336,-1.75298 -4.4585,-1.97656 m -12.61078,22.96537 c 0.29431,-0.15968 0.66761,-0.25413 1.08712,-0.25143 0.47925,0.003 0.84456,-0.0288 1.12392,-0.2432 0.27937,-0.21438 0.47321,-0.61093 0.61018,-1.33662 0.27393,-1.45139 0.32156,-4.21861 0.3519,-9.49139 0.0303,-5.27277 0.0154,-8.04899 -0.24084,-9.50443 -0.12809,-0.72771 -0.31695,-1.12555 -0.59206,-1.34105 -0.2751,-0.21549 -0.6363,-0.2485 -1.10972,-0.24707 -1.15842,0.004 -1.99793,-0.78064 -1.68487,-1.57405 0.0471,-0.11944 0.18262,-0.21651 0.45443,-0.29453 0.27181,-0.078 0.6799,-0.13701 1.27197,-0.1805 1.18414,-0.087 3.10427,-0.11192 6.14052,-0.10383 4.43729,0.0119 7.60565,0.14314 9.99125,0.45962 2.38559,0.31648 3.98809,0.81797 5.2911,1.56899 1.99243,1.1484 4.09771,3.8149 4.95052,6.27014 0.38326,1.10341 0.5458,3.06546 0.50508,5.06594 -0.0407,2.00048 -0.28466,4.0394 -0.71542,5.2955 -0.45831,1.33642 -1.57974,2.91736 -2.90021,4.26987 -1.32047,1.3525 -2.84006,2.47647 -4.096,2.89786 -0.57702,0.19361 -1.83104,0.36374 -3.70072,0.50694 -1.86967,0.14321 -4.35505,0.25945 -7.39322,0.34646 -1.24612,0.0357 -2.33066,0.0648 -3.27464,0.0864 m 20.33885,-12.10252 c -0.12688,0.89392 -0.29984,1.69673 -0.51672,2.31073 -0.46832,1.3258 -1.60168,2.89251 -2.93186,4.23067 -1.33018,1.33816 -2.85714,2.4479 -4.11769,2.8589 -0.57913,0.18882 -1.8375,0.3491 -3.71166,0.47701 -1.87416,0.12791 -4.364,0.2235 -7.40403,0.28298 -3.9898,0.0781 -6.3213,0.10068 -7.68597,0.0339 -0.68233,-0.0334 -1.12258,-0.0891 -1.40567,-0.17124 -0.28309,-0.0822 -0.40903,-0.19083 -0.46192,-0.33033 3e-4,-1.1e-4 6e-4,-2.2e-4 9e-4,-3.3e-4 -0.31881,-0.84097 0.50112,-1.63465 1.70151,-1.63853 0.47984,-0.002 0.84574,-0.0367 1.12581,-0.25444 0.28008,-0.21774 0.47476,-0.61821 0.61394,-1.3508 0.27837,-1.46519 0.33197,-4.25834 0.40823,-9.57379 0.0763,-5.31545 0.10197,-8.11151 -0.13415,-9.57801 -0.11806,-0.73325 -0.30109,-1.13413 -0.5712,-1.35223 -0.27012,-0.21809 -0.62646,-0.25361 -1.09288,-0.25569 -1.1413,-0.005 -1.96988,-0.79442 -1.64325,-1.59415 0.0492,-0.12039 0.18703,-0.21855 0.46339,-0.29866 0.27636,-0.0801 0.69108,-0.14213 1.293,-0.19002 1.20386,-0.0958 3.1561,-0.13478 6.24968,-0.14999 4.52108,-0.0221 7.75769,0.0828 10.1959,0.37846 1.26087,0.15288 2.30844,0.35668 3.21102,0.6198 m -17.72369,23.41135 c 0.0249,-0.10431 0.0479,-0.21726 0.0692,-0.33957 0.25294,-1.45223 0.25854,-4.21923 0.2492,-9.51293 -0.009,-5.29371 -0.0253,-8.09217 -0.28395,-9.55858 -0.12933,-0.7332 -0.31855,-1.13429 -0.59395,-1.35257 -0.2754,-0.21828 -0.63681,-0.25402 -1.11033,-0.25656 -1.15866,-0.006 -1.99757,-0.79673 -1.68347,-1.59813 0.0473,-0.12064 0.18297,-0.2191 0.4552,-0.29981 0.27224,-0.0807 0.68098,-0.14365 1.27433,-0.19308 1.18669,-0.0989 3.11123,-0.14306 6.16272,-0.17224 4.45957,-0.0426 7.65479,0.0402 10.06193,0.31816 2.40714,0.27796 4.02676,0.75046 5.34591,1.47426 2.0171,1.10678 4.16052,3.71028 5.04665,6.11045 0.39824,1.07864 0.58634,2.99842 0.57328,4.95255 -0.0131,1.95413 -0.22771,3.94315 -0.63905,5.1657 -0.43764,1.30073 -1.53083,2.83228 -2.82263,4.13309 -1.10854,1.11628 -2.3638,2.06325 -3.47848,2.55127 m 5.69293,-13.97638 c 0.0581,0.80196 0.0741,1.68391 0.0501,2.57329 -0.0538,1.99547 -0.30855,4.02835 -0.74562,5.28015 -0.46503,1.33186 -1.59431,2.90613 -2.92095,4.25097 -1.32663,1.34484 -2.85066,2.46029 -4.1093,2.87511 -0.57825,0.19058 -1.83481,0.35449 -3.70688,0.487 -1.87206,0.1325 -4.35956,0.23361 -7.39816,0.2983 -3.98794,0.0849 -6.32002,0.10994 -7.68497,0.0447 -0.68248,-0.0326 -1.12287,-0.0878 -1.40606,-0.16971 -0.28319,-0.0819 -0.40918,-0.19038 -0.46213,-0.32973 2.9e-4,-8e-5 5.8e-4,-1.5e-4 8.6e-4,-2.3e-4 -0.31916,-0.84008 0.50046,-1.63314 1.7001,-1.63602 0.47954,-0.001 0.84521,-0.036 1.12502,-0.25351 0.27982,-0.21746 0.4742,-0.61761 0.61274,-1.34967 0.27709,-1.46413 0.32873,-4.25539 0.39603,-9.56843 0.0673,-5.31305 0.0856,-8.10801 -0.15429,-9.5738 -0.11993,-0.7329 -0.30405,-1.13358 -0.5751,-1.3515 -0.27104,-0.21792 -0.62829,-0.25326 -1.09602,-0.2551 -1.1445,-0.005 -1.97513,-0.7934 -1.65106,-1.59261 0.0488,-0.12032 0.1862,-0.21839 0.4617,-0.29833 0.2755,-0.0799 0.68898,-0.14169 1.28903,-0.18918 0.84119,-0.0666 2.04899,-0.10508 3.75758,-0.12636 m -0.83276,19.68388 c 0.0735,-1.63471 0.0911,-3.93692 0.0965,-7.17303 0.009,-5.29568 -0.0207,-8.0708 -0.28457,-9.52692 -0.13192,-0.72807 -0.32299,-1.12587 -0.59998,-1.34133 -0.27699,-0.21545 -0.64002,-0.24838 -1.11607,-0.2467 -1.16486,0.004 -2.00843,-0.77916 -1.70045,-1.57128 0.0464,-0.11925 0.18099,-0.21609 0.4511,-0.29363 0.27011,-0.0775 0.67574,-0.13581 1.26412,-0.17803 1.17678,-0.0844 3.08505,-0.10511 6.09939,-0.0845 4.40528,0.0303 7.5461,0.1824 9.90974,0.51568 2.36364,0.33327 3.94967,0.84803 5.23716,1.61158 1.96871,1.16756 4.03799,3.86368 4.85901,6.34499 0.36897,1.11511 0.50705,3.09718 0.43923,5.11951 -0.0678,2.02233 -0.34124,4.08458 -0.79194,5.35623 -0.47954,1.35298 -1.6305,2.95666 -2.98226,4.33255 -0.20941,0.21314 -0.42362,0.4208 -0.64089,0.6212 m 3.92008,-13.28381 c 0.12962,0.99735 0.18235,2.18576 0.16107,3.38716 -0.0354,2.00103 -0.27643,4.03785 -0.70608,5.29167 -0.45713,1.33401 -1.57823,2.91033 -2.90056,4.25587 -1.32232,1.34553 -2.8459,2.46033 -4.10556,2.8742 -0.57873,0.19015 -1.83629,0.35315 -3.71387,0.48287 -1.87759,0.12972 -4.37528,0.22612 -7.43501,0.28194 -4.01568,0.0733 -6.37361,0.088 -7.75324,0.0169 -0.68982,-0.0355 -1.13522,-0.0928 -1.42177,-0.17596 -0.28655,-0.0832 -0.41423,-0.19239 -0.46891,-0.33243 -10e-5,-2.3e-4 -2e-4,-4.5e-4 -3e-4,-6.8e-4 -0.32961,-0.84423 0.48197,-1.64047 1.66638,-1.64935 0.47346,-0.004 0.83469,-0.0402 1.10983,-0.25948 0.27515,-0.21929 0.46406,-0.62159 0.59228,-1.3577 0.25643,-1.47221 0.27084,-4.27806 0.24555,-9.62705 -0.0253,-5.34899 -0.0657,-8.16667 -0.33584,-9.64422 -0.13508,-0.73878 -0.32775,-1.14278 -0.60611,-1.36354 -0.27836,-0.22076 -0.64267,-0.25884 -1.12044,-0.26457 -1.16907,-0.014 -2.01485,-0.80884 -1.7094,-1.61529 0.046,-0.1214 0.18016,-0.22073 0.44947,-0.30307 0.26932,-0.0823 0.6738,-0.1476 1.26069,-0.20022 1.17379,-0.10523 3.07726,-0.15963 6.08852,-0.19974 4.40077,-0.0585 7.54485,0.0201 9.9121,0.29607 1.70337,0.19857 3.00446,0.49911 4.08158,0.92217 m 8.9402,-3.15375 -4.55488,36.83246 m 21.62893,-10.89798 -59.41386,5.19472 m 33.03323,-23.82475 -8.41076,-3.84998 m -52.54703,-1.09317 95.0781,0.064 m -51.85674,57.84223 0.21749,-84.76534"
         style="fill:none;stroke:#ffffff;stroke-width:0.5;stroke-miterlimit:4;stroke-opacity:1;stroke-dasharray:none;display:inline"
         id="path3737" />
      <path
         transform="matrix(0.45444766,0,0,0.45444766,163.17024,519.49564)"
         d="m 342.82072,974.68677 c 3.92728,-6.35277 3.7174,-20.97545 -0.36812,-25.64782 -2.61956,-2.99584 -6.85638,-3.26831 -9.55418,-0.61442 -2.9149,2.8674 -4.40631,12.57359 -3.04139,19.79351 1.35408,7.16268 3.29237,9.54986 7.75398,9.54986 2.66,0 3.67665,-0.60126 5.20971,-3.08113 z m -13.10017,6.9261 c -8.14316,-2.40109 -13.60806,-9.08136 -14.21829,-17.3804 -0.55117,-7.49578 1.01818,-11.65826 6.14991,-16.31147 11.12473,-10.08747 30.08241,-6.92383 36.34844,6.06581 1.93607,4.01355 2.04472,12.12576 0.21845,16.31266 -4.05141,9.28814 -17.39797,14.58647 -28.49846,11.3134 z"
         style="fill:#000000;fill-opacity:1;stroke:none;filter:url(#filter3965)"
         id="path3833" />
      <path
         transform="matrix(0.45444766,0,0,0.45444766,163.17024,519.49564)"
         d="m 284.58358,974.25591 c 5.85719,-4.2105 8.91151,-16.95321 7.09068,-29.58266 -1.70722,-11.84152 -5.8429,-16.33515 -15.67797,-17.03498 -5.65741,-0.40256 -5.93584,-0.31467 -6.8991,2.17759 -0.56327,1.45742 -1.00376,11.24694 -1.00376,22.30852 0,11.06159 0.44049,20.85111 1.00376,22.30855 0.96326,2.49224 1.24169,2.58013 6.8991,2.17756 3.79756,-0.27021 6.85324,-1.10806 8.58729,-2.35458 z m -39.38372,6.15469 c -0.72431,-1.85675 1.07843,-3.61037 3.71146,-3.61037 4.21012,0 4.42665,-1.20703 4.42665,-24.67585 0,-23.46881 -0.21646,-24.67585 -4.42665,-24.67585 -2.5755,0 -4.4404,-1.74169 -3.75265,-3.50477 0.41414,-1.06167 3.95897,-1.33211 17.38376,-1.3263 19.6195,0.009 28.03659,1.11057 33.80092,4.42558 4.40713,2.53454 9.06145,8.42817 10.94195,13.85552 1.69023,4.87815 1.41286,17.3501 -0.50923,22.89932 -2.04505,5.9041 -9.97957,13.96023 -15.56575,15.80431 -2.56646,0.84723 -11.15309,1.46386 -24.69194,1.77327 -17.7687,0.40604 -20.83794,0.26713 -21.31852,-0.96486 z"
         style="fill:#000000;fill-opacity:1;stroke:none;filter:url(#filter3917)"
         id="path3815" />
    </g>
  </g>
</svg>
